<?xml version="1.0" encoding="UTF-8"?>
<svg xmlns="http://www.w3.org/2000/svg" xmlns:xlink="http://www.w3.org/1999/xlink" width="472" height="472" viewBox="0 0 472 472">
<path fill-rule="nonzero" fill="rgb(100%, 100%, 100%)" fill-opacity="1" d="M 0 369.046875 L 0 102.953125 L 471.992188 102.953125 L 471.992188 369.046875 Z M 0 369.046875 "/>
<path fill-rule="nonzero" fill="rgb(51.372549%, 82.745098%, 83.137255%)" fill-opacity="1" stroke-width="1" stroke-linecap="butt" stroke-linejoin="miter" stroke="rgb(0%, 0%, 0%)" stroke-opacity="1" stroke-miterlimit="4" d="M 74.998105 -36.000303 L 0.000417422 -36.000303 L 0.000417422 0.000303207 L 74.998105 0.000303207 Z M 74.998105 -36.000303 " transform="matrix(5.279642, 0, 0, 5.279642, 38.013421, 331.033555)"/>
<path fill-rule="nonzero" fill="rgb(0%, 0%, 0%)" fill-opacity="1" d="M 123.828125 200.136719 L 123.828125 221.894531 L 122.117188 221.894531 C 121.539062 217.726562 120.550781 214.40625 119.105469 211.933594 C 117.683594 209.457031 115.621094 207.5 112.960938 206.035156 C 110.300781 204.589844 107.554688 203.847656 104.710938 203.847656 C 101.492188 203.847656 98.832031 204.835938 96.730469 206.796875 C 94.625 208.757812 93.574219 211.003906 93.574219 213.5 C 93.574219 215.417969 94.234375 217.171875 95.554688 218.757812 C 97.472656 221.070312 102.050781 224.160156 109.246094 228.039062 C 115.125 231.175781 119.148438 233.609375 121.292969 235.296875 C 123.4375 236.96875 125.105469 238.96875 126.261719 241.257812 C 127.417969 243.546875 127.996094 245.941406 127.996094 248.457031 C 127.996094 253.222656 126.160156 257.324219 122.445312 260.769531 C 118.753906 264.214844 113.992188 265.945312 108.175781 265.945312 C 106.359375 265.945312 104.648438 265.800781 103.039062 265.53125 C 102.070312 265.367188 100.089844 264.8125 97.078125 263.820312 C 94.046875 262.851562 92.148438 262.355469 91.347656 262.355469 C 90.5625 262.355469 89.964844 262.605469 89.511719 263.058594 C 89.058594 263.53125 88.726562 264.480469 88.5 265.945312 L 86.789062 265.945312 L 86.789062 244.375 L 88.5 244.375 C 89.304688 248.890625 90.398438 252.25 91.757812 254.5 C 93.121094 256.746094 95.203125 258.601562 98.007812 260.089844 C 100.792969 261.574219 103.863281 262.316406 107.207031 262.316406 C 111.082031 262.316406 114.136719 261.304688 116.382812 259.261719 C 118.609375 257.222656 119.746094 254.808594 119.746094 252.023438 C 119.746094 250.476562 119.3125 248.910156 118.464844 247.34375 C 117.621094 245.753906 116.28125 244.289062 114.484375 242.929688 C 113.289062 242 109.988281 240.023438 104.605469 237.011719 C 99.222656 234 95.410156 231.585938 93.121094 229.792969 C 90.851562 227.996094 89.117188 226.019531 87.964844 223.851562 C 86.769531 221.6875 86.191406 219.292969 86.191406 216.695312 C 86.191406 212.199219 87.921875 208.300781 91.386719 205.042969 C 94.851562 201.765625 99.265625 200.136719 104.605469 200.136719 C 107.949219 200.136719 111.496094 200.960938 115.226562 202.589844 C 116.960938 203.375 118.199219 203.765625 118.898438 203.765625 C 119.703125 203.765625 120.363281 203.519531 120.878906 203.042969 C 121.394531 202.570312 121.785156 201.601562 122.117188 200.136719 Z M 148.410156 208.035156 L 148.410156 221.996094 L 158.351562 221.996094 L 158.351562 225.234375 L 148.410156 225.234375 L 148.410156 252.808594 C 148.410156 255.570312 148.824219 257.429688 149.609375 258.375 C 150.390625 259.347656 151.402344 259.820312 152.640625 259.820312 C 153.671875 259.820312 154.660156 259.492188 155.609375 258.871094 C 156.578125 258.230469 157.320312 257.304688 157.835938 256.046875 L 159.652344 256.046875 C 158.558594 259.097656 157.03125 261.367188 155.050781 262.894531 C 153.074219 264.441406 151.03125 265.203125 148.925781 265.203125 C 147.503906 265.203125 146.121094 264.8125 144.761719 264.007812 C 143.398438 263.222656 142.390625 262.089844 141.730469 260.625 C 141.089844 259.160156 140.761719 256.890625 140.761719 253.820312 L 140.761719 225.234375 L 134.035156 225.234375 L 134.035156 223.707031 C 135.726562 223.027344 137.480469 221.871094 139.253906 220.265625 C 141.027344 218.636719 142.617188 216.695312 144.019531 214.46875 C 144.71875 213.3125 145.710938 211.148438 146.988281 208.035156 Z M 183.265625 220.738281 C 189.699219 220.738281 194.855469 223.191406 198.773438 228.082031 C 202.074219 232.246094 203.722656 237.050781 203.722656 242.457031 C 203.722656 246.269531 202.816406 250.105469 201 254.023438 C 199.167969 257.902344 196.648438 260.851562 193.453125 262.832031 C 190.257812 264.8125 186.6875 265.800781 182.75 265.800781 C 176.355469 265.800781 171.261719 263.242188 167.488281 258.148438 C 164.292969 253.839844 162.703125 249.011719 162.703125 243.671875 C 162.703125 239.773438 163.671875 235.898438 165.613281 232.039062 C 167.550781 228.183594 170.085938 225.335938 173.242188 223.503906 C 176.398438 221.667969 179.738281 220.738281 183.265625 220.738281 M 181.820312 223.75 C 180.191406 223.75 178.542969 224.246094 176.894531 225.214844 C 175.222656 226.203125 173.902344 227.914062 172.871094 230.347656 C 171.839844 232.804688 171.34375 235.9375 171.34375 239.773438 C 171.34375 245.960938 172.5625 251.300781 175.035156 255.777344 C 177.492188 260.273438 180.730469 262.5 184.75 262.5 C 187.742188 262.5 190.234375 261.265625 192.175781 258.789062 C 194.113281 256.3125 195.101562 252.066406 195.101562 246.023438 C 195.101562 238.496094 193.472656 232.554688 190.234375 228.203125 C 188.03125 225.234375 185.226562 223.75 181.820312 223.75 Z M 246.085938 248.355469 C 244.949219 253.964844 242.703125 258.253906 239.363281 261.285156 C 236.019531 264.296875 232.328125 265.800781 228.265625 265.800781 C 223.441406 265.800781 219.234375 263.78125 215.644531 259.71875 C 212.054688 255.675781 210.28125 250.1875 210.28125 243.300781 C 210.28125 236.617188 212.261719 231.175781 216.242188 227.007812 C 220.203125 222.84375 224.988281 220.738281 230.554688 220.738281 C 234.722656 220.738281 238.164062 221.851562 240.847656 224.058594 C 243.546875 226.265625 244.890625 228.574219 244.890625 230.945312 C 244.890625 232.121094 244.515625 233.070312 243.753906 233.8125 C 242.992188 234.535156 241.941406 234.886719 240.578125 234.886719 C 238.742188 234.886719 237.382812 234.308594 236.433594 233.132812 C 235.917969 232.492188 235.566406 231.257812 235.402344 229.421875 C 235.238281 227.605469 234.597656 226.203125 233.523438 225.234375 C 232.433594 224.328125 230.925781 223.851562 229.007812 223.851562 C 225.914062 223.851562 223.441406 225.007812 221.542969 227.296875 C 219.046875 230.328125 217.789062 234.328125 217.789062 239.300781 C 217.789062 244.375 219.027344 248.847656 221.523438 252.746094 C 224.019531 256.625 227.378906 258.5625 231.605469 258.5625 C 234.640625 258.5625 237.382812 257.53125 239.773438 255.449219 C 241.484375 254.023438 243.136719 251.445312 244.746094 247.714844 Z M 264.75 198.507812 L 264.75 240.785156 L 275.554688 230.945312 C 277.84375 228.84375 279.1875 227.523438 279.558594 226.96875 C 279.785156 226.59375 279.929688 226.222656 279.929688 225.851562 C 279.929688 225.234375 279.660156 224.699219 279.144531 224.246094 C 278.648438 223.789062 277.804688 223.542969 276.628906 223.480469 L 276.628906 221.996094 L 295.085938 221.996094 L 295.085938 223.480469 C 292.550781 223.542969 290.445312 223.933594 288.753906 224.636719 C 287.0625 225.359375 285.230469 226.617188 283.207031 228.453125 L 272.296875 238.515625 L 283.207031 252.292969 C 286.238281 256.109375 288.28125 258.519531 289.332031 259.53125 C 290.816406 260.996094 292.117188 261.945312 293.230469 262.355469 C 294.015625 262.6875 295.355469 262.832031 297.273438 262.832031 L 297.273438 264.5 L 276.628906 264.5 L 276.628906 262.832031 C 277.804688 262.8125 278.585938 262.625 279.019531 262.296875 C 279.433594 261.964844 279.640625 261.511719 279.640625 260.933594 C 279.640625 260.210938 279.019531 259.078125 277.785156 257.488281 L 264.75 240.824219 L 264.75 254.933594 C 264.75 257.695312 264.933594 259.511719 265.328125 260.378906 C 265.71875 261.242188 266.253906 261.863281 266.976562 262.234375 C 267.679688 262.605469 269.226562 262.8125 271.617188 262.832031 L 271.617188 264.5 L 249.984375 264.5 L 249.984375 262.832031 C 252.148438 262.832031 253.777344 262.5625 254.851562 262.046875 C 255.511719 261.695312 256.003906 261.179688 256.335938 260.460938 C 256.808594 259.449219 257.035156 257.675781 257.035156 255.179688 L 257.035156 216.46875 C 257.035156 211.5625 256.933594 208.550781 256.707031 207.457031 C 256.5 206.34375 256.148438 205.601562 255.652344 205.167969 C 255.160156 204.753906 254.5 204.550781 253.695312 204.550781 C 253.054688 204.550781 252.085938 204.816406 250.765625 205.332031 L 249.984375 203.703125 L 262.605469 198.507812 Z M 345.058594 285 L 295.933594 285 L 295.933594 281.125 L 345.058594 281.125 Z M 355.371094 207.746094 L 370.671875 200.28125 L 372.21875 200.28125 L 372.21875 253.40625 C 372.21875 256.933594 372.363281 259.140625 372.652344 260.007812 C 372.941406 260.871094 373.558594 261.53125 374.488281 261.984375 C 375.414062 262.460938 377.292969 262.726562 380.160156 262.789062 L 380.160156 264.5 L 356.484375 264.5 L 356.484375 262.789062 C 359.453125 262.726562 361.371094 262.460938 362.238281 262.027344 C 363.101562 261.574219 363.703125 260.976562 364.050781 260.210938 C 364.382812 259.449219 364.546875 257.179688 364.566406 253.40625 L 364.566406 219.4375 C 364.546875 214.859375 364.402344 211.933594 364.09375 210.632812 C 363.867188 209.644531 363.472656 208.902344 362.917969 208.445312 C 362.339844 207.992188 361.640625 207.746094 360.855469 207.746094 C 359.699219 207.746094 358.113281 208.242188 356.070312 209.1875 Z M 80.25 179.820312 "/>
</svg>
