<?xml version="1.0" encoding="UTF-8"?>
<svg xmlns="http://www.w3.org/2000/svg" xmlns:xlink="http://www.w3.org/1999/xlink" width="472" height="472" viewBox="0 0 472 472">
<path fill-rule="nonzero" fill="rgb(100%, 100%, 100%)" fill-opacity="1" d="M 16.597656 472 L 16.597656 0 L 455.417969 0 L 455.417969 472 Z M 16.597656 472 "/>
<path fill-rule="nonzero" fill="rgb(51.372549%, 82.745098%, 83.137255%)" fill-opacity="1" stroke-width="1" stroke-linecap="butt" stroke-linejoin="miter" stroke="rgb(0%, 0%, 0%)" stroke-opacity="1" stroke-miterlimit="4" d="M 63.602733 -35.999831 L 9.602245 -35.999831 L 9.602245 0.000263484 L 63.602733 0.000263484 Z M 63.602733 -35.999831 " transform="matrix(5.625745, 0, 0, 5.625745, 57.101313, 431.494611)"/>
<path fill-rule="nonzero" fill="rgb(0%, 0%, 0%)" fill-opacity="1" d="M 281.296875 292.015625 L 281.296875 315.199219 L 279.472656 315.199219 C 278.855469 310.761719 277.800781 307.222656 276.261719 304.585938 C 274.746094 301.949219 272.550781 299.859375 269.714844 298.300781 C 266.878906 296.761719 263.957031 295.972656 260.925781 295.972656 C 257.496094 295.972656 254.660156 297.027344 252.421875 299.113281 C 250.179688 301.203125 249.058594 303.597656 249.058594 306.257812 C 249.058594 308.300781 249.761719 310.167969 251.167969 311.859375 C 253.210938 314.320312 258.089844 317.617188 265.757812 321.75 C 272.023438 325.089844 276.308594 327.683594 278.59375 329.484375 C 280.878906 331.265625 282.660156 333.394531 283.890625 335.835938 C 285.121094 338.273438 285.734375 340.824219 285.734375 343.503906 C 285.734375 348.582031 283.777344 352.953125 279.824219 356.625 C 275.890625 360.292969 270.8125 362.140625 264.617188 362.140625 C 262.683594 362.140625 260.859375 361.984375 259.144531 361.699219 C 258.113281 361.523438 256.003906 360.929688 252.792969 359.875 C 249.5625 358.84375 247.542969 358.316406 246.683594 358.316406 C 245.847656 358.316406 245.210938 358.578125 244.730469 359.0625 C 244.246094 359.570312 243.894531 360.578125 243.652344 362.140625 L 241.828125 362.140625 L 241.828125 339.152344 L 243.652344 339.152344 C 244.507812 343.964844 245.671875 347.546875 247.125 349.941406 C 248.574219 352.339844 250.792969 354.316406 253.78125 355.898438 C 256.75 357.480469 260.023438 358.273438 263.582031 358.273438 C 267.714844 358.273438 270.96875 357.195312 273.363281 355.019531 C 275.734375 352.84375 276.945312 350.273438 276.945312 347.304688 C 276.945312 345.65625 276.484375 343.988281 275.582031 342.316406 C 274.679688 340.625 273.253906 339.066406 271.339844 337.613281 C 270.066406 336.625 266.550781 334.515625 260.816406 331.308594 C 255.078125 328.097656 251.015625 325.527344 248.574219 323.617188 C 246.15625 321.703125 244.3125 319.59375 243.082031 317.289062 C 241.804688 314.980469 241.191406 312.429688 241.191406 309.660156 C 241.191406 304.871094 243.035156 300.71875 246.726562 297.246094 C 250.421875 293.75 255.125 292.015625 260.816406 292.015625 C 264.375 292.015625 268.15625 292.894531 272.132812 294.628906 C 273.976562 295.464844 275.296875 295.882812 276.042969 295.882812 C 276.902344 295.882812 277.605469 295.621094 278.152344 295.113281 C 278.703125 294.609375 279.121094 293.574219 279.472656 292.015625 Z M 234.863281 270.371094 "/>
<path fill-rule="nonzero" fill="rgb(89.803922%, 89.803922%, 89.803922%)" fill-opacity="1" stroke-width="1" stroke-linecap="butt" stroke-linejoin="miter" stroke="rgb(0%, 0%, 0%)" stroke-opacity="1" stroke-miterlimit="4" d="M 42.102108 -64.00029 C 42.102108 -60.962497 39.639934 -58.500324 36.602142 -58.500324 C 33.565044 -58.500324 31.102176 -60.962497 31.102176 -64.00029 C 31.102176 -67.037388 33.565044 -69.500256 36.602142 -69.500256 C 39.639934 -69.500256 42.102108 -67.037388 42.102108 -64.00029 Z M 42.102108 -64.00029 " transform="matrix(5.625745, 0, 0, 5.625745, 57.101313, 431.494611)"/>
<path fill-rule="nonzero" fill="rgb(0%, 0%, 0%)" fill-opacity="1" d="M 82.726562 177.589844 C 78.59375 180.773438 76 182.621094 74.945312 183.125 C 73.363281 183.851562 71.671875 184.226562 69.890625 184.226562 C 67.101562 184.226562 64.816406 183.28125 63.011719 181.367188 C 61.210938 179.457031 60.308594 176.953125 60.308594 173.851562 C 60.308594 171.898438 60.75 170.183594 61.628906 168.753906 C 62.835938 166.753906 64.925781 164.886719 67.890625 163.128906 C 70.859375 161.371094 75.800781 159.238281 82.726562 156.710938 L 82.726562 155.128906 C 82.726562 151.109375 82.085938 148.363281 80.8125 146.867188 C 79.539062 145.371094 77.691406 144.625 75.253906 144.625 C 73.40625 144.625 71.933594 145.132812 70.859375 146.121094 C 69.738281 147.109375 69.1875 148.25 69.1875 149.546875 L 69.277344 152.097656 C 69.277344 153.4375 68.925781 154.492188 68.242188 155.21875 C 67.5625 155.941406 66.660156 156.316406 65.539062 156.316406 C 64.464844 156.316406 63.5625 155.941406 62.882812 155.175781 C 62.199219 154.40625 61.847656 153.371094 61.847656 152.054688 C 61.847656 149.527344 63.144531 147.21875 65.714844 145.109375 C 68.285156 143 71.914062 141.945312 76.570312 141.945312 C 80.152344 141.945312 83.078125 142.539062 85.363281 143.746094 C 87.097656 144.648438 88.371094 146.074219 89.1875 148.011719 C 89.714844 149.261719 89.976562 151.855469 89.976562 155.746094 L 89.976562 169.414062 C 89.976562 173.257812 90.042969 175.609375 90.195312 176.46875 C 90.351562 177.324219 90.59375 177.917969 90.921875 178.203125 C 91.25 178.488281 91.648438 178.644531 92.085938 178.644531 C 92.546875 178.644531 92.964844 178.535156 93.316406 178.335938 C 93.933594 177.960938 95.117188 176.886719 96.878906 175.128906 L 96.878906 177.589844 C 93.601562 181.984375 90.460938 184.179688 87.472656 184.179688 C 86.042969 184.179688 84.902344 183.675781 84.042969 182.6875 C 83.1875 181.699219 82.746094 179.984375 82.726562 177.589844 M 82.726562 174.730469 L 82.726562 159.394531 C 78.308594 161.152344 75.449219 162.402344 74.15625 163.128906 C 71.847656 164.425781 70.175781 165.765625 69.1875 167.171875 C 68.199219 168.578125 67.695312 170.117188 67.695312 171.789062 C 67.695312 173.898438 68.332031 175.65625 69.582031 177.039062 C 70.835938 178.425781 72.285156 179.128906 73.933594 179.128906 C 76.152344 179.128906 79.097656 177.65625 82.726562 174.730469 Z M 135.160156 143.132812 L 135.160156 167.523438 C 135.160156 172.183594 135.269531 175.039062 135.488281 176.074219 C 135.707031 177.105469 136.058594 177.832031 136.542969 178.25 C 137.027344 178.664062 137.597656 178.863281 138.234375 178.863281 C 139.136719 178.863281 140.167969 178.621094 141.3125 178.117188 L 141.925781 179.65625 L 129.882812 184.621094 L 127.90625 184.621094 L 127.90625 176.09375 C 124.457031 179.851562 121.820312 182.203125 119.996094 183.171875 C 118.171875 184.136719 116.257812 184.621094 114.238281 184.621094 C 111.972656 184.621094 110.019531 183.960938 108.371094 182.664062 C 106.722656 181.367188 105.558594 179.675781 104.921875 177.632812 C 104.28125 175.589844 103.953125 172.6875 103.953125 168.929688 L 103.953125 150.953125 C 103.953125 149.042969 103.753906 147.722656 103.339844 147 C 102.921875 146.273438 102.328125 145.703125 101.515625 145.308594 C 100.699219 144.910156 99.25 144.734375 97.140625 144.757812 L 97.140625 143.132812 L 111.25 143.132812 L 111.25 170.074219 C 111.25 173.832031 111.910156 176.292969 113.203125 177.457031 C 114.5 178.621094 116.082031 179.214844 117.929688 179.214844 C 119.183594 179.214844 120.609375 178.820312 122.214844 178.027344 C 123.820312 177.238281 125.710938 175.722656 127.90625 173.5 L 127.90625 150.691406 C 127.90625 148.40625 127.488281 146.867188 126.652344 146.054688 C 125.820312 145.242188 124.082031 144.824219 121.445312 144.757812 L 121.445312 143.132812 Z M 143.246094 143.132812 L 162.1875 143.132812 L 162.1875 144.757812 C 160.980469 144.757812 160.144531 144.957031 159.660156 145.371094 C 159.179688 145.789062 158.9375 146.316406 158.9375 147 C 158.9375 147.703125 159.441406 148.777344 160.472656 150.25 C 160.804688 150.710938 161.289062 151.460938 161.925781 152.449219 L 164.78125 157.019531 L 168.078125 152.449219 C 170.1875 149.546875 171.242188 147.722656 171.242188 146.953125 C 171.242188 146.339844 171 145.8125 170.496094 145.394531 C 169.988281 144.976562 169.199219 144.757812 168.078125 144.757812 L 168.078125 143.132812 L 181.703125 143.132812 L 181.703125 144.757812 C 180.273438 144.84375 179.023438 145.242188 177.96875 145.945312 C 176.539062 146.933594 174.5625 149.109375 172.078125 152.449219 L 166.582031 159.789062 L 176.605469 174.203125 C 179.066406 177.742188 180.824219 179.875 181.878906 180.597656 C 182.933594 181.324219 184.296875 181.71875 185.964844 181.808594 L 185.964844 183.390625 L 166.980469 183.390625 L 166.980469 181.808594 C 168.296875 181.808594 169.332031 181.523438 170.054688 180.929688 C 170.605469 180.511719 170.890625 179.984375 170.890625 179.304688 C 170.890625 178.621094 169.945312 176.929688 168.078125 174.203125 L 162.1875 165.589844 L 155.726562 174.203125 C 153.726562 176.863281 152.738281 178.445312 152.738281 178.953125 C 152.738281 179.65625 153.070312 180.292969 153.726562 180.863281 C 154.386719 181.433594 155.375 181.742188 156.695312 181.808594 L 156.695312 183.390625 L 143.554688 183.390625 L 143.554688 181.808594 C 144.609375 181.65625 145.53125 181.304688 146.320312 180.710938 C 147.441406 179.851562 149.3125 177.699219 151.949219 174.203125 L 160.386719 162.996094 L 152.738281 151.921875 C 150.5625 148.757812 148.894531 146.777344 147.707031 145.964844 C 146.519531 145.152344 145.027344 144.757812 143.246094 144.757812 Z M 197.613281 129.636719 L 212.117188 122.5625 L 213.566406 122.5625 L 213.566406 172.886719 C 213.566406 176.226562 213.699219 178.3125 213.984375 179.128906 C 214.269531 179.941406 214.84375 180.578125 215.722656 181.015625 C 216.601562 181.457031 218.378906 181.699219 221.082031 181.765625 L 221.082031 183.390625 L 198.667969 183.390625 L 198.667969 181.765625 C 201.480469 181.699219 203.304688 181.457031 204.117188 181.039062 C 204.929688 180.621094 205.503906 180.050781 205.832031 179.324219 C 206.160156 178.601562 206.316406 176.46875 206.316406 172.886719 L 206.316406 140.714844 C 206.316406 136.382812 206.160156 133.59375 205.875 132.363281 C 205.679688 131.417969 205.304688 130.738281 204.753906 130.296875 C 204.207031 129.859375 203.570312 129.636719 202.800781 129.636719 C 201.722656 129.636719 200.207031 130.101562 198.273438 131 Z M 57.101562 103.179688 "/>
</svg>
