<?xml version="1.0" encoding="UTF-8"?>
<svg xmlns="http://www.w3.org/2000/svg" xmlns:xlink="http://www.w3.org/1999/xlink" width="472" height="472" viewBox="0 0 472 472">
<path fill-rule="nonzero" fill="rgb(100%, 100%, 100%)" fill-opacity="1" d="M 0 272.121094 L 0 199.878906 L 472.003906 199.878906 L 472.003906 272.121094 Z M 0 272.121094 "/>
<path fill="none" stroke-width="1.1" stroke-linecap="butt" stroke-linejoin="miter" stroke="rgb(0%, 0%, 0%)" stroke-opacity="1" stroke-miterlimit="4" d="M 94.299656 -15.999711 C 118.488431 -15.999711 146.931226 -15.999711 166.76515 -15.999711 " transform="matrix(1.433387, 0, 0, 1.433387, 10.320386, 261.800965)"/>
<path fill="none" stroke-width="1.1" stroke-linecap="butt" stroke-linejoin="miter" stroke="rgb(95.686275%, 50.588235%, 32.54902%)" stroke-opacity="1" stroke-miterlimit="4" d="M 94.299656 -18 C 118.488431 -18 146.931226 -18 166.76515 -18 " transform="matrix(1.433387, 0, 0, 1.433387, 10.320386, 261.800965)"/>
<path fill="none" stroke-width="1.1" stroke-linecap="butt" stroke-linejoin="miter" stroke="rgb(0%, 0%, 0%)" stroke-opacity="1" stroke-miterlimit="4" d="M 94.299656 -20.000289 C 118.488431 -20.000289 146.931226 -20.000289 166.76515 -20.000289 " transform="matrix(1.433387, 0, 0, 1.433387, 10.320386, 261.800965)"/>
<path fill="none" stroke-width="1.1" stroke-linecap="butt" stroke-linejoin="miter" stroke="rgb(0%, 0%, 0%)" stroke-opacity="1" stroke-miterlimit="4" d="M 215.960258 -15.999711 C 233.006313 -15.999711 255.780716 -15.999711 273.600725 -15.999711 " transform="matrix(1.433387, 0, 0, 1.433387, 10.320386, 261.800965)"/>
<path fill="none" stroke-width="1.1" stroke-linecap="butt" stroke-linejoin="miter" stroke="rgb(95.686275%, 50.588235%, 32.54902%)" stroke-opacity="1" stroke-miterlimit="4" d="M 215.960258 -18 C 233.006313 -18 255.780716 -18 273.600725 -18 " transform="matrix(1.433387, 0, 0, 1.433387, 10.320386, 261.800965)"/>
<path fill="none" stroke-width="1.1" stroke-linecap="butt" stroke-linejoin="miter" stroke="rgb(0%, 0%, 0%)" stroke-opacity="1" stroke-miterlimit="4" d="M 215.960258 -20.000289 C 233.006313 -20.000289 255.780716 -20.000289 273.600725 -20.000289 " transform="matrix(1.433387, 0, 0, 1.433387, 10.320386, 261.800965)"/>
<path fill-rule="nonzero" fill="rgb(0%, 0%, 0%)" fill-opacity="1" stroke-width="1.1" stroke-linecap="butt" stroke-linejoin="miter" stroke="rgb(0%, 0%, 0%)" stroke-opacity="1" stroke-miterlimit="4" d="M 273.81874 -23.251439 L 288.820904 -18 L 273.81874 -12.751286 Z M 273.81874 -23.251439 " transform="matrix(1.433387, 0, 0, 1.433387, 10.320386, 261.800965)"/>
<path fill-rule="nonzero" fill="rgb(51.372549%, 82.745098%, 83.137255%)" fill-opacity="1" stroke-width="1" stroke-linecap="butt" stroke-linejoin="miter" stroke="rgb(0%, 0%, 0%)" stroke-opacity="1" stroke-miterlimit="4" d="M 94.005335 -35.999872 L -0.00277629 -35.999872 L -0.00277629 -0.000128224 L 94.005335 -0.000128224 Z M 94.005335 -35.999872 " transform="matrix(1.433387, 0, 0, 1.433387, 10.320386, 261.800965)"/>
<path fill-rule="nonzero" fill="rgb(0%, 0%, 0%)" fill-opacity="1" d="M 27.078125 235.738281 L 27.078125 240.714844 C 27.078125 241.789062 27.195312 242.457031 27.429688 242.71875 C 27.75 243.089844 28.230469 243.273438 28.882812 243.273438 L 29.535156 243.273438 L 29.535156 243.738281 L 22.214844 243.738281 L 22.214844 243.273438 L 22.855469 243.273438 C 23.578125 243.273438 24.09375 243.039062 24.40625 242.566406 C 24.574219 242.304688 24.660156 241.6875 24.660156 240.714844 L 24.660156 229.679688 C 24.660156 228.601562 24.546875 227.9375 24.316406 227.675781 C 23.992188 227.304688 23.507812 227.121094 22.855469 227.121094 L 22.214844 227.121094 L 22.214844 226.65625 L 28.476562 226.65625 C 30.007812 226.65625 31.210938 226.8125 32.089844 227.125 C 32.976562 227.445312 33.71875 227.976562 34.324219 228.722656 C 34.929688 229.472656 35.230469 230.355469 35.230469 231.378906 C 35.230469 232.773438 34.773438 233.90625 33.847656 234.78125 C 32.929688 235.652344 31.628906 236.089844 29.949219 236.089844 C 29.535156 236.089844 29.09375 236.0625 28.617188 236 C 28.136719 235.945312 27.621094 235.855469 27.078125 235.738281 M 27.078125 235.019531 C 27.519531 235.105469 27.917969 235.164062 28.261719 235.210938 C 28.605469 235.25 28.898438 235.273438 29.144531 235.273438 C 30.019531 235.273438 30.773438 234.9375 31.40625 234.257812 C 32.039062 233.582031 32.359375 232.707031 32.359375 231.632812 C 32.359375 230.894531 32.207031 230.203125 31.90625 229.570312 C 31.601562 228.9375 31.171875 228.464844 30.617188 228.148438 C 30.0625 227.832031 29.4375 227.675781 28.730469 227.675781 C 28.300781 227.675781 27.75 227.757812 27.078125 227.914062 Z M 42.589844 231.855469 C 44.335938 231.855469 45.734375 232.523438 46.800781 233.851562 C 47.695312 234.980469 48.144531 236.285156 48.144531 237.753906 C 48.144531 238.789062 47.894531 239.828125 47.402344 240.894531 C 46.90625 241.945312 46.222656 242.746094 45.355469 243.285156 C 44.488281 243.820312 43.519531 244.089844 42.449219 244.089844 C 40.710938 244.089844 39.328125 243.398438 38.304688 242.011719 C 37.4375 240.84375 37.007812 239.53125 37.007812 238.082031 C 37.007812 237.023438 37.269531 235.972656 37.796875 234.925781 C 38.320312 233.878906 39.011719 233.105469 39.867188 232.605469 C 40.722656 232.109375 41.632812 231.855469 42.589844 231.855469 M 42.195312 232.675781 C 41.753906 232.675781 41.304688 232.808594 40.859375 233.070312 C 40.40625 233.339844 40.046875 233.804688 39.765625 234.464844 C 39.488281 235.132812 39.351562 235.984375 39.351562 237.023438 C 39.351562 238.703125 39.683594 240.15625 40.355469 241.371094 C 41.019531 242.589844 41.898438 243.195312 42.992188 243.195312 C 43.804688 243.195312 44.480469 242.859375 45.007812 242.1875 C 45.535156 241.515625 45.800781 240.363281 45.800781 238.722656 C 45.800781 236.675781 45.359375 235.066406 44.480469 233.882812 C 43.882812 233.078125 43.121094 232.675781 42.195312 232.675781 Z M 49.015625 233.347656 L 52.566406 231.90625 L 53.046875 231.90625 L 53.046875 234.605469 C 53.640625 233.585938 54.242188 232.875 54.839844 232.46875 C 55.4375 232.0625 56.070312 231.855469 56.738281 231.855469 C 57.898438 231.855469 58.859375 232.308594 59.632812 233.21875 C 60.585938 234.324219 61.054688 235.769531 61.054688 237.550781 C 61.054688 239.542969 60.484375 241.191406 59.339844 242.488281 C 58.402344 243.558594 57.21875 244.089844 55.792969 244.089844 C 55.167969 244.089844 54.632812 244 54.179688 243.828125 C 53.84375 243.699219 53.460938 243.445312 53.046875 243.070312 L 53.046875 246.582031 C 53.046875 247.371094 53.09375 247.875 53.1875 248.089844 C 53.289062 248.308594 53.457031 248.476562 53.691406 248.597656 C 53.933594 248.726562 54.367188 248.789062 54.996094 248.789062 L 54.996094 249.257812 L 48.949219 249.257812 L 48.949219 248.789062 L 49.261719 248.789062 C 49.726562 248.800781 50.125 248.710938 50.449219 248.523438 C 50.605469 248.429688 50.734375 248.285156 50.820312 248.078125 C 50.910156 247.871094 50.953125 247.347656 50.953125 246.507812 L 50.953125 235.597656 C 50.953125 234.851562 50.921875 234.375 50.851562 234.175781 C 50.785156 233.972656 50.679688 233.820312 50.535156 233.722656 C 50.382812 233.621094 50.1875 233.570312 49.933594 233.570312 C 49.734375 233.570312 49.476562 233.632812 49.160156 233.75 L 49.015625 233.347656 M 53.046875 235.351562 L 53.046875 239.65625 C 53.046875 240.589844 53.082031 241.203125 53.160156 241.5 C 53.277344 241.984375 53.5625 242.410156 54.023438 242.78125 C 54.480469 243.148438 55.058594 243.335938 55.753906 243.335938 C 56.59375 243.335938 57.273438 243.011719 57.796875 242.347656 C 58.472656 241.5 58.816406 240.289062 58.816406 238.738281 C 58.816406 236.972656 58.429688 235.621094 57.65625 234.667969 C 57.117188 234.011719 56.480469 233.6875 55.742188 233.683594 C 55.335938 233.6875 54.941406 233.789062 54.542969 233.984375 C 54.242188 234.140625 53.742188 234.589844 53.046875 235.351562 Z M 72.863281 232.199219 L 72.863281 239.191406 C 72.863281 240.523438 72.890625 241.339844 72.957031 241.636719 C 73.019531 241.941406 73.121094 242.148438 73.261719 242.265625 C 73.394531 242.382812 73.558594 242.4375 73.742188 242.4375 C 74.003906 242.4375 74.296875 242.371094 74.625 242.226562 L 74.800781 242.667969 L 71.351562 244.089844 L 70.785156 244.089844 L 70.785156 241.644531 C 69.789062 242.71875 69.035156 243.398438 68.511719 243.675781 C 67.992188 243.949219 67.441406 244.089844 66.867188 244.089844 C 66.21875 244.089844 65.65625 243.90625 65.179688 243.53125 C 64.710938 243.15625 64.378906 242.675781 64.195312 242.085938 C 64.011719 241.5 63.914062 240.667969 63.914062 239.59375 L 63.914062 234.445312 C 63.914062 233.894531 63.859375 233.519531 63.742188 233.308594 C 63.625 233.101562 63.449219 232.9375 63.214844 232.820312 C 62.984375 232.707031 62.566406 232.65625 61.960938 232.664062 L 61.960938 232.199219 L 66.007812 232.199219 L 66.007812 239.917969 C 66.007812 240.996094 66.195312 241.699219 66.570312 242.035156 C 66.945312 242.371094 67.394531 242.539062 67.925781 242.539062 C 68.28125 242.539062 68.691406 242.429688 69.152344 242.203125 C 69.609375 241.972656 70.152344 241.542969 70.785156 240.90625 L 70.785156 234.363281 C 70.785156 233.710938 70.664062 233.269531 70.421875 233.039062 C 70.1875 232.804688 69.6875 232.679688 68.933594 232.664062 L 68.933594 232.199219 Z M 79.617188 225.820312 L 79.617188 241.128906 C 79.617188 241.851562 79.667969 242.332031 79.773438 242.566406 C 79.878906 242.804688 80.035156 242.980469 80.257812 243.101562 C 80.472656 243.222656 80.882812 243.285156 81.480469 243.285156 L 81.480469 243.738281 L 75.824219 243.738281 L 75.824219 243.285156 C 76.351562 243.285156 76.710938 243.230469 76.90625 243.121094 C 77.097656 243.011719 77.246094 242.832031 77.359375 242.578125 C 77.464844 242.328125 77.523438 241.84375 77.523438 241.128906 L 77.523438 230.648438 C 77.523438 229.347656 77.492188 228.546875 77.4375 228.25 C 77.375 227.949219 77.28125 227.746094 77.152344 227.636719 C 77.023438 227.527344 76.855469 227.472656 76.652344 227.472656 C 76.433594 227.472656 76.15625 227.539062 75.824219 227.675781 L 75.605469 227.230469 L 79.050781 225.820312 Z M 89.351562 242.074219 C 88.164062 242.992188 87.425781 243.519531 87.125 243.660156 C 86.664062 243.871094 86.183594 243.980469 85.675781 243.980469 C 84.875 243.980469 84.21875 243.703125 83.703125 243.15625 C 83.183594 242.613281 82.925781 241.894531 82.925781 241.003906 C 82.925781 240.441406 83.054688 239.953125 83.304688 239.542969 C 83.648438 238.972656 84.246094 238.4375 85.097656 237.933594 C 85.953125 237.429688 87.371094 236.8125 89.351562 236.089844 L 89.351562 235.636719 C 89.351562 234.488281 89.167969 233.699219 88.804688 233.269531 C 88.441406 232.84375 87.90625 232.628906 87.207031 232.628906 C 86.683594 232.628906 86.261719 232.769531 85.949219 233.054688 C 85.628906 233.339844 85.472656 233.671875 85.472656 234.039062 L 85.496094 234.769531 C 85.496094 235.15625 85.398438 235.453125 85.199219 235.664062 C 85.003906 235.871094 84.746094 235.976562 84.425781 235.976562 C 84.113281 235.976562 83.859375 235.871094 83.664062 235.652344 C 83.46875 235.433594 83.367188 235.132812 83.367188 234.757812 C 83.367188 234.035156 83.738281 233.367188 84.476562 232.765625 C 85.214844 232.160156 86.25 231.855469 87.589844 231.855469 C 88.613281 231.855469 89.453125 232.03125 90.109375 232.371094 C 90.601562 232.636719 90.964844 233.042969 91.199219 233.597656 C 91.355469 233.957031 91.429688 234.695312 91.429688 235.816406 L 91.429688 239.730469 C 91.429688 240.832031 91.453125 241.503906 91.492188 241.757812 C 91.535156 242.003906 91.601562 242.171875 91.699219 242.25 C 91.800781 242.339844 91.90625 242.378906 92.035156 242.378906 C 92.167969 242.378906 92.285156 242.347656 92.386719 242.289062 C 92.566406 242.179688 92.902344 241.875 93.40625 241.371094 L 93.40625 242.074219 C 92.464844 243.335938 91.570312 243.960938 90.714844 243.960938 C 90.300781 243.960938 89.972656 243.820312 89.726562 243.535156 C 89.488281 243.25 89.359375 242.765625 89.351562 242.074219 M 89.351562 241.257812 L 89.351562 236.863281 C 88.082031 237.367188 87.265625 237.71875 86.894531 237.933594 C 86.226562 238.300781 85.757812 238.6875 85.472656 239.089844 C 85.1875 239.492188 85.042969 239.929688 85.042969 240.414062 C 85.042969 241.015625 85.21875 241.519531 85.585938 241.917969 C 85.941406 242.316406 86.363281 242.515625 86.832031 242.515625 C 87.472656 242.515625 88.3125 242.097656 89.351562 241.257812 Z M 97.613281 228.40625 L 97.613281 232.199219 L 100.308594 232.199219 L 100.308594 233.078125 L 97.613281 233.078125 L 97.613281 240.5625 C 97.613281 241.3125 97.722656 241.816406 97.9375 242.074219 C 98.148438 242.339844 98.421875 242.46875 98.757812 242.46875 C 99.039062 242.46875 99.308594 242.378906 99.566406 242.210938 C 99.828125 242.035156 100.03125 241.785156 100.171875 241.441406 L 100.664062 241.441406 C 100.367188 242.269531 99.953125 242.886719 99.414062 243.300781 C 98.875 243.722656 98.324219 243.929688 97.75 243.929688 C 97.363281 243.929688 96.988281 243.820312 96.621094 243.605469 C 96.25 243.390625 95.976562 243.082031 95.796875 242.683594 C 95.625 242.289062 95.535156 241.671875 95.535156 240.835938 L 95.535156 233.078125 L 93.707031 233.078125 L 93.707031 232.664062 C 94.167969 232.476562 94.644531 232.164062 95.125 231.726562 C 95.605469 231.285156 96.039062 230.757812 96.417969 230.15625 C 96.609375 229.839844 96.878906 229.253906 97.226562 228.40625 Z M 104.363281 225.820312 C 104.714844 225.820312 105.019531 225.949219 105.265625 226.195312 C 105.511719 226.441406 105.640625 226.746094 105.640625 227.097656 C 105.640625 227.449219 105.511719 227.753906 105.265625 228.003906 C 105.019531 228.257812 104.714844 228.378906 104.363281 228.378906 C 104.011719 228.378906 103.707031 228.257812 103.457031 228.003906 C 103.203125 227.753906 103.082031 227.449219 103.082031 227.097656 C 103.082031 226.746094 103.203125 226.441406 103.453125 226.195312 C 103.699219 225.949219 104.003906 225.820312 104.363281 225.820312 M 105.410156 231.855469 L 105.410156 241.128906 C 105.410156 241.851562 105.460938 242.332031 105.566406 242.574219 C 105.675781 242.8125 105.832031 242.992188 106.03125 243.109375 C 106.238281 243.230469 106.613281 243.285156 107.164062 243.285156 L 107.164062 243.738281 L 101.554688 243.738281 L 101.554688 243.285156 C 102.117188 243.285156 102.492188 243.230469 102.691406 243.121094 C 102.878906 243.011719 103.035156 242.832031 103.148438 242.578125 C 103.261719 242.328125 103.324219 241.84375 103.324219 241.128906 L 103.324219 236.683594 C 103.324219 235.433594 103.285156 234.621094 103.203125 234.253906 C 103.148438 233.984375 103.054688 233.792969 102.929688 233.691406 C 102.800781 233.585938 102.628906 233.535156 102.414062 233.535156 C 102.175781 233.535156 101.890625 233.597656 101.554688 233.722656 L 101.378906 233.269531 L 104.855469 231.855469 Z M 114.246094 231.855469 C 115.992188 231.855469 117.394531 232.523438 118.457031 233.851562 C 119.351562 234.980469 119.800781 236.285156 119.800781 237.753906 C 119.800781 238.789062 119.554688 239.828125 119.0625 240.894531 C 118.5625 241.945312 117.878906 242.746094 117.011719 243.285156 C 116.144531 243.820312 115.175781 244.089844 114.105469 244.089844 C 112.371094 244.089844 110.988281 243.398438 109.964844 242.011719 C 109.09375 240.84375 108.664062 239.53125 108.664062 238.082031 C 108.664062 237.023438 108.925781 235.972656 109.453125 234.925781 C 109.980469 233.878906 110.667969 233.105469 111.523438 232.605469 C 112.382812 232.109375 113.289062 231.855469 114.246094 231.855469 M 113.855469 232.675781 C 113.414062 232.675781 112.964844 232.808594 112.515625 233.070312 C 112.0625 233.339844 111.703125 233.804688 111.425781 234.464844 C 111.144531 235.132812 111.011719 235.984375 111.011719 237.023438 C 111.011719 238.703125 111.339844 240.15625 112.011719 241.371094 C 112.679688 242.589844 113.558594 243.195312 114.648438 243.195312 C 115.460938 243.195312 116.140625 242.859375 116.664062 242.1875 C 117.191406 241.515625 117.460938 240.363281 117.460938 238.722656 C 117.460938 236.675781 117.019531 235.066406 116.140625 233.882812 C 115.539062 233.078125 114.777344 232.675781 113.855469 232.675781 Z M 124.867188 234.304688 C 126.21875 232.675781 127.503906 231.855469 128.738281 231.855469 C 129.363281 231.855469 129.90625 232.011719 130.359375 232.332031 C 130.816406 232.644531 131.171875 233.167969 131.441406 233.882812 C 131.625 234.386719 131.722656 235.164062 131.722656 236.203125 L 131.722656 241.128906 C 131.722656 241.863281 131.777344 242.355469 131.894531 242.617188 C 131.992188 242.824219 132.136719 242.992188 132.34375 243.109375 C 132.550781 243.230469 132.929688 243.285156 133.484375 243.285156 L 133.484375 243.738281 L 127.773438 243.738281 L 127.773438 243.285156 L 128.015625 243.285156 C 128.550781 243.285156 128.925781 243.199219 129.144531 243.039062 C 129.359375 242.875 129.503906 242.636719 129.589844 242.316406 C 129.621094 242.1875 129.644531 241.796875 129.644531 241.128906 L 129.644531 236.402344 C 129.644531 235.355469 129.503906 234.59375 129.230469 234.117188 C 128.960938 233.644531 128.496094 233.40625 127.851562 233.40625 C 126.851562 233.40625 125.859375 233.957031 124.867188 235.046875 L 124.867188 241.128906 C 124.867188 241.914062 124.914062 242.394531 125.007812 242.578125 C 125.121094 242.824219 125.28125 243 125.488281 243.117188 C 125.695312 243.230469 126.109375 243.285156 126.742188 243.285156 L 126.742188 243.738281 L 121.039062 243.738281 L 121.039062 243.285156 L 121.289062 243.285156 C 121.878906 243.285156 122.277344 243.132812 122.476562 242.835938 C 122.683594 242.539062 122.789062 241.96875 122.789062 241.128906 L 122.789062 236.84375 C 122.789062 235.460938 122.757812 234.617188 122.695312 234.316406 C 122.628906 234.011719 122.535156 233.804688 122.40625 233.699219 C 122.277344 233.585938 122.097656 233.535156 121.882812 233.535156 C 121.644531 233.535156 121.363281 233.597656 121.039062 233.722656 L 120.847656 233.269531 L 124.324219 231.855469 L 124.867188 231.855469 Z M 21.789062 220.746094 "/>
<path fill-rule="nonzero" fill="rgb(0%, 0%, 0%)" fill-opacity="1" d="M 271.761719 235.132812 C 272.816406 235.355469 273.605469 235.714844 274.125 236.207031 C 274.847656 236.894531 275.210938 237.734375 275.210938 238.726562 C 275.210938 239.484375 274.96875 240.203125 274.496094 240.894531 C 274.019531 241.582031 273.363281 242.085938 272.53125 242.40625 C 271.695312 242.722656 270.425781 242.882812 268.714844 242.882812 L 261.550781 242.882812 L 261.550781 242.46875 L 262.121094 242.46875 C 262.753906 242.46875 263.210938 242.265625 263.488281 241.863281 C 263.660156 241.597656 263.746094 241.042969 263.746094 240.195312 L 263.746094 230.382812 C 263.746094 229.445312 263.636719 228.851562 263.417969 228.601562 C 263.128906 228.273438 262.699219 228.109375 262.121094 228.109375 L 261.550781 228.109375 L 261.550781 227.695312 L 268.113281 227.695312 C 269.335938 227.695312 270.316406 227.785156 271.058594 227.964844 C 272.175781 228.234375 273.035156 228.710938 273.621094 229.394531 C 274.210938 230.074219 274.507812 230.859375 274.507812 231.75 C 274.507812 232.511719 274.277344 233.195312 273.8125 233.792969 C 273.347656 234.394531 272.664062 234.839844 271.761719 235.132812 M 265.894531 234.527344 C 266.167969 234.578125 266.488281 234.617188 266.839844 234.644531 C 267.195312 234.671875 267.585938 234.683594 268.011719 234.683594 C 269.101562 234.683594 269.921875 234.566406 270.46875 234.332031 C 271.019531 234.097656 271.4375 233.738281 271.730469 233.25 C 272.019531 232.765625 272.164062 232.238281 272.164062 231.660156 C 272.164062 230.769531 271.800781 230.015625 271.078125 229.386719 C 270.355469 228.761719 269.296875 228.445312 267.910156 228.445312 C 267.164062 228.445312 266.492188 228.53125 265.894531 228.691406 L 265.894531 234.527344 M 265.894531 241.785156 C 266.761719 241.984375 267.613281 242.085938 268.457031 242.085938 C 269.808594 242.085938 270.839844 241.785156 271.550781 241.171875 C 272.261719 240.5625 272.613281 239.8125 272.613281 238.917969 C 272.613281 238.328125 272.449219 237.757812 272.132812 237.214844 C 271.8125 236.671875 271.285156 236.242188 270.5625 235.925781 C 269.84375 235.613281 268.945312 235.457031 267.875 235.457031 C 267.410156 235.457031 267.019531 235.460938 266.691406 235.480469 C 266.359375 235.496094 266.097656 235.519531 265.894531 235.558594 Z M 279.792969 226.957031 C 280.105469 226.957031 280.375 227.070312 280.59375 227.289062 C 280.8125 227.507812 280.921875 227.773438 280.921875 228.089844 C 280.921875 228.402344 280.8125 228.671875 280.59375 228.894531 C 280.375 229.117188 280.105469 229.230469 279.792969 229.230469 C 279.476562 229.230469 279.210938 229.117188 278.984375 228.894531 C 278.761719 228.671875 278.648438 228.402344 278.648438 228.089844 C 278.648438 227.773438 278.761719 227.507812 278.980469 227.289062 C 279.199219 227.070312 279.472656 226.957031 279.792969 226.957031 M 280.722656 232.320312 L 280.722656 240.5625 C 280.722656 241.207031 280.765625 241.632812 280.859375 241.84375 C 280.957031 242.058594 281.089844 242.214844 281.273438 242.320312 C 281.460938 242.429688 281.789062 242.476562 282.277344 242.476562 L 282.277344 242.882812 L 277.292969 242.882812 L 277.292969 242.476562 C 277.792969 242.476562 278.128906 242.429688 278.300781 242.332031 C 278.476562 242.238281 278.609375 242.074219 278.710938 241.851562 C 278.8125 241.628906 278.863281 241.195312 278.863281 240.5625 L 278.863281 236.609375 C 278.863281 235.496094 278.828125 234.78125 278.761719 234.449219 C 278.710938 234.207031 278.625 234.046875 278.515625 233.949219 C 278.402344 233.855469 278.25 233.8125 278.054688 233.8125 C 277.847656 233.8125 277.589844 233.867188 277.292969 233.980469 L 277.136719 233.574219 L 280.226562 232.320312 Z M 286.554688 232.320312 L 286.554688 234.628906 C 287.410156 233.089844 288.296875 232.320312 289.199219 232.320312 C 289.605469 232.320312 289.949219 232.445312 290.21875 232.695312 C 290.484375 232.949219 290.621094 233.234375 290.621094 233.5625 C 290.621094 233.855469 290.523438 234.101562 290.328125 234.304688 C 290.132812 234.503906 289.902344 234.605469 289.636719 234.605469 C 289.371094 234.605469 289.082031 234.476562 288.753906 234.21875 C 288.429688 233.960938 288.191406 233.832031 288.035156 233.832031 C 287.898438 233.832031 287.753906 233.90625 287.597656 234.058594 C 287.261719 234.363281 286.914062 234.867188 286.554688 235.570312 L 286.554688 240.484375 C 286.554688 241.050781 286.628906 241.480469 286.769531 241.773438 C 286.863281 241.972656 287.035156 242.140625 287.285156 242.277344 C 287.53125 242.410156 287.882812 242.476562 288.347656 242.476562 L 288.347656 242.882812 L 283.09375 242.882812 L 283.09375 242.476562 C 283.617188 242.476562 284.007812 242.394531 284.257812 242.230469 C 284.445312 242.113281 284.578125 241.925781 284.652344 241.660156 C 284.691406 241.53125 284.707031 241.171875 284.707031 240.574219 L 284.707031 236.597656 C 284.707031 235.40625 284.683594 234.695312 284.636719 234.464844 C 284.585938 234.234375 284.496094 234.074219 284.367188 233.96875 C 284.238281 233.859375 284.074219 233.8125 283.878906 233.8125 C 283.648438 233.8125 283.386719 233.867188 283.09375 233.980469 L 282.984375 233.574219 L 286.085938 232.320312 Z M 294.171875 229.253906 L 294.171875 232.625 L 296.566406 232.625 L 296.566406 233.40625 L 294.171875 233.40625 L 294.171875 240.058594 C 294.171875 240.726562 294.265625 241.171875 294.457031 241.402344 C 294.644531 241.632812 294.890625 241.75 295.1875 241.75 C 295.4375 241.75 295.675781 241.671875 295.90625 241.519531 C 296.136719 241.371094 296.316406 241.140625 296.445312 240.84375 L 296.878906 240.84375 C 296.617188 241.578125 296.246094 242.125 295.773438 242.496094 C 295.296875 242.863281 294.804688 243.050781 294.292969 243.050781 C 293.953125 243.050781 293.617188 242.953125 293.285156 242.765625 C 292.957031 242.574219 292.714844 242.300781 292.558594 241.945312 C 292.402344 241.59375 292.324219 241.042969 292.324219 240.304688 L 292.324219 233.40625 L 290.699219 233.40625 L 290.699219 233.039062 C 291.109375 232.875 291.527344 232.597656 291.957031 232.203125 C 292.390625 231.8125 292.769531 231.347656 293.105469 230.808594 C 293.28125 230.523438 293.515625 230.007812 293.824219 229.253906 Z M 300.574219 226.957031 L 300.574219 234.460938 C 301.40625 233.546875 302.058594 232.964844 302.546875 232.707031 C 303.035156 232.449219 303.515625 232.320312 304.003906 232.320312 C 304.585938 232.320312 305.082031 232.484375 305.503906 232.804688 C 305.921875 233.121094 306.230469 233.625 306.433594 234.316406 C 306.574219 234.789062 306.644531 235.664062 306.644531 236.933594 L 306.644531 240.5625 C 306.644531 241.210938 306.695312 241.65625 306.800781 241.894531 C 306.875 242.074219 307.003906 242.214844 307.183594 242.320312 C 307.363281 242.429688 307.691406 242.476562 308.167969 242.476562 L 308.167969 242.882812 L 303.128906 242.882812 L 303.128906 242.476562 L 303.363281 242.476562 C 303.839844 242.476562 304.175781 242.40625 304.359375 242.261719 C 304.546875 242.113281 304.679688 241.902344 304.753906 241.617188 C 304.773438 241.5 304.785156 241.144531 304.785156 240.5625 L 304.785156 236.933594 C 304.785156 235.816406 304.730469 235.082031 304.613281 234.730469 C 304.496094 234.375 304.308594 234.113281 304.058594 233.941406 C 303.804688 233.765625 303.5 233.675781 303.140625 233.675781 C 302.777344 233.675781 302.394531 233.773438 301.996094 233.96875 C 301.601562 234.164062 301.128906 234.554688 300.574219 235.144531 L 300.574219 240.5625 C 300.574219 241.261719 300.613281 241.699219 300.691406 241.875 C 300.773438 242.046875 300.917969 242.1875 301.128906 242.304688 C 301.34375 242.421875 301.710938 242.476562 302.234375 242.476562 L 302.234375 242.882812 L 297.148438 242.882812 L 297.148438 242.476562 C 297.601562 242.476562 297.960938 242.40625 298.222656 242.265625 C 298.375 242.191406 298.492188 242.046875 298.582031 241.839844 C 298.671875 241.632812 298.714844 241.207031 298.714844 240.5625 L 298.714844 231.28125 C 298.714844 230.109375 298.6875 229.386719 298.632812 229.117188 C 298.578125 228.851562 298.492188 228.664062 298.375 228.570312 C 298.257812 228.476562 298.105469 228.425781 297.910156 228.425781 C 297.753906 228.425781 297.5 228.484375 297.148438 228.601562 L 296.992188 228.210938 L 300.058594 226.957031 Z M 261.167969 222.445312 "/>
<path fill="none" stroke-width="1" stroke-linecap="butt" stroke-linejoin="miter" stroke="rgb(0%, 0%, 0%)" stroke-opacity="1" stroke-miterlimit="4" d="M 310.892208 -18 C 310.892208 -13.029256 306.864379 -8.998702 301.893635 -8.998702 C 296.922891 -8.998702 292.892336 -13.029256 292.892336 -18 C 292.892336 -22.970744 296.922891 -27.001298 301.893635 -27.001298 C 306.864379 -27.001298 310.892208 -22.970744 310.892208 -18 Z M 310.892208 -18 " transform="matrix(1.433387, 0, 0, 1.433387, 10.320386, 261.800965)"/>
<path fill="none" stroke-width="1" stroke-linecap="butt" stroke-linejoin="miter" stroke="rgb(0%, 0%, 0%)" stroke-opacity="1" stroke-miterlimit="4" d="M 314.892785 -18 C 314.892785 -10.819128 309.071782 -5.00085 301.893635 -5.00085 C 294.712762 -5.00085 288.891759 -10.819128 288.891759 -18 C 288.891759 -25.180872 294.712762 -30.99915 301.893635 -30.99915 C 309.071782 -30.99915 314.892785 -25.180872 314.892785 -18 Z M 314.892785 -18 " transform="matrix(1.433387, 0, 0, 1.433387, 10.320386, 261.800965)"/>
</svg>
