<?xml version="1.0" encoding="UTF-8"?>
<svg xmlns="http://www.w3.org/2000/svg" xmlns:xlink="http://www.w3.org/1999/xlink" width="2125" height="708" viewBox="0 0 2125 708">
<path fill-rule="nonzero" fill="rgb(100%, 100%, 100%)" fill-opacity="1" d="M 0 420.726562 L 0 287.273438 L 2124.996094 287.273438 L 2124.996094 420.726562 Z M 0 420.726562 "/>
<path fill="none" stroke-width="1" stroke-linecap="butt" stroke-linejoin="miter" stroke="rgb(60%, 60%, 60%)" stroke-opacity="1" stroke-miterlimit="4" d="M 358.024925 -14.938879 C 346.554942 -14.140775 333.907718 -13.395779 322.279884 -13.000415 C 312.999155 -12.684714 303.206519 -12.758476 293.589435 -13.062375 " transform="matrix(2.647876, 0, 0, 2.647876, 19.064707, 401.661768)"/>
<path fill-rule="nonzero" fill="rgb(60%, 60%, 60%)" fill-opacity="1" stroke-width="1" stroke-linecap="butt" stroke-linejoin="miter" stroke="rgb(60%, 60%, 60%)" stroke-opacity="1" stroke-miterlimit="4" d="M 293.455189 -10.265322 L 285.567086 -13.369225 L 293.669098 -15.860903 Z M 293.455189 -10.265322 " transform="matrix(2.647876, 0, 0, 2.647876, 19.064707, 401.661768)"/>
<path fill="none" stroke-width="1.1" stroke-linecap="butt" stroke-linejoin="miter" stroke="rgb(0%, 0%, 0%)" stroke-opacity="1" stroke-miterlimit="4" d="M 432.757584 -15.999576 C 465.41495 -15.999576 473.578923 -15.999576 506.236289 -15.999576 " transform="matrix(2.647876, 0, 0, 2.647876, 19.064707, 401.661768)"/>
<path fill="none" stroke-width="1.1" stroke-linecap="butt" stroke-linejoin="miter" stroke="rgb(95.686275%, 50.588235%, 32.54902%)" stroke-opacity="1" stroke-miterlimit="4" d="M 432.757584 -18 C 465.41495 -18 473.578923 -18 506.236289 -18 " transform="matrix(2.647876, 0, 0, 2.647876, 19.064707, 401.661768)"/>
<path fill="none" stroke-width="1.1" stroke-linecap="butt" stroke-linejoin="miter" stroke="rgb(0%, 0%, 0%)" stroke-opacity="1" stroke-miterlimit="4" d="M 432.757584 -20.000424 C 465.41495 -20.000424 473.578923 -20.000424 506.236289 -20.000424 " transform="matrix(2.647876, 0, 0, 2.647876, 19.064707, 401.661768)"/>
<path fill="none" stroke-width="1" stroke-linecap="butt" stroke-linejoin="miter" stroke="rgb(60%, 60%, 60%)" stroke-opacity="1" stroke-miterlimit="4" d="M 433.490778 -14.938879 C 444.962236 -14.140775 457.607985 -13.395779 469.237295 -13.000415 C 478.582934 -12.681763 488.441956 -12.749624 498.129851 -13.047623 " transform="matrix(2.647876, 0, 0, 2.647876, 19.064707, 401.661768)"/>
<path fill-rule="nonzero" fill="rgb(60%, 60%, 60%)" fill-opacity="1" stroke-width="1" stroke-linecap="butt" stroke-linejoin="miter" stroke="rgb(60%, 60%, 60%)" stroke-opacity="1" stroke-miterlimit="4" d="M 498.113623 -15.849102 L 506.212685 -13.348571 L 498.323107 -10.25352 Z M 498.113623 -15.849102 " transform="matrix(2.647876, 0, 0, 2.647876, 19.064707, 401.661768)"/>
<path fill="none" stroke-width="1.1" stroke-linecap="butt" stroke-linejoin="miter" stroke="rgb(0%, 0%, 0%)" stroke-opacity="1" stroke-miterlimit="4" d="M 98.492025 -15.999576 C 131.155292 -15.999576 139.32074 -15.999576 171.984007 -15.999576 " transform="matrix(2.647876, 0, 0, 2.647876, 19.064707, 401.661768)"/>
<path fill="none" stroke-width="1.1" stroke-linecap="butt" stroke-linejoin="miter" stroke="rgb(95.686275%, 50.588235%, 32.54902%)" stroke-opacity="1" stroke-miterlimit="4" d="M 98.492025 -18 C 131.155292 -18 139.32074 -18 171.984007 -18 " transform="matrix(2.647876, 0, 0, 2.647876, 19.064707, 401.661768)"/>
<path fill="none" stroke-width="1.1" stroke-linecap="butt" stroke-linejoin="miter" stroke="rgb(0%, 0%, 0%)" stroke-opacity="1" stroke-miterlimit="4" d="M 98.492025 -20.000424 C 131.155292 -20.000424 139.32074 -20.000424 171.984007 -20.000424 " transform="matrix(2.647876, 0, 0, 2.647876, 19.064707, 401.661768)"/>
<path fill="none" stroke-width="1" stroke-linecap="butt" stroke-linejoin="miter" stroke="rgb(60%, 60%, 60%)" stroke-opacity="1" stroke-miterlimit="4" d="M 99.197189 -14.601049 C 110.926815 -13.935716 123.391109 -13.338245 134.983537 -13.000415 C 144.265741 -12.728971 154.058378 -12.826337 163.676936 -13.142038 " transform="matrix(2.647876, 0, 0, 2.647876, 19.064707, 401.661768)"/>
<path fill-rule="nonzero" fill="rgb(60%, 60%, 60%)" fill-opacity="1" stroke-width="1" stroke-linecap="butt" stroke-linejoin="miter" stroke="rgb(60%, 60%, 60%)" stroke-opacity="1" stroke-miterlimit="4" d="M 163.594323 -15.940566 L 171.697811 -13.456264 L 163.814134 -10.344985 Z M 163.594323 -15.940566 " transform="matrix(2.647876, 0, 0, 2.647876, 19.064707, 401.661768)"/>
<path fill="none" stroke-width="1.1" stroke-linecap="butt" stroke-linejoin="miter" stroke="rgb(0%, 0%, 0%)" stroke-opacity="1" stroke-miterlimit="4" d="M 285.279414 -15.999576 C 312.196625 -15.999576 322.474615 -15.999576 343.541029 -15.999576 " transform="matrix(2.647876, 0, 0, 2.647876, 19.064707, 401.661768)"/>
<path fill="none" stroke-width="1.1" stroke-linecap="butt" stroke-linejoin="miter" stroke="rgb(95.686275%, 50.588235%, 32.54902%)" stroke-opacity="1" stroke-miterlimit="4" d="M 285.279414 -18 C 312.196625 -18 322.474615 -18 343.541029 -18 " transform="matrix(2.647876, 0, 0, 2.647876, 19.064707, 401.661768)"/>
<path fill="none" stroke-width="1.1" stroke-linecap="butt" stroke-linejoin="miter" stroke="rgb(0%, 0%, 0%)" stroke-opacity="1" stroke-miterlimit="4" d="M 285.279414 -20.000424 C 312.196625 -20.000424 322.474615 -20.000424 343.541029 -20.000424 " transform="matrix(2.647876, 0, 0, 2.647876, 19.064707, 401.661768)"/>
<path fill-rule="nonzero" fill="rgb(0%, 0%, 0%)" fill-opacity="1" stroke-width="1.1" stroke-linecap="butt" stroke-linejoin="miter" stroke="rgb(0%, 0%, 0%)" stroke-opacity="1" stroke-miterlimit="4" d="M 343.757889 -23.250376 L 358.758119 -18 L 343.757889 -12.749624 Z M 343.757889 -23.250376 " transform="matrix(2.647876, 0, 0, 2.647876, 19.064707, 401.661768)"/>
<path fill="none" stroke-width="1.1" stroke-linecap="butt" stroke-linejoin="miter" stroke="rgb(0%, 0%, 0%)" stroke-opacity="1" stroke-miterlimit="4" d="M 622.170899 -15.999576 C 649.08811 -15.999576 659.3661 -15.999576 680.432513 -15.999576 " transform="matrix(2.647876, 0, 0, 2.647876, 19.064707, 401.661768)"/>
<path fill="none" stroke-width="1.1" stroke-linecap="butt" stroke-linejoin="miter" stroke="rgb(95.686275%, 50.588235%, 32.54902%)" stroke-opacity="1" stroke-miterlimit="4" d="M 622.170899 -18 C 649.08811 -18 659.3661 -18 680.432513 -18 " transform="matrix(2.647876, 0, 0, 2.647876, 19.064707, 401.661768)"/>
<path fill="none" stroke-width="1.1" stroke-linecap="butt" stroke-linejoin="miter" stroke="rgb(0%, 0%, 0%)" stroke-opacity="1" stroke-miterlimit="4" d="M 622.170899 -20.000424 C 649.08811 -20.000424 659.3661 -20.000424 680.432513 -20.000424 " transform="matrix(2.647876, 0, 0, 2.647876, 19.064707, 401.661768)"/>
<path fill-rule="nonzero" fill="rgb(0%, 0%, 0%)" fill-opacity="1" stroke-width="1.1" stroke-linecap="butt" stroke-linejoin="miter" stroke="rgb(0%, 0%, 0%)" stroke-opacity="1" stroke-miterlimit="4" d="M 680.649373 -23.250376 L 695.649604 -18 L 680.649373 -12.749624 Z M 680.649373 -23.250376 " transform="matrix(2.647876, 0, 0, 2.647876, 19.064707, 401.661768)"/>
<path fill-rule="nonzero" fill="rgb(51.372549%, 82.745098%, 83.137255%)" fill-opacity="1" stroke-width="1" stroke-linecap="butt" stroke-linejoin="miter" stroke="rgb(0%, 0%, 0%)" stroke-opacity="1" stroke-miterlimit="4" d="M 433.214908 -35.999391 L 358.300795 -35.999391 L 358.300795 -0.000608663 L 433.214908 -0.000608663 Z M 433.214908 -35.999391 " transform="matrix(2.647876, 0, 0, 2.647876, 19.064707, 401.661768)"/>
<path fill-rule="nonzero" fill="rgb(0%, 0%, 0%)" fill-opacity="1" d="M 1003.640625 367.4375 L 1003.640625 368.292969 L 990.121094 368.292969 L 990.121094 367.4375 L 991.238281 367.4375 C 992.542969 367.4375 993.484375 367.054688 994.074219 366.289062 C 994.445312 365.800781 994.632812 364.601562 994.632812 362.710938 L 994.632812 342.324219 C 994.632812 340.730469 994.527344 339.664062 994.332031 339.15625 C 994.175781 338.773438 993.855469 338.433594 993.378906 338.152344 C 992.695312 337.78125 991.984375 337.59375 991.238281 337.59375 L 990.121094 337.59375 L 990.121094 336.738281 L 1003.640625 336.738281 L 1003.640625 337.59375 L 1002.503906 337.59375 C 1001.210938 337.59375 1000.269531 337.976562 999.6875 338.734375 C 999.296875 339.238281 999.097656 340.429688 999.097656 342.324219 L 999.097656 362.710938 C 999.097656 364.3125 999.203125 365.355469 999.398438 365.875 C 999.554688 366.265625 999.886719 366.597656 1000.382812 366.878906 C 1001.042969 367.25 1001.757812 367.4375 1002.503906 367.4375 Z M 1012.503906 350.867188 C 1014.996094 347.855469 1017.375 346.347656 1019.652344 346.347656 C 1020.808594 346.347656 1021.8125 346.636719 1022.652344 347.226562 C 1023.488281 347.804688 1024.152344 348.765625 1024.648438 350.089844 C 1024.988281 351.019531 1025.164062 352.457031 1025.164062 354.371094 L 1025.164062 363.472656 C 1025.164062 364.828125 1025.269531 365.738281 1025.484375 366.226562 C 1025.660156 366.609375 1025.929688 366.917969 1026.3125 367.136719 C 1026.695312 367.351562 1027.398438 367.457031 1028.421875 367.457031 L 1028.421875 368.292969 L 1017.871094 368.292969 L 1017.871094 367.457031 L 1018.316406 367.457031 C 1019.308594 367.457031 1020.003906 367.300781 1020.40625 367 C 1020.800781 366.703125 1021.070312 366.257812 1021.222656 365.667969 C 1021.285156 365.429688 1021.328125 364.707031 1021.328125 363.472656 L 1021.328125 354.746094 C 1021.328125 352.808594 1021.070312 351.402344 1020.5625 350.523438 C 1020.066406 349.644531 1019.207031 349.210938 1018.015625 349.210938 C 1016.164062 349.210938 1014.335938 350.226562 1012.503906 352.242188 L 1012.503906 363.472656 C 1012.503906 364.921875 1012.585938 365.8125 1012.761719 366.152344 C 1012.96875 366.609375 1013.269531 366.929688 1013.652344 367.144531 C 1014.035156 367.351562 1014.800781 367.457031 1015.96875 367.457031 L 1015.96875 368.292969 L 1005.429688 368.292969 L 1005.429688 367.457031 L 1005.894531 367.457031 C 1006.980469 367.457031 1007.714844 367.175781 1008.085938 366.628906 C 1008.46875 366.082031 1008.667969 365.027344 1008.667969 363.472656 L 1008.667969 355.5625 C 1008.667969 353.007812 1008.605469 351.445312 1008.492188 350.886719 C 1008.367188 350.328125 1008.191406 349.945312 1007.953125 349.75 C 1007.714844 349.542969 1007.382812 349.449219 1006.992188 349.449219 C 1006.546875 349.449219 1006.03125 349.5625 1005.429688 349.789062 L 1005.078125 348.953125 L 1011.5 346.347656 L 1012.503906 346.347656 Z M 1038.457031 348.652344 L 1038.457031 362.667969 C 1038.457031 364.652344 1038.664062 365.90625 1039.097656 366.433594 C 1039.675781 367.117188 1040.441406 367.457031 1041.402344 367.457031 L 1043.335938 367.457031 L 1043.335938 368.292969 L 1030.605469 368.292969 L 1030.605469 367.457031 L 1031.566406 367.457031 C 1032.175781 367.457031 1032.746094 367.300781 1033.261719 366.992188 C 1033.769531 366.679688 1034.121094 366.265625 1034.316406 365.730469 C 1034.515625 365.210938 1034.609375 364.1875 1034.609375 362.667969 L 1034.609375 348.652344 L 1030.46875 348.652344 L 1030.46875 346.976562 L 1034.609375 346.976562 L 1034.609375 345.582031 C 1034.609375 343.460938 1034.949219 341.660156 1035.632812 340.179688 C 1036.316406 338.710938 1037.359375 337.511719 1038.765625 336.613281 C 1040.171875 335.703125 1041.746094 335.246094 1043.503906 335.246094 C 1045.128906 335.246094 1046.625 335.773438 1047.992188 336.832031 C 1048.890625 337.535156 1049.335938 338.308594 1049.335938 339.179688 C 1049.335938 339.644531 1049.140625 340.089844 1048.738281 340.492188 C 1048.332031 340.90625 1047.898438 341.113281 1047.433594 341.113281 C 1047.070312 341.113281 1046.699219 340.988281 1046.304688 340.730469 C 1045.914062 340.472656 1045.425781 339.921875 1044.847656 339.074219 C 1044.277344 338.226562 1043.75 337.65625 1043.265625 337.367188 C 1042.789062 337.066406 1042.25 336.921875 1041.660156 336.921875 C 1040.949219 336.921875 1040.339844 337.109375 1039.839844 337.492188 C 1039.34375 337.875 1038.992188 338.464844 1038.777344 339.261719 C 1038.558594 340.058594 1038.457031 342.125 1038.457031 345.4375 L 1038.457031 346.976562 L 1043.9375 346.976562 L 1043.9375 348.652344 Z M 1049.574219 355.003906 C 1049.5625 358.167969 1050.328125 360.652344 1051.882812 362.449219 C 1053.433594 364.25 1055.253906 365.148438 1057.351562 365.148438 C 1058.75 365.148438 1059.960938 364.765625 1060.992188 364 C 1062.027344 363.238281 1062.898438 361.921875 1063.589844 360.0625 L 1064.3125 360.515625 C 1063.984375 362.648438 1063.042969 364.582031 1061.46875 366.328125 C 1059.90625 368.078125 1057.941406 368.945312 1055.585938 368.945312 C 1053.027344 368.945312 1050.835938 367.953125 1049.003906 365.957031 C 1047.183594 363.960938 1046.273438 361.28125 1046.273438 357.910156 C 1046.273438 354.269531 1047.207031 351.425781 1049.078125 349.386719 C 1050.949219 347.347656 1053.296875 346.324219 1056.121094 346.324219 C 1058.511719 346.324219 1060.476562 347.113281 1062.007812 348.683594 C 1063.539062 350.265625 1064.3125 352.367188 1064.3125 355.003906 L 1049.574219 355.003906 M 1049.574219 353.660156 L 1059.441406 353.660156 C 1059.371094 352.292969 1059.203125 351.332031 1058.957031 350.773438 C 1058.574219 349.902344 1057.992188 349.222656 1057.230469 348.726562 C 1056.453125 348.226562 1055.65625 347.980469 1054.820312 347.980469 C 1053.527344 347.980469 1052.378906 348.476562 1051.363281 349.480469 C 1050.339844 350.484375 1049.75 351.871094 1049.574219 353.660156 Z M 1085.25 360.195312 C 1084.679688 363.007812 1083.550781 365.160156 1081.875 366.679688 C 1080.199219 368.191406 1078.347656 368.945312 1076.3125 368.945312 C 1073.890625 368.945312 1071.78125 367.933594 1069.980469 365.894531 C 1068.183594 363.867188 1067.292969 361.117188 1067.292969 357.660156 C 1067.292969 354.308594 1068.285156 351.578125 1070.28125 349.492188 C 1072.269531 347.402344 1074.667969 346.347656 1077.460938 346.347656 C 1079.550781 346.347656 1081.277344 346.90625 1082.621094 348.011719 C 1083.976562 349.117188 1084.648438 350.277344 1084.648438 351.464844 C 1084.648438 352.054688 1084.460938 352.53125 1084.078125 352.902344 C 1083.695312 353.265625 1083.167969 353.441406 1082.488281 353.441406 C 1081.566406 353.441406 1080.882812 353.152344 1080.40625 352.5625 C 1080.148438 352.242188 1079.972656 351.621094 1079.890625 350.699219 C 1079.808594 349.789062 1079.488281 349.085938 1078.949219 348.601562 C 1078.402344 348.144531 1077.644531 347.90625 1076.683594 347.90625 C 1075.132812 347.90625 1073.890625 348.488281 1072.941406 349.636719 C 1071.6875 351.15625 1071.058594 353.164062 1071.058594 355.65625 C 1071.058594 358.199219 1071.679688 360.445312 1072.929688 362.398438 C 1074.179688 364.34375 1075.867188 365.316406 1077.988281 365.316406 C 1079.507812 365.316406 1080.882812 364.796875 1082.082031 363.753906 C 1082.941406 363.039062 1083.769531 361.746094 1084.578125 359.875 Z M 1094.496094 339.972656 L 1094.496094 346.976562 L 1099.480469 346.976562 L 1099.480469 348.601562 L 1094.496094 348.601562 L 1094.496094 362.429688 C 1094.496094 363.816406 1094.703125 364.746094 1095.09375 365.222656 C 1095.488281 365.707031 1095.996094 365.945312 1096.617188 365.945312 C 1097.132812 365.945312 1097.628906 365.78125 1098.105469 365.46875 C 1098.589844 365.148438 1098.964844 364.683594 1099.222656 364.054688 L 1100.132812 364.054688 C 1099.585938 365.585938 1098.820312 366.722656 1097.824219 367.488281 C 1096.832031 368.261719 1095.808594 368.644531 1094.753906 368.644531 C 1094.039062 368.644531 1093.347656 368.449219 1092.664062 368.046875 C 1091.980469 367.652344 1091.476562 367.085938 1091.144531 366.351562 C 1090.824219 365.617188 1090.65625 364.476562 1090.65625 362.9375 L 1090.65625 348.601562 L 1087.285156 348.601562 L 1087.285156 347.835938 C 1088.132812 347.492188 1089.011719 346.914062 1089.902344 346.109375 C 1090.792969 345.289062 1091.589844 344.320312 1092.292969 343.203125 C 1092.644531 342.621094 1093.140625 341.535156 1093.78125 339.972656 Z M 1105.128906 355.003906 C 1105.117188 358.167969 1105.882812 360.652344 1107.433594 362.449219 C 1108.984375 364.25 1110.808594 365.148438 1112.90625 365.148438 C 1114.304688 365.148438 1115.511719 364.765625 1116.546875 364 C 1117.582031 363.238281 1118.449219 361.921875 1119.144531 360.0625 L 1119.867188 360.515625 C 1119.535156 362.648438 1118.59375 364.582031 1117.023438 366.328125 C 1115.460938 368.078125 1113.496094 368.945312 1111.136719 368.945312 C 1108.582031 368.945312 1106.390625 367.953125 1104.558594 365.957031 C 1102.738281 363.960938 1101.828125 361.28125 1101.828125 357.910156 C 1101.828125 354.269531 1102.757812 351.425781 1104.632812 349.386719 C 1106.503906 347.347656 1108.851562 346.324219 1111.675781 346.324219 C 1114.066406 346.324219 1116.03125 347.113281 1117.5625 348.683594 C 1119.089844 350.265625 1119.867188 352.367188 1119.867188 355.003906 L 1105.128906 355.003906 M 1105.128906 353.660156 L 1114.996094 353.660156 C 1114.921875 352.292969 1114.757812 351.332031 1114.507812 350.773438 C 1114.125 349.902344 1113.546875 349.222656 1112.78125 348.726562 C 1112.007812 348.226562 1111.210938 347.980469 1110.371094 347.980469 C 1109.078125 347.980469 1107.929688 348.476562 1106.917969 349.480469 C 1105.894531 350.484375 1105.304688 351.871094 1105.128906 353.660156 Z M 1137.761719 365.894531 C 1136.714844 366.980469 1135.703125 367.765625 1134.710938 368.230469 C 1133.71875 368.707031 1132.640625 368.945312 1131.492188 368.945312 C 1129.175781 368.945312 1127.140625 367.972656 1125.402344 366.027344 C 1123.664062 364.074219 1122.792969 361.582031 1122.792969 358.519531 C 1122.792969 355.46875 1123.757812 352.664062 1125.679688 350.132812 C 1127.605469 347.597656 1130.078125 346.324219 1133.105469 346.324219 C 1134.980469 346.324219 1136.53125 346.925781 1137.761719 348.113281 L 1137.761719 344.183594 C 1137.761719 341.753906 1137.699219 340.253906 1137.585938 339.695312 C 1137.472656 339.136719 1137.285156 338.753906 1137.039062 338.546875 C 1136.789062 338.351562 1136.480469 338.246094 1136.105469 338.246094 C 1135.703125 338.246094 1135.164062 338.371094 1134.503906 338.621094 L 1134.203125 337.800781 L 1140.554688 335.195312 L 1141.597656 335.195312 L 1141.597656 359.84375 C 1141.597656 362.347656 1141.660156 363.867188 1141.773438 364.414062 C 1141.886719 364.972656 1142.074219 365.355469 1142.332031 365.574219 C 1142.589844 365.792969 1142.882812 365.894531 1143.222656 365.894531 C 1143.648438 365.894531 1144.207031 365.769531 1144.898438 365.5 L 1145.15625 366.320312 L 1138.828125 368.945312 L 1137.761719 368.945312 L 1137.761719 365.894531 M 1137.761719 364.269531 L 1137.761719 353.285156 C 1137.667969 352.230469 1137.390625 351.269531 1136.921875 350.402344 C 1136.457031 349.53125 1135.835938 348.871094 1135.070312 348.433594 C 1134.304688 347.992188 1133.550781 347.773438 1132.828125 347.773438 C 1131.460938 347.773438 1130.242188 348.382812 1129.175781 349.605469 C 1127.757812 351.21875 1127.054688 353.574219 1127.054688 356.679688 C 1127.054688 359.8125 1127.738281 362.210938 1129.105469 363.886719 C 1130.46875 365.554688 1131.988281 366.390625 1133.664062 366.390625 C 1135.070312 366.390625 1136.4375 365.675781 1137.761719 364.269531 Z M 988.933594 325.824219 "/>
<path fill-rule="nonzero" fill="rgb(51.372549%, 82.745098%, 83.137255%)" fill-opacity="1" stroke-width="1" stroke-linecap="butt" stroke-linejoin="miter" stroke="rgb(0%, 0%, 0%)" stroke-opacity="1" stroke-miterlimit="4" d="M 788.107259 -35.999391 L 695.19228 -35.999391 L 695.19228 -0.000608663 L 788.107259 -0.000608663 Z M 788.107259 -35.999391 " transform="matrix(2.647876, 0, 0, 2.647876, 19.064707, 401.661768)"/>
<path fill-rule="nonzero" fill="rgb(0%, 0%, 0%)" fill-opacity="1" d="M 1913.1875 368.292969 L 1904.765625 368.292969 L 1894.082031 353.542969 C 1893.285156 353.574219 1892.644531 353.585938 1892.148438 353.585938 C 1891.941406 353.585938 1891.734375 353.585938 1891.496094 353.574219 C 1891.257812 353.566406 1891.019531 353.554688 1890.773438 353.542969 L 1890.773438 362.710938 C 1890.773438 364.695312 1890.988281 365.925781 1891.421875 366.410156 C 1892.011719 367.09375 1892.902344 367.4375 1894.082031 367.4375 L 1895.3125 367.4375 L 1895.3125 368.292969 L 1881.792969 368.292969 L 1881.792969 367.4375 L 1882.984375 367.4375 C 1884.308594 367.4375 1885.269531 367 1885.839844 366.132812 C 1886.167969 365.648438 1886.335938 364.507812 1886.335938 362.710938 L 1886.335938 342.324219 C 1886.335938 340.335938 1886.105469 339.105469 1885.671875 338.621094 C 1885.074219 337.9375 1884.171875 337.59375 1882.984375 337.59375 L 1881.792969 337.59375 L 1881.792969 336.738281 L 1893.285156 336.738281 C 1896.636719 336.738281 1899.109375 336.984375 1900.703125 337.472656 C 1902.292969 337.957031 1903.640625 338.859375 1904.746094 340.171875 C 1905.863281 341.484375 1906.410156 343.046875 1906.410156 344.855469 C 1906.410156 346.800781 1905.78125 348.488281 1904.519531 349.902344 C 1903.257812 351.339844 1901.289062 352.34375 1898.644531 352.933594 L 1905.160156 361.984375 C 1906.648438 364.0625 1907.929688 365.449219 1908.996094 366.132812 C 1910.0625 366.816406 1911.46875 367.25 1913.1875 367.4375 L 1913.1875 368.292969 M 1890.773438 352.074219 C 1891.070312 352.074219 1891.320312 352.074219 1891.546875 352.085938 C 1891.753906 352.097656 1891.941406 352.097656 1892.074219 352.097656 C 1895.085938 352.097656 1897.359375 351.445312 1898.878906 350.140625 C 1900.410156 348.839844 1901.175781 347.183594 1901.175781 345.167969 C 1901.175781 343.191406 1900.554688 341.589844 1899.324219 340.355469 C 1898.09375 339.125 1896.460938 338.503906 1894.421875 338.503906 C 1893.523438 338.503906 1892.3125 338.652344 1890.773438 338.949219 Z M 1917.839844 355.003906 C 1917.828125 358.167969 1918.59375 360.652344 1920.148438 362.449219 C 1921.699219 364.25 1923.519531 365.148438 1925.617188 365.148438 C 1927.015625 365.148438 1928.226562 364.765625 1929.257812 364 C 1930.292969 363.238281 1931.164062 361.921875 1931.855469 360.0625 L 1932.578125 360.515625 C 1932.25 362.648438 1931.308594 364.582031 1929.734375 366.328125 C 1928.171875 368.078125 1926.207031 368.945312 1923.847656 368.945312 C 1921.292969 368.945312 1919.101562 367.953125 1917.269531 365.957031 C 1915.449219 363.960938 1914.539062 361.28125 1914.539062 357.910156 C 1914.539062 354.269531 1915.472656 351.425781 1917.34375 349.386719 C 1919.214844 347.347656 1921.5625 346.324219 1924.386719 346.324219 C 1926.777344 346.324219 1928.742188 347.113281 1930.273438 348.683594 C 1931.804688 350.265625 1932.578125 352.367188 1932.578125 355.003906 L 1917.839844 355.003906 M 1917.839844 353.660156 L 1927.707031 353.660156 C 1927.636719 352.292969 1927.46875 351.332031 1927.222656 350.773438 C 1926.839844 349.902344 1926.257812 349.222656 1925.492188 348.726562 C 1924.71875 348.226562 1923.921875 347.980469 1923.085938 347.980469 C 1921.792969 347.980469 1920.644531 348.476562 1919.628906 349.480469 C 1918.605469 350.484375 1918.015625 351.871094 1917.839844 353.660156 Z M 1953.515625 360.195312 C 1952.945312 363.007812 1951.816406 365.160156 1950.140625 366.679688 C 1948.464844 368.191406 1946.613281 368.945312 1944.578125 368.945312 C 1942.15625 368.945312 1940.046875 367.933594 1938.246094 365.894531 C 1936.449219 363.867188 1935.558594 361.117188 1935.558594 357.660156 C 1935.558594 354.308594 1936.550781 351.578125 1938.546875 349.492188 C 1940.53125 347.402344 1942.933594 346.347656 1945.726562 346.347656 C 1947.816406 346.347656 1949.542969 346.90625 1950.886719 348.011719 C 1952.242188 349.117188 1952.914062 350.277344 1952.914062 351.464844 C 1952.914062 352.054688 1952.726562 352.53125 1952.34375 352.902344 C 1951.960938 353.265625 1951.433594 353.441406 1950.753906 353.441406 C 1949.832031 353.441406 1949.148438 353.152344 1948.671875 352.5625 C 1948.414062 352.242188 1948.238281 351.621094 1948.15625 350.699219 C 1948.074219 349.789062 1947.753906 349.085938 1947.214844 348.601562 C 1946.667969 348.144531 1945.910156 347.90625 1944.949219 347.90625 C 1943.398438 347.90625 1942.15625 348.488281 1941.207031 349.636719 C 1939.953125 351.15625 1939.324219 353.164062 1939.324219 355.65625 C 1939.324219 358.199219 1939.945312 360.445312 1941.195312 362.398438 C 1942.445312 364.34375 1944.132812 365.316406 1946.253906 365.316406 C 1947.773438 365.316406 1949.148438 364.796875 1950.347656 363.753906 C 1951.207031 363.039062 1952.035156 361.746094 1952.839844 359.875 Z M 1966.992188 346.347656 C 1970.21875 346.347656 1972.804688 347.578125 1974.769531 350.027344 C 1976.425781 352.117188 1977.25 354.527344 1977.25 357.238281 C 1977.25 359.152344 1976.796875 361.074219 1975.886719 363.039062 C 1974.964844 364.984375 1973.703125 366.464844 1972.101562 367.457031 C 1970.496094 368.449219 1968.707031 368.945312 1966.734375 368.945312 C 1963.527344 368.945312 1960.972656 367.664062 1959.078125 365.109375 C 1957.476562 362.945312 1956.679688 360.527344 1956.679688 357.847656 C 1956.679688 355.894531 1957.164062 353.949219 1958.136719 352.015625 C 1959.109375 350.078125 1960.382812 348.652344 1961.964844 347.730469 C 1963.546875 346.8125 1965.222656 346.347656 1966.992188 346.347656 M 1966.265625 347.855469 C 1965.449219 347.855469 1964.621094 348.105469 1963.796875 348.589844 C 1962.957031 349.085938 1962.296875 349.945312 1961.777344 351.164062 C 1961.261719 352.398438 1961.011719 353.96875 1961.011719 355.894531 C 1961.011719 358.996094 1961.625 361.675781 1962.863281 363.917969 C 1964.09375 366.175781 1965.71875 367.292969 1967.734375 367.292969 C 1969.234375 367.292969 1970.488281 366.671875 1971.460938 365.429688 C 1972.433594 364.1875 1972.929688 362.058594 1972.929688 359.027344 C 1972.929688 355.25 1972.109375 352.273438 1970.488281 350.089844 C 1969.378906 348.601562 1967.972656 347.855469 1966.265625 347.855469 Z M 1979.300781 346.976562 L 1989.332031 346.976562 L 1989.332031 347.835938 L 1988.679688 347.835938 C 1988.070312 347.835938 1987.617188 347.992188 1987.296875 348.28125 C 1986.972656 348.582031 1986.820312 348.972656 1986.820312 349.46875 C 1986.820312 350.007812 1986.984375 350.660156 1987.304688 351.394531 L 1992.269531 363.175781 L 1997.246094 350.960938 C 1997.597656 350.089844 1997.78125 349.429688 1997.78125 348.972656 C 1997.78125 348.765625 1997.722656 348.582031 1997.597656 348.445312 C 1997.421875 348.207031 1997.203125 348.050781 1996.945312 347.96875 C 1996.675781 347.875 1996.136719 347.835938 1995.332031 347.835938 L 1995.332031 346.976562 L 2002.292969 346.976562 L 2002.292969 347.835938 C 2001.484375 347.898438 2000.925781 348.0625 2000.617188 348.332031 C 2000.078125 348.796875 1999.582031 349.574219 1999.160156 350.648438 L 1991.585938 368.945312 L 1990.636719 368.945312 L 1983.023438 350.960938 C 1982.683594 350.121094 1982.359375 349.519531 1982.050781 349.148438 C 1981.742188 348.785156 1981.335938 348.488281 1980.863281 348.226562 C 1980.59375 348.09375 1980.074219 347.960938 1979.300781 347.835938 Z M 2007.804688 355.003906 C 2007.796875 358.167969 2008.5625 360.652344 2010.113281 362.449219 C 2011.664062 364.25 2013.484375 365.148438 2015.582031 365.148438 C 2016.980469 365.148438 2018.191406 364.765625 2019.226562 364 C 2020.257812 363.238281 2021.128906 361.921875 2021.820312 360.0625 L 2022.542969 360.515625 C 2022.214844 362.648438 2021.273438 364.582031 2019.699219 366.328125 C 2018.140625 368.078125 2016.171875 368.945312 2013.816406 368.945312 C 2011.261719 368.945312 2009.066406 367.953125 2007.238281 365.957031 C 2005.417969 363.960938 2004.507812 361.28125 2004.507812 357.910156 C 2004.507812 354.269531 2005.4375 351.425781 2007.308594 349.386719 C 2009.179688 347.347656 2011.53125 346.324219 2014.351562 346.324219 C 2016.742188 346.324219 2018.707031 347.113281 2020.238281 348.683594 C 2021.769531 350.265625 2022.542969 352.367188 2022.542969 355.003906 L 2007.804688 355.003906 M 2007.804688 353.660156 L 2017.671875 353.660156 C 2017.601562 352.292969 2017.433594 351.332031 2017.1875 350.773438 C 2016.804688 349.902344 2016.226562 349.222656 2015.460938 348.726562 C 2014.683594 348.226562 2013.886719 347.980469 2013.050781 347.980469 C 2011.757812 347.980469 2010.609375 348.476562 2009.59375 349.480469 C 2008.570312 350.484375 2007.980469 351.871094 2007.804688 353.660156 Z M 2031.617188 346.347656 L 2031.617188 351.144531 C 2033.394531 347.949219 2035.226562 346.347656 2037.109375 346.347656 C 2037.957031 346.347656 2038.671875 346.605469 2039.230469 347.132812 C 2039.789062 347.648438 2040.066406 348.25 2040.066406 348.933594 C 2040.066406 349.53125 2039.859375 350.050781 2039.457031 350.460938 C 2039.054688 350.886719 2038.578125 351.09375 2038.019531 351.09375 C 2037.46875 351.09375 2036.859375 350.824219 2036.1875 350.296875 C 2035.515625 349.757812 2035.019531 349.492188 2034.6875 349.492188 C 2034.410156 349.492188 2034.109375 349.644531 2033.777344 349.957031 C 2033.085938 350.597656 2032.359375 351.640625 2031.617188 353.101562 L 2031.617188 363.308594 C 2031.617188 364.5 2031.761719 365.386719 2032.0625 365.988281 C 2032.257812 366.410156 2032.621094 366.761719 2033.125 367.03125 C 2033.644531 367.320312 2034.378906 367.457031 2035.339844 367.457031 L 2035.339844 368.292969 L 2024.425781 368.292969 L 2024.425781 367.457031 C 2025.511719 367.457031 2026.320312 367.292969 2026.847656 366.949219 C 2027.230469 366.703125 2027.5 366.296875 2027.65625 365.761719 C 2027.738281 365.492188 2027.777344 364.746094 2027.777344 363.496094 L 2027.777344 355.242188 C 2027.777344 352.757812 2027.726562 351.28125 2027.625 350.804688 C 2027.519531 350.328125 2027.332031 349.988281 2027.066406 349.769531 C 2026.796875 349.550781 2026.453125 349.449219 2026.050781 349.449219 C 2025.574219 349.449219 2025.027344 349.5625 2024.425781 349.789062 L 2024.191406 348.953125 L 2030.632812 346.347656 Z M 2044.835938 355.003906 C 2044.824219 358.167969 2045.589844 360.652344 2047.140625 362.449219 C 2048.691406 364.25 2050.511719 365.148438 2052.613281 365.148438 C 2054.007812 365.148438 2055.21875 364.765625 2056.253906 364 C 2057.289062 363.238281 2058.15625 361.921875 2058.851562 360.0625 L 2059.574219 360.515625 C 2059.242188 362.648438 2058.300781 364.582031 2056.730469 366.328125 C 2055.167969 368.078125 2053.203125 368.945312 2050.84375 368.945312 C 2048.289062 368.945312 2046.097656 367.953125 2044.265625 365.957031 C 2042.445312 363.960938 2041.535156 361.28125 2041.535156 357.910156 C 2041.535156 354.269531 2042.464844 351.425781 2044.339844 349.386719 C 2046.210938 347.347656 2048.558594 346.324219 2051.382812 346.324219 C 2053.769531 346.324219 2055.738281 347.113281 2057.265625 348.683594 C 2058.796875 350.265625 2059.574219 352.367188 2059.574219 355.003906 L 2044.835938 355.003906 M 2044.835938 353.660156 L 2054.703125 353.660156 C 2054.628906 352.292969 2054.464844 351.332031 2054.214844 350.773438 C 2053.832031 349.902344 2053.253906 349.222656 2052.488281 348.726562 C 2051.714844 348.226562 2050.917969 347.980469 2050.078125 347.980469 C 2048.785156 347.980469 2047.636719 348.476562 2046.625 349.480469 C 2045.601562 350.484375 2045.011719 351.871094 2044.835938 353.660156 Z M 2077.46875 365.894531 C 2076.421875 366.980469 2075.410156 367.765625 2074.417969 368.230469 C 2073.421875 368.707031 2072.347656 368.945312 2071.199219 368.945312 C 2068.882812 368.945312 2066.84375 367.972656 2065.109375 366.027344 C 2063.371094 364.074219 2062.5 361.582031 2062.5 358.519531 C 2062.5 355.46875 2063.460938 352.664062 2065.386719 350.132812 C 2067.3125 347.597656 2069.78125 346.324219 2072.8125 346.324219 C 2074.683594 346.324219 2076.238281 346.925781 2077.46875 348.113281 L 2077.46875 344.183594 C 2077.46875 341.753906 2077.40625 340.253906 2077.292969 339.695312 C 2077.179688 339.136719 2076.992188 338.753906 2076.742188 338.546875 C 2076.496094 338.351562 2076.183594 338.246094 2075.8125 338.246094 C 2075.410156 338.246094 2074.871094 338.371094 2074.210938 338.621094 L 2073.910156 337.800781 L 2080.261719 335.195312 L 2081.304688 335.195312 L 2081.304688 359.84375 C 2081.304688 362.347656 2081.367188 363.867188 2081.480469 364.414062 C 2081.59375 364.972656 2081.78125 365.355469 2082.039062 365.574219 C 2082.296875 365.792969 2082.585938 365.894531 2082.929688 365.894531 C 2083.351562 365.894531 2083.910156 365.769531 2084.605469 365.5 L 2084.863281 366.320312 L 2078.53125 368.945312 L 2077.46875 368.945312 L 2077.46875 365.894531 M 2077.46875 364.269531 L 2077.46875 353.285156 C 2077.375 352.230469 2077.09375 351.269531 2076.628906 350.402344 C 2076.164062 349.53125 2075.542969 348.871094 2074.777344 348.433594 C 2074.011719 347.992188 2073.257812 347.773438 2072.535156 347.773438 C 2071.167969 347.773438 2069.949219 348.382812 2068.882812 349.605469 C 2067.464844 351.21875 2066.761719 353.574219 2066.761719 356.679688 C 2066.761719 359.8125 2067.445312 362.210938 2068.808594 363.886719 C 2070.175781 365.554688 2071.695312 366.390625 2073.371094 366.390625 C 2074.777344 366.390625 2076.144531 365.675781 2077.46875 364.269531 Z M 1880.976562 325.824219 "/>
<path fill-rule="nonzero" fill="rgb(51.372549%, 82.745098%, 83.137255%)" fill-opacity="1" stroke-width="1" stroke-linecap="butt" stroke-linejoin="miter" stroke="rgb(0%, 0%, 0%)" stroke-opacity="1" stroke-miterlimit="4" d="M 98.975903 -35.999391 L 0.00801806 -35.999391 L 0.00801806 -0.000608663 L 98.975903 -0.000608663 Z M 98.975903 -35.999391 " transform="matrix(2.647876, 0, 0, 2.647876, 19.064707, 401.661768)"/>
<path fill-rule="nonzero" fill="rgb(0%, 0%, 0%)" fill-opacity="1" d="M 62.101562 336.011719 L 62.101562 346.925781 L 61.246094 346.925781 C 60.953125 344.835938 60.457031 343.171875 59.734375 341.929688 C 59.019531 340.6875 57.988281 339.707031 56.652344 338.972656 C 55.316406 338.246094 53.941406 337.875 52.515625 337.875 C 50.902344 337.875 49.566406 338.371094 48.511719 339.355469 C 47.457031 340.335938 46.929688 341.464844 46.929688 342.714844 C 46.929688 343.675781 47.261719 344.554688 47.921875 345.351562 C 48.882812 346.511719 51.179688 348.0625 54.789062 350.007812 C 57.738281 351.578125 59.753906 352.800781 60.832031 353.648438 C 61.90625 354.484375 62.746094 355.488281 63.324219 356.636719 C 63.902344 357.785156 64.191406 358.984375 64.191406 360.246094 C 64.191406 362.636719 63.273438 364.695312 61.410156 366.421875 C 59.558594 368.148438 57.167969 369.019531 54.253906 369.019531 C 53.34375 369.019531 52.484375 368.945312 51.675781 368.8125 C 51.191406 368.730469 50.199219 368.449219 48.6875 367.953125 C 47.167969 367.46875 46.214844 367.21875 45.8125 367.21875 C 45.417969 367.21875 45.121094 367.34375 44.890625 367.570312 C 44.664062 367.808594 44.5 368.285156 44.386719 369.019531 L 43.527344 369.019531 L 43.527344 358.199219 L 44.386719 358.199219 C 44.789062 360.464844 45.335938 362.152344 46.019531 363.277344 C 46.703125 364.40625 47.746094 365.335938 49.152344 366.082031 C 50.550781 366.824219 52.089844 367.199219 53.765625 367.199219 C 55.710938 367.199219 57.242188 366.691406 58.367188 365.667969 C 59.484375 364.644531 60.054688 363.433594 60.054688 362.035156 C 60.054688 361.261719 59.835938 360.476562 59.414062 359.6875 C 58.988281 358.890625 58.316406 358.15625 57.417969 357.476562 C 56.816406 357.011719 55.164062 356.015625 52.464844 354.507812 C 49.761719 352.996094 47.851562 351.785156 46.703125 350.886719 C 45.5625 349.988281 44.695312 348.992188 44.117188 347.90625 C 43.515625 346.820312 43.226562 345.621094 43.226562 344.320312 C 43.226562 342.0625 44.09375 340.109375 45.832031 338.476562 C 47.570312 336.832031 49.785156 336.011719 52.464844 336.011719 C 54.140625 336.011719 55.917969 336.425781 57.789062 337.242188 C 58.660156 337.636719 59.28125 337.832031 59.632812 337.832031 C 60.035156 337.832031 60.367188 337.710938 60.625 337.472656 C 60.882812 337.234375 61.078125 336.746094 61.246094 336.011719 Z M 86.9375 346.976562 L 86.9375 359.894531 C 86.9375 362.355469 86.988281 363.867188 87.113281 364.414062 C 87.226562 364.972656 87.414062 365.355469 87.671875 365.574219 C 87.917969 365.792969 88.21875 365.894531 88.5625 365.894531 C 89.046875 365.894531 89.585938 365.769531 90.195312 365.5 L 90.515625 366.320312 L 84.144531 368.945312 L 83.101562 368.945312 L 83.101562 364.425781 C 81.257812 366.410156 79.863281 367.664062 78.902344 368.179688 C 77.9375 368.6875 76.925781 368.945312 75.859375 368.945312 C 74.660156 368.945312 73.625 368.605469 72.746094 367.910156 C 71.878906 367.21875 71.265625 366.328125 70.925781 365.242188 C 70.585938 364.15625 70.410156 362.625 70.410156 360.640625 L 70.410156 351.125 C 70.410156 350.109375 70.304688 349.417969 70.089844 349.023438 C 69.871094 348.640625 69.550781 348.34375 69.117188 348.125 C 68.691406 347.917969 67.914062 347.824219 66.800781 347.835938 L 66.800781 346.976562 L 74.277344 346.976562 L 74.277344 361.242188 C 74.277344 363.226562 74.617188 364.53125 75.3125 365.148438 C 76.003906 365.769531 76.832031 366.082031 77.816406 366.082031 C 78.476562 366.082031 79.230469 365.875 80.078125 365.460938 C 80.929688 365.035156 81.929688 364.238281 83.101562 363.0625 L 83.101562 350.980469 C 83.101562 349.769531 82.871094 348.953125 82.425781 348.527344 C 81.992188 348.09375 81.074219 347.867188 79.675781 347.835938 L 79.675781 346.976562 Z M 105.855469 346.347656 L 105.855469 353.605469 L 105.089844 353.605469 C 104.5 351.332031 103.746094 349.78125 102.8125 348.953125 C 101.894531 348.136719 100.714844 347.722656 99.296875 347.722656 C 98.199219 347.722656 97.332031 348.011719 96.660156 348.582031 C 95.996094 349.160156 95.65625 349.789062 95.65625 350.492188 C 95.65625 351.363281 95.90625 352.105469 96.402344 352.726562 C 96.886719 353.359375 97.859375 354.042969 99.339844 354.746094 L 102.730469 356.398438 C 105.886719 357.941406 107.457031 359.957031 107.457031 362.480469 C 107.457031 364.414062 106.722656 365.976562 105.265625 367.167969 C 103.796875 368.355469 102.152344 368.945312 100.34375 368.945312 C 99.039062 368.945312 97.550781 368.707031 95.875 368.253906 C 95.355469 368.097656 94.941406 368.015625 94.613281 368.015625 C 94.261719 368.015625 93.980469 368.222656 93.773438 368.625 L 93.007812 368.625 L 93.007812 361.011719 L 93.773438 361.011719 C 94.207031 363.183594 95.035156 364.820312 96.265625 365.914062 C 97.488281 367.023438 98.863281 367.570312 100.382812 367.570312 C 101.460938 367.570312 102.328125 367.261719 103 366.628906 C 103.683594 366 104.015625 365.242188 104.015625 364.363281 C 104.015625 363.289062 103.640625 362.386719 102.886719 361.664062 C 102.132812 360.929688 100.632812 360.007812 98.386719 358.890625 C 96.132812 357.773438 94.664062 356.773438 93.960938 355.863281 C 93.265625 354.984375 92.914062 353.867188 92.914062 352.511719 C 92.914062 350.761719 93.515625 349.292969 94.714844 348.113281 C 95.925781 346.9375 97.476562 346.347656 99.378906 346.347656 C 100.21875 346.347656 101.242188 346.53125 102.429688 346.882812 C 103.226562 347.113281 103.753906 347.234375 104.015625 347.234375 C 104.261719 347.234375 104.457031 347.183594 104.59375 347.070312 C 104.738281 346.964844 104.902344 346.71875 105.089844 346.347656 Z M 128.722656 360.195312 C 128.15625 363.007812 127.027344 365.160156 125.351562 366.679688 C 123.675781 368.191406 121.824219 368.945312 119.789062 368.945312 C 117.367188 368.945312 115.257812 367.933594 113.457031 365.894531 C 111.65625 363.867188 110.769531 361.117188 110.769531 357.660156 C 110.769531 354.308594 111.761719 351.578125 113.757812 349.492188 C 115.742188 347.402344 118.144531 346.347656 120.933594 346.347656 C 123.023438 346.347656 124.753906 346.90625 126.097656 348.011719 C 127.453125 349.117188 128.125 350.277344 128.125 351.464844 C 128.125 352.054688 127.9375 352.53125 127.554688 352.902344 C 127.171875 353.265625 126.644531 353.441406 125.960938 353.441406 C 125.042969 353.441406 124.359375 353.152344 123.882812 352.5625 C 123.625 352.242188 123.449219 351.621094 123.367188 350.699219 C 123.285156 349.789062 122.960938 349.085938 122.425781 348.601562 C 121.875 348.144531 121.121094 347.90625 120.160156 347.90625 C 118.609375 347.90625 117.367188 348.488281 116.414062 349.636719 C 115.164062 351.15625 114.53125 353.164062 114.53125 355.65625 C 114.53125 358.199219 115.152344 360.445312 116.40625 362.398438 C 117.65625 364.34375 119.34375 365.316406 121.464844 365.316406 C 122.984375 365.316406 124.359375 364.796875 125.558594 363.753906 C 126.417969 363.039062 127.246094 361.746094 128.050781 359.875 Z M 135.355469 355.003906 C 135.34375 358.167969 136.109375 360.652344 137.660156 362.449219 C 139.210938 364.25 141.03125 365.148438 143.132812 365.148438 C 144.527344 365.148438 145.738281 364.765625 146.773438 364 C 147.808594 363.238281 148.675781 361.921875 149.371094 360.0625 L 150.09375 360.515625 C 149.761719 362.648438 148.820312 364.582031 147.25 366.328125 C 145.6875 368.078125 143.722656 368.945312 141.363281 368.945312 C 138.808594 368.945312 136.617188 367.953125 134.785156 365.957031 C 132.964844 363.960938 132.054688 361.28125 132.054688 357.910156 C 132.054688 354.269531 132.984375 351.425781 134.859375 349.386719 C 136.730469 347.347656 139.078125 346.324219 141.902344 346.324219 C 144.289062 346.324219 146.253906 347.113281 147.785156 348.683594 C 149.316406 350.265625 150.09375 352.367188 150.09375 355.003906 L 135.355469 355.003906 M 135.355469 353.660156 L 145.222656 353.660156 C 145.148438 352.292969 144.984375 351.332031 144.734375 350.773438 C 144.351562 349.902344 143.773438 349.222656 143.007812 348.726562 C 142.230469 348.226562 141.4375 347.980469 140.597656 347.980469 C 139.304688 347.980469 138.15625 348.476562 137.144531 349.480469 C 136.121094 350.484375 135.53125 351.871094 135.355469 353.660156 Z M 151.394531 349.097656 L 157.953125 346.4375 L 158.84375 346.4375 L 158.84375 351.425781 C 159.941406 349.542969 161.046875 348.226562 162.152344 347.472656 C 163.261719 346.730469 164.429688 346.347656 165.660156 346.347656 C 167.800781 346.347656 169.578125 347.183594 171.007812 348.859375 C 172.765625 350.90625 173.632812 353.574219 173.632812 356.863281 C 173.632812 360.546875 172.578125 363.589844 170.46875 365.988281 C 168.730469 367.964844 166.550781 368.945312 163.910156 368.945312 C 162.765625 368.945312 161.769531 368.78125 160.933594 368.460938 C 160.3125 368.222656 159.609375 367.757812 158.84375 367.0625 L 158.84375 373.546875 C 158.84375 375.007812 158.925781 375.9375 159.101562 376.332031 C 159.289062 376.734375 159.597656 377.042969 160.03125 377.273438 C 160.476562 377.511719 161.285156 377.625 162.441406 377.625 L 162.441406 378.492188 L 151.273438 378.492188 L 151.273438 377.625 L 151.851562 377.625 C 152.710938 377.644531 153.445312 377.480469 154.042969 377.136719 C 154.332031 376.960938 154.570312 376.691406 154.726562 376.308594 C 154.890625 375.925781 154.976562 374.964844 154.976562 373.414062 L 154.976562 353.253906 C 154.976562 351.878906 154.914062 351 154.789062 350.628906 C 154.664062 350.253906 154.46875 349.976562 154.199219 349.789062 C 153.921875 349.605469 153.558594 349.511719 153.09375 349.511719 C 152.71875 349.511719 152.246094 349.625 151.664062 349.84375 L 151.394531 349.097656 M 158.84375 352.800781 L 158.84375 360.753906 C 158.84375 362.480469 158.90625 363.609375 159.050781 364.15625 C 159.269531 365.058594 159.796875 365.84375 160.644531 366.527344 C 161.492188 367.207031 162.558594 367.550781 163.839844 367.550781 C 165.390625 367.550781 166.652344 366.949219 167.613281 365.730469 C 168.867188 364.15625 169.496094 361.921875 169.496094 359.058594 C 169.496094 355.800781 168.785156 353.296875 167.355469 351.539062 C 166.363281 350.328125 165.183594 349.726562 163.820312 349.71875 C 163.074219 349.726562 162.339844 349.914062 161.605469 350.277344 C 161.046875 350.566406 160.125 351.394531 158.84375 352.800781 Z M 182.945312 339.972656 L 182.945312 346.976562 L 187.929688 346.976562 L 187.929688 348.601562 L 182.945312 348.601562 L 182.945312 362.429688 C 182.945312 363.816406 183.148438 364.746094 183.542969 365.222656 C 183.9375 365.707031 184.441406 365.945312 185.0625 365.945312 C 185.582031 365.945312 186.078125 365.78125 186.554688 365.46875 C 187.039062 365.148438 187.410156 364.683594 187.671875 364.054688 L 188.582031 364.054688 C 188.03125 365.585938 187.265625 366.722656 186.273438 367.488281 C 185.28125 368.261719 184.257812 368.644531 183.203125 368.644531 C 182.488281 368.644531 181.796875 368.449219 181.113281 368.046875 C 180.429688 367.652344 179.921875 367.085938 179.59375 366.351562 C 179.273438 365.617188 179.105469 364.476562 179.105469 362.9375 L 179.105469 348.601562 L 175.734375 348.601562 L 175.734375 347.835938 C 176.582031 347.492188 177.460938 346.914062 178.351562 346.109375 C 179.242188 345.289062 180.035156 344.320312 180.742188 343.203125 C 181.09375 342.621094 181.589844 341.535156 182.230469 339.972656 Z M 195.425781 335.195312 C 196.078125 335.195312 196.636719 335.433594 197.09375 335.890625 C 197.546875 336.34375 197.785156 336.902344 197.785156 337.554688 C 197.785156 338.207031 197.546875 338.765625 197.09375 339.230469 C 196.636719 339.695312 196.078125 339.921875 195.425781 339.921875 C 194.777344 339.921875 194.21875 339.695312 193.753906 339.230469 C 193.285156 338.765625 193.058594 338.207031 193.058594 337.554688 C 193.058594 336.902344 193.285156 336.34375 193.742188 335.890625 C 194.195312 335.433594 194.765625 335.195312 195.425781 335.195312 M 197.363281 346.347656 L 197.363281 363.472656 C 197.363281 364.808594 197.453125 365.699219 197.652344 366.144531 C 197.847656 366.585938 198.136719 366.917969 198.511719 367.136719 C 198.894531 367.351562 199.585938 367.457031 200.597656 367.457031 L 200.597656 368.292969 L 190.234375 368.292969 L 190.234375 367.457031 C 191.28125 367.457031 191.972656 367.351562 192.335938 367.15625 C 192.6875 366.949219 192.976562 366.617188 193.183594 366.152344 C 193.390625 365.6875 193.503906 364.796875 193.503906 363.472656 L 193.503906 355.261719 C 193.503906 352.957031 193.429688 351.457031 193.285156 350.773438 C 193.183594 350.277344 193.007812 349.925781 192.78125 349.738281 C 192.542969 349.542969 192.222656 349.449219 191.828125 349.449219 C 191.382812 349.449219 190.855469 349.5625 190.234375 349.789062 L 189.914062 348.953125 L 196.339844 346.347656 Z M 209.089844 350.648438 C 211.148438 347.785156 213.375 346.347656 215.761719 346.347656 C 217.957031 346.347656 219.859375 347.289062 221.492188 349.148438 C 223.128906 351.019531 223.933594 353.574219 223.933594 356.824219 C 223.933594 360.609375 222.683594 363.660156 220.167969 365.96875 C 218.007812 367.953125 215.609375 368.945312 212.949219 368.945312 C 211.707031 368.945312 210.445312 368.71875 209.175781 368.273438 C 207.890625 367.820312 206.578125 367.144531 205.253906 366.246094 L 205.253906 344.164062 C 205.253906 341.742188 205.191406 340.253906 205.078125 339.695312 C 204.953125 339.136719 204.777344 338.753906 204.53125 338.546875 C 204.28125 338.351562 203.972656 338.246094 203.597656 338.246094 C 203.164062 338.246094 202.617188 338.371094 201.964844 338.621094 L 201.644531 337.800781 L 208.046875 335.195312 L 209.089844 335.195312 L 209.089844 350.648438 M 209.089844 352.136719 L 209.089844 364.902344 C 209.878906 365.675781 210.695312 366.257812 211.542969 366.648438 C 212.390625 367.054688 213.257812 367.25 214.140625 367.25 C 215.546875 367.25 216.871094 366.472656 218.078125 364.921875 C 219.300781 363.371094 219.910156 361.105469 219.910156 358.148438 C 219.910156 355.417969 219.300781 353.316406 218.078125 351.847656 C 216.871094 350.390625 215.484375 349.65625 213.933594 349.65625 C 213.105469 349.65625 212.289062 349.863281 211.460938 350.277344 C 210.839844 350.597656 210.054688 351.207031 209.089844 352.136719 Z M 234.410156 335.195312 L 234.410156 363.472656 C 234.410156 364.808594 234.503906 365.699219 234.699219 366.132812 C 234.898438 366.566406 235.1875 366.898438 235.601562 367.117188 C 235.992188 367.34375 236.75 367.457031 237.855469 367.457031 L 237.855469 368.292969 L 227.410156 368.292969 L 227.410156 367.457031 C 228.382812 367.457031 229.042969 367.351562 229.40625 367.15625 C 229.757812 366.949219 230.035156 366.617188 230.242188 366.152344 C 230.441406 365.6875 230.542969 364.796875 230.542969 363.472656 L 230.542969 344.113281 C 230.542969 341.710938 230.492188 340.234375 230.386719 339.683594 C 230.273438 339.125 230.097656 338.753906 229.859375 338.546875 C 229.621094 338.351562 229.3125 338.246094 228.941406 338.246094 C 228.535156 338.246094 228.019531 338.371094 227.410156 338.621094 L 227.003906 337.800781 L 233.367188 335.195312 Z M 243.894531 355.003906 C 243.886719 358.167969 244.652344 360.652344 246.203125 362.449219 C 247.753906 364.25 249.574219 365.148438 251.675781 365.148438 C 253.070312 365.148438 254.28125 364.765625 255.316406 364 C 256.347656 363.238281 257.21875 361.921875 257.910156 360.0625 L 258.636719 360.515625 C 258.304688 362.648438 257.363281 364.582031 255.792969 366.328125 C 254.230469 368.078125 252.265625 368.945312 249.90625 368.945312 C 247.351562 368.945312 245.15625 367.953125 243.328125 365.957031 C 241.507812 363.960938 240.597656 361.28125 240.597656 357.910156 C 240.597656 354.269531 241.527344 351.425781 243.398438 349.386719 C 245.273438 347.347656 247.621094 346.324219 250.445312 346.324219 C 252.832031 346.324219 254.796875 347.113281 256.328125 348.683594 C 257.859375 350.265625 258.636719 352.367188 258.636719 355.003906 L 243.894531 355.003906 M 243.894531 353.660156 L 253.765625 353.660156 C 253.691406 352.292969 253.527344 351.332031 253.277344 350.773438 C 252.894531 349.902344 252.316406 349.222656 251.550781 348.726562 C 250.773438 348.226562 249.976562 347.980469 249.140625 347.980469 C 247.847656 347.980469 246.699219 348.476562 245.6875 349.480469 C 244.660156 350.484375 244.070312 351.871094 243.894531 353.660156 Z M 40.246094 325.824219 "/>
<path fill-rule="nonzero" fill="rgb(0%, 0%, 0%)" fill-opacity="1" d="M 495.070312 338.660156 L 502.683594 338.660156 L 519.832031 359.699219 L 519.832031 343.523438 C 519.832031 341.796875 519.636719 340.71875 519.253906 340.296875 C 518.746094 339.714844 517.941406 339.425781 516.835938 339.425781 L 515.863281 339.425781 L 515.863281 338.660156 L 525.625 338.660156 L 525.625 339.425781 L 524.632812 339.425781 C 523.445312 339.425781 522.605469 339.789062 522.109375 340.503906 C 521.808594 340.945312 521.65625 341.949219 521.65625 343.523438 L 521.65625 367.167969 L 520.910156 367.167969 L 502.414062 344.578125 L 502.414062 361.851562 C 502.414062 363.578125 502.601562 364.652344 502.972656 365.078125 C 503.5 365.65625 504.308594 365.945312 505.394531 365.945312 L 506.386719 365.945312 L 506.386719 366.710938 L 496.625 366.710938 L 496.625 365.945312 L 497.597656 365.945312 C 498.796875 365.945312 499.644531 365.585938 500.140625 364.871094 C 500.441406 364.425781 500.59375 363.421875 500.59375 361.851562 L 500.59375 342.34375 C 499.777344 341.390625 499.167969 340.761719 498.742188 340.460938 C 498.320312 340.160156 497.710938 339.871094 496.890625 339.613281 C 496.488281 339.488281 495.890625 339.425781 495.070312 339.425781 Z M 530.734375 354.898438 C 530.726562 357.714844 531.40625 359.917969 532.785156 361.519531 C 534.160156 363.121094 535.785156 363.917969 537.644531 363.917969 C 538.886719 363.917969 539.960938 363.578125 540.882812 362.894531 C 541.804688 362.210938 542.570312 361.042969 543.1875 359.390625 L 543.832031 359.800781 C 543.539062 361.695312 542.703125 363.414062 541.304688 364.964844 C 539.910156 366.515625 538.171875 367.292969 536.074219 367.292969 C 533.796875 367.292969 531.851562 366.402344 530.230469 364.632812 C 528.605469 362.863281 527.796875 360.476562 527.796875 357.484375 C 527.796875 354.25 528.625 351.714844 530.289062 349.902344 C 531.957031 348.09375 534.035156 347.183594 536.546875 347.183594 C 538.667969 347.183594 540.417969 347.886719 541.78125 349.285156 C 543.148438 350.679688 543.832031 352.550781 543.832031 354.898438 L 530.734375 354.898438 M 530.734375 353.699219 L 539.507812 353.699219 C 539.433594 352.488281 539.289062 351.632812 539.074219 351.136719 C 538.730469 350.359375 538.214844 349.757812 537.53125 349.316406 C 536.847656 348.871094 536.136719 348.652344 535.390625 348.652344 C 534.242188 348.652344 533.21875 349.097656 532.316406 349.988281 C 531.417969 350.875 530.890625 352.117188 530.734375 353.699219 Z M 545.300781 347.761719 L 553.242188 347.761719 L 553.242188 348.527344 C 552.507812 348.582031 552.03125 348.714844 551.804688 348.921875 C 551.578125 349.128906 551.464844 349.429688 551.464844 349.8125 C 551.464844 350.234375 551.578125 350.753906 551.816406 351.363281 L 555.871094 362.265625 L 559.945312 353.390625 L 558.871094 350.597656 C 558.539062 349.769531 558.105469 349.199219 557.566406 348.878906 C 557.265625 348.683594 556.699219 348.570312 555.871094 348.527344 L 555.871094 347.761719 L 564.890625 347.761719 L 564.890625 348.527344 C 563.894531 348.570312 563.191406 348.746094 562.777344 349.066406 C 562.5 349.285156 562.367188 349.636719 562.367188 350.121094 C 562.367188 350.402344 562.417969 350.679688 562.53125 350.96875 L 566.832031 361.851562 L 570.828125 351.363281 C 571.105469 350.617188 571.238281 350.027344 571.238281 349.582031 C 571.238281 349.324219 571.105469 349.085938 570.835938 348.878906 C 570.566406 348.671875 570.039062 348.558594 569.253906 348.527344 L 569.253906 347.761719 L 575.234375 347.761719 L 575.234375 348.527344 C 574.03125 348.703125 573.152344 349.519531 572.585938 350.96875 L 566.253906 367.292969 L 565.40625 367.292969 L 560.667969 355.191406 L 555.144531 367.292969 L 554.378906 367.292969 L 548.296875 351.363281 C 547.894531 350.359375 547.503906 349.675781 547.121094 349.324219 C 546.738281 348.972656 546.125 348.703125 545.300781 348.527344 Z M 592.359375 337.296875 C 592.941406 337.296875 593.4375 337.503906 593.839844 337.90625 C 594.242188 338.308594 594.449219 338.804688 594.449219 339.386719 C 594.449219 339.964844 594.242188 340.460938 593.839844 340.875 C 593.4375 341.289062 592.941406 341.496094 592.359375 341.496094 C 591.78125 341.496094 591.285156 341.289062 590.871094 340.875 C 590.457031 340.460938 590.25 339.964844 590.25 339.386719 C 590.25 338.804688 590.457031 338.308594 590.859375 337.90625 C 591.265625 337.503906 591.769531 337.296875 592.359375 337.296875 M 594.078125 347.203125 L 594.078125 362.429688 C 594.078125 363.621094 594.160156 364.40625 594.335938 364.796875 C 594.511719 365.191406 594.761719 365.480469 595.101562 365.675781 C 595.441406 365.875 596.054688 365.96875 596.953125 365.96875 L 596.953125 366.710938 L 587.746094 366.710938 L 587.746094 365.96875 C 588.667969 365.96875 589.289062 365.875 589.609375 365.699219 C 589.929688 365.523438 590.179688 365.222656 590.363281 364.808594 C 590.550781 364.394531 590.644531 363.597656 590.644531 362.429688 L 590.644531 355.128906 C 590.644531 353.070312 590.582031 351.746094 590.457031 351.136719 C 590.363281 350.691406 590.210938 350.390625 590.003906 350.214844 C 589.796875 350.039062 589.515625 349.957031 589.15625 349.957031 C 588.773438 349.957031 588.296875 350.058594 587.746094 350.265625 L 587.457031 349.519531 L 593.167969 347.203125 Z M 604.835938 351.21875 C 607.058594 348.539062 609.167969 347.203125 611.1875 347.203125 C 612.21875 347.203125 613.109375 347.464844 613.855469 347.980469 C 614.597656 348.496094 615.1875 349.34375 615.632812 350.535156 C 615.933594 351.363281 616.089844 352.632812 616.089844 354.339844 L 616.089844 362.429688 C 616.089844 363.628906 616.179688 364.445312 616.378906 364.871094 C 616.53125 365.210938 616.769531 365.480469 617.113281 365.675781 C 617.453125 365.875 618.074219 365.96875 618.984375 365.96875 L 618.984375 366.710938 L 609.613281 366.710938 L 609.613281 365.96875 L 610.007812 365.96875 C 610.886719 365.96875 611.507812 365.832031 611.859375 365.5625 C 612.210938 365.292969 612.457031 364.902344 612.59375 364.375 C 612.644531 364.167969 612.675781 363.515625 612.675781 362.429688 L 612.675781 354.671875 C 612.675781 352.945312 612.449219 351.695312 612.003906 350.917969 C 611.558594 350.140625 610.804688 349.75 609.738281 349.75 C 608.09375 349.75 606.457031 350.648438 604.835938 352.4375 L 604.835938 362.429688 C 604.835938 363.710938 604.90625 364.507812 605.0625 364.808594 C 605.257812 365.210938 605.515625 365.5 605.859375 365.6875 C 606.199219 365.875 606.882812 365.96875 607.917969 365.96875 L 607.917969 366.710938 L 598.546875 366.710938 L 598.546875 365.96875 L 598.960938 365.96875 C 599.921875 365.96875 600.574219 365.71875 600.914062 365.234375 C 601.257812 364.746094 601.421875 363.804688 601.421875 362.429688 L 601.421875 355.394531 C 601.421875 353.121094 601.371094 351.734375 601.265625 351.238281 C 601.164062 350.742188 601.007812 350.402344 600.789062 350.226562 C 600.574219 350.050781 600.292969 349.957031 599.933594 349.957031 C 599.550781 349.957031 599.085938 350.058594 598.546875 350.265625 L 598.234375 349.519531 L 603.945312 347.203125 L 604.835938 347.203125 Z M 627.898438 349.253906 L 627.898438 361.707031 C 627.898438 363.472656 628.097656 364.589844 628.480469 365.058594 C 628.988281 365.667969 629.667969 365.96875 630.527344 365.96875 L 632.246094 365.96875 L 632.246094 366.710938 L 620.929688 366.710938 L 620.929688 365.96875 L 621.777344 365.96875 C 622.324219 365.96875 622.832031 365.832031 623.289062 365.554688 C 623.742188 365.273438 624.050781 364.902344 624.226562 364.4375 C 624.40625 363.972656 624.488281 363.0625 624.488281 361.707031 L 624.488281 349.253906 L 620.804688 349.253906 L 620.804688 347.761719 L 624.488281 347.761719 L 624.488281 346.523438 C 624.488281 344.628906 624.785156 343.035156 625.398438 341.722656 C 626.007812 340.410156 626.929688 339.355469 628.179688 338.546875 C 629.429688 337.742188 630.828125 337.335938 632.390625 337.335938 C 633.835938 337.335938 635.171875 337.800781 636.382812 338.742188 C 637.179688 339.363281 637.582031 340.058594 637.582031 340.832031 C 637.582031 341.246094 637.40625 341.640625 637.042969 342 C 636.683594 342.363281 636.300781 342.550781 635.886719 342.550781 C 635.566406 342.550781 635.234375 342.4375 634.882812 342.207031 C 634.53125 341.980469 634.097656 341.496094 633.589844 340.738281 C 633.082031 339.984375 632.605469 339.476562 632.183594 339.21875 C 631.757812 338.960938 631.28125 338.828125 630.753906 338.828125 C 630.125 338.828125 629.585938 338.992188 629.140625 339.332031 C 628.695312 339.675781 628.386719 340.191406 628.191406 340.90625 C 627.992188 341.617188 627.898438 343.449219 627.898438 346.398438 L 627.898438 347.761719 L 632.78125 347.761719 L 632.78125 349.253906 Z M 637.789062 354.898438 C 637.777344 357.714844 638.460938 359.917969 639.835938 361.519531 C 641.210938 363.121094 642.835938 363.917969 644.699219 363.917969 C 645.9375 363.917969 647.015625 363.578125 647.933594 362.894531 C 648.855469 362.210938 649.621094 361.042969 650.242188 359.390625 L 650.882812 359.800781 C 650.59375 361.695312 649.753906 363.414062 648.359375 364.964844 C 646.964844 366.515625 645.226562 367.292969 643.125 367.292969 C 640.851562 367.292969 638.90625 366.402344 637.28125 364.632812 C 635.65625 362.863281 634.851562 360.476562 634.851562 357.484375 C 634.851562 354.25 635.679688 351.714844 637.34375 349.902344 C 639.007812 348.09375 641.089844 347.183594 643.601562 347.183594 C 645.722656 347.183594 647.46875 347.886719 648.835938 349.285156 C 650.199219 350.679688 650.882812 352.550781 650.882812 354.898438 L 637.789062 354.898438 M 637.789062 353.699219 L 646.558594 353.699219 C 646.488281 352.488281 646.34375 351.632812 646.125 351.136719 C 645.785156 350.359375 645.265625 349.757812 644.585938 349.316406 C 643.902344 348.871094 643.1875 348.652344 642.441406 348.652344 C 641.292969 348.652344 640.269531 349.097656 639.371094 349.988281 C 638.472656 350.875 637.945312 352.117188 637.789062 353.699219 Z M 669.5 359.511719 C 668.996094 362.003906 667.992188 363.929688 666.5 365.273438 C 665.011719 366.617188 663.367188 367.292969 661.558594 367.292969 C 659.40625 367.292969 657.535156 366.390625 655.929688 364.582031 C 654.328125 362.769531 653.53125 360.332031 653.53125 357.257812 C 653.53125 354.277344 654.421875 351.859375 656.1875 349.996094 C 657.957031 348.136719 660.089844 347.203125 662.570312 347.203125 C 664.433594 347.203125 665.964844 347.699219 667.164062 348.683594 C 668.363281 349.667969 668.964844 350.691406 668.964844 351.753906 C 668.964844 352.28125 668.796875 352.707031 668.457031 353.027344 C 668.113281 353.347656 667.648438 353.515625 667.039062 353.515625 C 666.222656 353.515625 665.613281 353.253906 665.199219 352.726562 C 664.960938 352.4375 664.804688 351.890625 664.734375 351.074219 C 664.660156 350.253906 664.382812 349.636719 663.894531 349.210938 C 663.410156 348.796875 662.746094 348.589844 661.886719 348.589844 C 660.511719 348.589844 659.394531 349.097656 658.558594 350.121094 C 657.441406 351.476562 656.882812 353.253906 656.882812 355.480469 C 656.882812 357.746094 657.441406 359.742188 658.546875 361.46875 C 659.652344 363.195312 661.152344 364.0625 663.046875 364.0625 C 664.402344 364.0625 665.613281 363.597656 666.6875 362.679688 C 667.441406 362.046875 668.1875 360.886719 668.902344 359.222656 Z M 677.714844 341.535156 L 677.714844 347.761719 L 682.140625 347.761719 L 682.140625 349.210938 L 677.714844 349.210938 L 677.714844 361.5 C 677.714844 362.730469 677.890625 363.558594 678.242188 363.980469 C 678.59375 364.40625 679.046875 364.621094 679.597656 364.621094 C 680.050781 364.621094 680.496094 364.476562 680.921875 364.199219 C 681.34375 363.917969 681.675781 363.496094 681.914062 362.945312 L 682.71875 362.945312 C 682.234375 364.300781 681.550781 365.316406 680.671875 366 C 679.792969 366.679688 678.882812 367.023438 677.941406 367.023438 C 677.308594 367.023438 676.691406 366.847656 676.078125 366.496094 C 675.46875 366.144531 675.023438 365.636719 674.734375 364.984375 C 674.445312 364.332031 674.300781 363.320312 674.300781 361.953125 L 674.300781 349.210938 L 671.300781 349.210938 L 671.300781 348.527344 C 672.054688 348.226562 672.832031 347.710938 673.628906 346.988281 C 674.425781 346.261719 675.128906 345.40625 675.75 344.410156 C 676.070312 343.882812 676.503906 342.933594 677.070312 341.535156 Z M 688.800781 337.296875 C 689.378906 337.296875 689.878906 337.503906 690.28125 337.90625 C 690.683594 338.308594 690.890625 338.804688 690.890625 339.386719 C 690.890625 339.964844 690.683594 340.460938 690.28125 340.875 C 689.878906 341.289062 689.378906 341.496094 688.800781 341.496094 C 688.222656 341.496094 687.726562 341.289062 687.3125 340.875 C 686.898438 340.460938 686.691406 339.964844 686.691406 339.386719 C 686.691406 338.804688 686.898438 338.308594 687.300781 337.90625 C 687.707031 337.503906 688.210938 337.296875 688.800781 337.296875 M 690.519531 347.203125 L 690.519531 362.429688 C 690.519531 363.621094 690.601562 364.40625 690.777344 364.796875 C 690.953125 365.191406 691.199219 365.480469 691.542969 365.675781 C 691.882812 365.875 692.492188 365.96875 693.394531 365.96875 L 693.394531 366.710938 L 684.1875 366.710938 L 684.1875 365.96875 C 685.109375 365.96875 685.730469 365.875 686.050781 365.699219 C 686.371094 365.523438 686.617188 365.222656 686.804688 364.808594 C 686.992188 364.394531 687.085938 363.597656 687.085938 362.429688 L 687.085938 355.128906 C 687.085938 353.070312 687.023438 351.746094 686.898438 351.136719 C 686.804688 350.691406 686.648438 350.390625 686.441406 350.214844 C 686.238281 350.039062 685.957031 349.957031 685.59375 349.957031 C 685.210938 349.957031 684.738281 350.058594 684.1875 350.265625 L 683.898438 349.519531 L 689.609375 347.203125 Z M 705.019531 347.203125 C 707.886719 347.203125 710.191406 348.289062 711.929688 350.472656 C 713.40625 352.335938 714.140625 354.476562 714.140625 356.886719 C 714.140625 358.582031 713.738281 360.300781 712.921875 362.035156 C 712.105469 363.773438 710.988281 365.089844 709.558594 365.96875 C 708.132812 366.847656 706.539062 367.292969 704.792969 367.292969 C 701.9375 367.292969 699.671875 366.152344 697.984375 363.878906 C 696.570312 361.964844 695.855469 359.8125 695.855469 357.421875 C 695.855469 355.6875 696.289062 353.957031 697.148438 352.242188 C 698.007812 350.523438 699.144531 349.253906 700.550781 348.433594 C 701.957031 347.617188 703.449219 347.203125 705.019531 347.203125 M 704.378906 348.550781 C 703.644531 348.550781 702.910156 348.765625 702.175781 349.199219 C 701.441406 349.636719 700.839844 350.402344 700.386719 351.488281 C 699.929688 352.574219 699.703125 353.980469 699.703125 355.6875 C 699.703125 358.449219 700.25 360.828125 701.347656 362.824219 C 702.445312 364.820312 703.890625 365.824219 705.683594 365.824219 C 707.015625 365.824219 708.121094 365.273438 708.992188 364.167969 C 709.859375 363.0625 710.292969 361.167969 710.292969 358.480469 C 710.292969 355.117188 709.570312 352.46875 708.121094 350.535156 C 707.140625 349.210938 705.898438 348.550781 704.378906 348.550781 Z M 722.457031 351.21875 C 724.683594 348.539062 726.792969 347.203125 728.808594 347.203125 C 729.84375 347.203125 730.734375 347.464844 731.476562 347.980469 C 732.222656 348.496094 732.8125 349.34375 733.257812 350.535156 C 733.558594 351.363281 733.710938 352.632812 733.710938 354.339844 L 733.710938 362.429688 C 733.710938 363.628906 733.804688 364.445312 734 364.871094 C 734.15625 365.210938 734.394531 365.480469 734.734375 365.675781 C 735.078125 365.875 735.699219 365.96875 736.609375 365.96875 L 736.609375 366.710938 L 727.238281 366.710938 L 727.238281 365.96875 L 727.628906 365.96875 C 728.507812 365.96875 729.128906 365.832031 729.480469 365.5625 C 729.832031 365.292969 730.082031 364.902344 730.214844 364.375 C 730.269531 364.167969 730.296875 363.515625 730.296875 362.429688 L 730.296875 354.671875 C 730.296875 352.945312 730.070312 351.695312 729.625 350.917969 C 729.179688 350.140625 728.425781 349.75 727.359375 349.75 C 725.714844 349.75 724.082031 350.648438 722.457031 352.4375 L 722.457031 362.429688 C 722.457031 363.710938 722.53125 364.507812 722.6875 364.808594 C 722.882812 365.210938 723.140625 365.5 723.484375 365.6875 C 723.824219 365.875 724.507812 365.96875 725.539062 365.96875 L 725.539062 366.710938 L 716.167969 366.710938 L 716.167969 365.96875 L 716.582031 365.96875 C 717.546875 365.96875 718.195312 365.71875 718.539062 365.234375 C 718.878906 364.746094 719.046875 363.804688 719.046875 362.429688 L 719.046875 355.394531 C 719.046875 353.121094 718.992188 351.734375 718.890625 351.238281 C 718.785156 350.742188 718.632812 350.402344 718.414062 350.226562 C 718.195312 350.050781 717.917969 349.957031 717.554688 349.957031 C 717.171875 349.957031 716.707031 350.058594 716.167969 350.265625 L 715.859375 349.519531 L 721.570312 347.203125 L 722.457031 347.203125 Z M 750.363281 347.203125 L 750.363281 353.660156 L 749.683594 353.660156 C 749.15625 351.632812 748.480469 350.253906 747.664062 349.519531 C 746.847656 348.785156 745.804688 348.425781 744.53125 348.425781 C 743.570312 348.425781 742.78125 348.683594 742.195312 349.191406 C 741.605469 349.695312 741.304688 350.265625 741.304688 350.886719 C 741.304688 351.664062 741.519531 352.324219 741.964844 352.871094 C 742.390625 353.441406 743.257812 354.042969 744.574219 354.671875 L 747.59375 356.140625 C 750.394531 357.507812 751.792969 359.304688 751.792969 361.539062 C 751.792969 363.265625 751.140625 364.652344 749.835938 365.707031 C 748.535156 366.761719 747.074219 367.292969 745.460938 367.292969 C 744.304688 367.292969 742.980469 367.085938 741.488281 366.671875 C 741.035156 366.535156 740.664062 366.464844 740.371094 366.464844 C 740.050781 366.464844 739.804688 366.640625 739.628906 367 L 738.945312 367 L 738.945312 360.238281 L 739.628906 360.238281 C 740.011719 362.171875 740.753906 363.621094 741.839844 364.601562 C 742.929688 365.585938 744.148438 366.070312 745.503906 366.070312 C 746.453125 366.070312 747.230469 365.792969 747.832031 365.234375 C 748.429688 364.675781 748.730469 364 748.730469 363.214844 C 748.730469 362.265625 748.398438 361.46875 747.726562 360.816406 C 747.054688 360.164062 745.71875 359.347656 743.722656 358.355469 C 741.726562 357.363281 740.414062 356.460938 739.792969 355.664062 C 739.171875 354.878906 738.863281 353.886719 738.863281 352.6875 C 738.863281 351.125 739.402344 349.820312 740.464844 348.777344 C 741.53125 347.730469 742.917969 347.203125 744.613281 347.203125 C 745.359375 347.203125 746.257812 347.359375 747.324219 347.679688 C 748.027344 347.886719 748.492188 347.992188 748.730469 347.992188 C 748.949219 347.992188 749.125 347.9375 749.246094 347.847656 C 749.371094 347.753906 749.515625 347.535156 749.683594 347.203125 Z M 495.628906 328.957031 "/>
<path fill-rule="nonzero" fill="rgb(0%, 0%, 0%)" fill-opacity="1" d="M 1380.125 338.660156 L 1387.738281 338.660156 L 1404.886719 359.699219 L 1404.886719 343.523438 C 1404.886719 341.796875 1404.691406 340.71875 1404.308594 340.296875 C 1403.800781 339.714844 1402.992188 339.425781 1401.886719 339.425781 L 1400.914062 339.425781 L 1400.914062 338.660156 L 1410.679688 338.660156 L 1410.679688 339.425781 L 1409.6875 339.425781 C 1408.496094 339.425781 1407.660156 339.789062 1407.160156 340.503906 C 1406.863281 340.945312 1406.707031 341.949219 1406.707031 343.523438 L 1406.707031 367.167969 L 1405.960938 367.167969 L 1387.46875 344.578125 L 1387.46875 361.851562 C 1387.46875 363.578125 1387.65625 364.652344 1388.027344 365.078125 C 1388.554688 365.65625 1389.359375 365.945312 1390.445312 365.945312 L 1391.441406 365.945312 L 1391.441406 366.710938 L 1381.675781 366.710938 L 1381.675781 365.945312 L 1382.648438 365.945312 C 1383.847656 365.945312 1384.695312 365.585938 1385.191406 364.871094 C 1385.492188 364.425781 1385.648438 363.421875 1385.648438 361.851562 L 1385.648438 342.34375 C 1384.832031 341.390625 1384.21875 340.761719 1383.796875 340.460938 C 1383.371094 340.160156 1382.761719 339.871094 1381.945312 339.613281 C 1381.542969 339.488281 1380.941406 339.425781 1380.125 339.425781 Z M 1415.789062 354.898438 C 1415.777344 357.714844 1416.460938 359.917969 1417.835938 361.519531 C 1419.210938 363.121094 1420.835938 363.917969 1422.699219 363.917969 C 1423.9375 363.917969 1425.015625 363.578125 1425.933594 362.894531 C 1426.855469 362.210938 1427.621094 361.042969 1428.242188 359.390625 L 1428.882812 359.800781 C 1428.59375 361.695312 1427.753906 363.414062 1426.359375 364.964844 C 1424.960938 366.515625 1423.226562 367.292969 1421.125 367.292969 C 1418.851562 367.292969 1416.90625 366.402344 1415.28125 364.632812 C 1413.65625 362.863281 1412.851562 360.476562 1412.851562 357.484375 C 1412.851562 354.25 1413.679688 351.714844 1415.34375 349.902344 C 1417.007812 348.09375 1419.085938 347.183594 1421.601562 347.183594 C 1423.722656 347.183594 1425.46875 347.886719 1426.835938 349.285156 C 1428.199219 350.679688 1428.882812 352.550781 1428.882812 354.898438 L 1415.789062 354.898438 M 1415.789062 353.699219 L 1424.558594 353.699219 C 1424.488281 352.488281 1424.34375 351.632812 1424.125 351.136719 C 1423.785156 350.359375 1423.265625 349.757812 1422.582031 349.316406 C 1421.902344 348.871094 1421.1875 348.652344 1420.441406 348.652344 C 1419.292969 348.652344 1418.269531 349.097656 1417.371094 349.988281 C 1416.472656 350.875 1415.945312 352.117188 1415.789062 353.699219 Z M 1430.351562 347.761719 L 1438.296875 347.761719 L 1438.296875 348.527344 C 1437.5625 348.582031 1437.085938 348.714844 1436.859375 348.921875 C 1436.628906 349.128906 1436.515625 349.429688 1436.515625 349.8125 C 1436.515625 350.234375 1436.628906 350.753906 1436.867188 351.363281 L 1440.921875 362.265625 L 1444.996094 353.390625 L 1443.921875 350.597656 C 1443.589844 349.769531 1443.15625 349.199219 1442.617188 348.878906 C 1442.320312 348.683594 1441.75 348.570312 1440.921875 348.527344 L 1440.921875 347.761719 L 1449.941406 347.761719 L 1449.941406 348.527344 C 1448.949219 348.570312 1448.246094 348.746094 1447.832031 349.066406 C 1447.550781 349.285156 1447.417969 349.636719 1447.417969 350.121094 C 1447.417969 350.402344 1447.46875 350.679688 1447.582031 350.96875 L 1451.886719 361.851562 L 1455.878906 351.363281 C 1456.15625 350.617188 1456.292969 350.027344 1456.292969 349.582031 C 1456.292969 349.324219 1456.15625 349.085938 1455.890625 348.878906 C 1455.621094 348.671875 1455.09375 348.558594 1454.304688 348.527344 L 1454.304688 347.761719 L 1460.285156 347.761719 L 1460.285156 348.527344 C 1459.085938 348.703125 1458.207031 349.519531 1457.636719 350.96875 L 1451.308594 367.292969 L 1450.457031 367.292969 L 1445.722656 355.191406 L 1440.199219 367.292969 L 1439.433594 367.292969 L 1433.351562 351.363281 C 1432.949219 350.359375 1432.554688 349.675781 1432.171875 349.324219 C 1431.789062 348.972656 1431.179688 348.703125 1430.351562 348.527344 Z M 1478.136719 347.203125 L 1478.136719 351.464844 C 1479.71875 348.621094 1481.355469 347.203125 1483.019531 347.203125 C 1483.773438 347.203125 1484.40625 347.433594 1484.902344 347.898438 C 1485.398438 348.363281 1485.648438 348.890625 1485.648438 349.5 C 1485.648438 350.039062 1485.472656 350.492188 1485.109375 350.867188 C 1484.746094 351.238281 1484.324219 351.425781 1483.828125 351.425781 C 1483.339844 351.425781 1482.800781 351.1875 1482.203125 350.710938 C 1481.601562 350.234375 1481.15625 349.996094 1480.867188 349.996094 C 1480.621094 349.996094 1480.351562 350.132812 1480.0625 350.410156 C 1479.441406 350.980469 1478.800781 351.910156 1478.136719 353.203125 L 1478.136719 362.285156 C 1478.136719 363.328125 1478.273438 364.125 1478.53125 364.664062 C 1478.707031 365.035156 1479.027344 365.347656 1479.480469 365.59375 C 1479.9375 365.84375 1480.589844 365.96875 1481.449219 365.96875 L 1481.449219 366.710938 L 1471.746094 366.710938 L 1471.746094 365.96875 C 1472.707031 365.96875 1473.429688 365.8125 1473.898438 365.511719 C 1474.238281 365.292969 1474.484375 364.941406 1474.621094 364.457031 C 1474.691406 364.21875 1474.722656 363.558594 1474.722656 362.449219 L 1474.722656 355.105469 C 1474.722656 352.902344 1474.683594 351.589844 1474.589844 351.164062 C 1474.496094 350.742188 1474.332031 350.441406 1474.09375 350.246094 C 1473.855469 350.050781 1473.554688 349.957031 1473.195312 349.957031 C 1472.769531 349.957031 1472.28125 350.058594 1471.746094 350.265625 L 1471.539062 349.519531 L 1477.269531 347.203125 Z M 1489.886719 354.898438 C 1489.878906 357.714844 1490.558594 359.917969 1491.933594 361.519531 C 1493.3125 363.121094 1494.933594 363.917969 1496.796875 363.917969 C 1498.039062 363.917969 1499.113281 363.578125 1500.035156 362.894531 C 1500.953125 362.210938 1501.71875 361.042969 1502.339844 359.390625 L 1502.980469 359.800781 C 1502.691406 361.695312 1501.855469 363.414062 1500.457031 364.964844 C 1499.0625 366.515625 1497.324219 367.292969 1495.222656 367.292969 C 1492.949219 367.292969 1491.003906 366.402344 1489.378906 364.632812 C 1487.757812 362.863281 1486.949219 360.476562 1486.949219 357.484375 C 1486.949219 354.25 1487.777344 351.714844 1489.441406 349.902344 C 1491.109375 348.09375 1493.1875 347.183594 1495.699219 347.183594 C 1497.820312 347.183594 1499.570312 347.886719 1500.933594 349.285156 C 1502.300781 350.679688 1502.980469 352.550781 1502.980469 354.898438 L 1489.886719 354.898438 M 1489.886719 353.699219 L 1498.660156 353.699219 C 1498.585938 352.488281 1498.441406 351.632812 1498.222656 351.136719 C 1497.882812 350.359375 1497.367188 349.757812 1496.683594 349.316406 C 1496 348.871094 1495.285156 348.652344 1494.542969 348.652344 C 1493.394531 348.652344 1492.371094 349.097656 1491.46875 349.988281 C 1490.570312 350.875 1490.042969 352.117188 1489.886719 353.699219 Z M 1521.601562 359.511719 C 1521.09375 362.003906 1520.089844 363.929688 1518.601562 365.273438 C 1517.109375 366.617188 1515.464844 367.292969 1513.65625 367.292969 C 1511.503906 367.292969 1509.632812 366.390625 1508.03125 364.582031 C 1506.425781 362.769531 1505.628906 360.332031 1505.628906 357.257812 C 1505.628906 354.277344 1506.519531 351.859375 1508.289062 349.996094 C 1510.058594 348.136719 1512.1875 347.203125 1514.667969 347.203125 C 1516.53125 347.203125 1518.0625 347.699219 1519.261719 348.683594 C 1520.460938 349.667969 1521.0625 350.691406 1521.0625 351.753906 C 1521.0625 352.28125 1520.898438 352.707031 1520.554688 353.027344 C 1520.214844 353.347656 1519.75 353.515625 1519.136719 353.515625 C 1518.320312 353.515625 1517.710938 353.253906 1517.296875 352.726562 C 1517.058594 352.4375 1516.902344 351.890625 1516.832031 351.074219 C 1516.757812 350.253906 1516.480469 349.636719 1515.992188 349.210938 C 1515.507812 348.796875 1514.847656 348.589844 1513.988281 348.589844 C 1512.613281 348.589844 1511.496094 349.097656 1510.65625 350.121094 C 1509.539062 351.476562 1508.980469 353.253906 1508.980469 355.480469 C 1508.980469 357.746094 1509.539062 359.742188 1510.644531 361.46875 C 1511.753906 363.195312 1513.253906 364.0625 1515.144531 364.0625 C 1516.5 364.0625 1517.710938 363.597656 1518.785156 362.679688 C 1519.542969 362.046875 1520.285156 360.886719 1521 359.222656 Z M 1533.578125 347.203125 C 1536.441406 347.203125 1538.75 348.289062 1540.488281 350.472656 C 1541.964844 352.335938 1542.699219 354.476562 1542.699219 356.886719 C 1542.699219 358.582031 1542.296875 360.300781 1541.480469 362.035156 C 1540.664062 363.773438 1539.546875 365.089844 1538.117188 365.96875 C 1536.691406 366.847656 1535.097656 367.292969 1533.351562 367.292969 C 1530.496094 367.292969 1528.230469 366.152344 1526.542969 363.878906 C 1525.125 361.964844 1524.414062 359.8125 1524.414062 357.421875 C 1524.414062 355.6875 1524.847656 353.957031 1525.707031 352.242188 C 1526.566406 350.523438 1527.703125 349.253906 1529.109375 348.433594 C 1530.515625 347.617188 1532.003906 347.203125 1533.578125 347.203125 M 1532.9375 348.550781 C 1532.203125 348.550781 1531.46875 348.765625 1530.734375 349.199219 C 1530 349.636719 1529.398438 350.402344 1528.945312 351.488281 C 1528.488281 352.574219 1528.261719 353.980469 1528.261719 355.6875 C 1528.261719 358.449219 1528.808594 360.828125 1529.90625 362.824219 C 1531 364.820312 1532.449219 365.824219 1534.238281 365.824219 C 1535.574219 365.824219 1536.679688 365.273438 1537.550781 364.167969 C 1538.417969 363.0625 1538.851562 361.167969 1538.851562 358.480469 C 1538.851562 355.117188 1538.128906 352.46875 1536.679688 350.535156 C 1535.699219 349.210938 1534.457031 348.550781 1532.9375 348.550781 Z M 1544.519531 347.761719 L 1553.4375 347.761719 L 1553.4375 348.527344 L 1552.855469 348.527344 C 1552.320312 348.527344 1551.90625 348.664062 1551.625 348.921875 C 1551.347656 349.179688 1551.203125 349.53125 1551.203125 349.976562 C 1551.203125 350.460938 1551.347656 351.03125 1551.636719 351.695312 L 1556.042969 362.160156 L 1560.46875 351.300781 C 1560.789062 350.523438 1560.945312 349.945312 1560.945312 349.542969 C 1560.945312 349.34375 1560.894531 349.191406 1560.78125 349.066406 C 1560.625 348.859375 1560.4375 348.714844 1560.199219 348.640625 C 1559.964844 348.570312 1559.488281 348.527344 1558.773438 348.527344 L 1558.773438 347.761719 L 1564.957031 347.761719 L 1564.957031 348.527344 C 1564.246094 348.582031 1563.75 348.726562 1563.46875 348.960938 C 1562.984375 349.375 1562.550781 350.070312 1562.167969 351.03125 L 1555.441406 367.292969 L 1554.59375 367.292969 L 1547.832031 351.300781 C 1547.53125 350.554688 1547.242188 350.019531 1546.960938 349.695312 C 1546.683594 349.375 1546.332031 349.097656 1545.90625 348.878906 C 1545.667969 348.757812 1545.214844 348.640625 1544.519531 348.527344 Z M 1569.863281 354.898438 C 1569.851562 357.714844 1570.535156 359.917969 1571.910156 361.519531 C 1573.285156 363.121094 1574.910156 363.917969 1576.769531 363.917969 C 1578.011719 363.917969 1579.085938 363.578125 1580.007812 362.894531 C 1580.929688 362.210938 1581.695312 361.042969 1582.316406 359.390625 L 1582.957031 359.800781 C 1582.667969 361.695312 1581.828125 363.414062 1580.433594 364.964844 C 1579.035156 366.515625 1577.296875 367.292969 1575.199219 367.292969 C 1572.921875 367.292969 1570.980469 366.402344 1569.355469 364.632812 C 1567.730469 362.863281 1566.925781 360.476562 1566.925781 357.484375 C 1566.925781 354.25 1567.75 351.714844 1569.417969 349.902344 C 1571.082031 348.09375 1573.160156 347.183594 1575.675781 347.183594 C 1577.792969 347.183594 1579.542969 347.886719 1580.90625 349.285156 C 1582.273438 350.679688 1582.957031 352.550781 1582.957031 354.898438 L 1569.863281 354.898438 M 1569.863281 353.699219 L 1578.632812 353.699219 C 1578.558594 352.488281 1578.414062 351.632812 1578.199219 351.136719 C 1577.855469 350.359375 1577.339844 349.757812 1576.65625 349.316406 C 1575.972656 348.871094 1575.261719 348.652344 1574.515625 348.652344 C 1573.367188 348.652344 1572.34375 349.097656 1571.445312 349.988281 C 1570.542969 350.875 1570.015625 352.117188 1569.863281 353.699219 Z M 1591.023438 347.203125 L 1591.023438 351.464844 C 1592.605469 348.621094 1594.242188 347.203125 1595.90625 347.203125 C 1596.660156 347.203125 1597.292969 347.433594 1597.789062 347.898438 C 1598.285156 348.363281 1598.53125 348.890625 1598.53125 349.5 C 1598.53125 350.039062 1598.355469 350.492188 1597.996094 350.867188 C 1597.632812 351.238281 1597.210938 351.425781 1596.710938 351.425781 C 1596.226562 351.425781 1595.6875 351.1875 1595.089844 350.710938 C 1594.488281 350.234375 1594.042969 349.996094 1593.753906 349.996094 C 1593.507812 349.996094 1593.238281 350.132812 1592.949219 350.410156 C 1592.328125 350.980469 1591.6875 351.910156 1591.023438 353.203125 L 1591.023438 362.285156 C 1591.023438 363.328125 1591.160156 364.125 1591.417969 364.664062 C 1591.59375 365.035156 1591.914062 365.347656 1592.367188 365.59375 C 1592.824219 365.84375 1593.476562 365.96875 1594.332031 365.96875 L 1594.332031 366.710938 L 1584.632812 366.710938 L 1584.632812 365.96875 C 1585.59375 365.96875 1586.316406 365.8125 1586.78125 365.511719 C 1587.125 365.292969 1587.371094 364.941406 1587.507812 364.457031 C 1587.578125 364.21875 1587.609375 363.558594 1587.609375 362.449219 L 1587.609375 355.105469 C 1587.609375 352.902344 1587.570312 351.589844 1587.476562 351.164062 C 1587.382812 350.742188 1587.21875 350.441406 1586.980469 350.246094 C 1586.742188 350.050781 1586.441406 349.957031 1586.078125 349.957031 C 1585.65625 349.957031 1585.167969 350.058594 1584.632812 350.265625 L 1584.425781 349.519531 L 1590.15625 347.203125 Z M 1604.40625 337.296875 C 1604.988281 337.296875 1605.484375 337.503906 1605.886719 337.90625 C 1606.289062 338.308594 1606.496094 338.804688 1606.496094 339.386719 C 1606.496094 339.964844 1606.289062 340.460938 1605.886719 340.875 C 1605.484375 341.289062 1604.988281 341.496094 1604.40625 341.496094 C 1603.828125 341.496094 1603.332031 341.289062 1602.917969 340.875 C 1602.503906 340.460938 1602.296875 339.964844 1602.296875 339.386719 C 1602.296875 338.804688 1602.503906 338.308594 1602.910156 337.90625 C 1603.3125 337.503906 1603.820312 337.296875 1604.40625 337.296875 M 1606.125 347.203125 L 1606.125 362.429688 C 1606.125 363.621094 1606.207031 364.40625 1606.382812 364.796875 C 1606.558594 365.191406 1606.808594 365.480469 1607.148438 365.675781 C 1607.492188 365.875 1608.101562 365.96875 1609 365.96875 L 1609 366.710938 L 1599.796875 366.710938 L 1599.796875 365.96875 C 1600.714844 365.96875 1601.335938 365.875 1601.65625 365.699219 C 1601.976562 365.523438 1602.226562 365.222656 1602.410156 364.808594 C 1602.597656 364.394531 1602.691406 363.597656 1602.691406 362.429688 L 1602.691406 355.128906 C 1602.691406 353.070312 1602.628906 351.746094 1602.503906 351.136719 C 1602.410156 350.691406 1602.257812 350.390625 1602.050781 350.214844 C 1601.84375 350.039062 1601.5625 349.957031 1601.203125 349.957031 C 1600.820312 349.957031 1600.34375 350.058594 1599.796875 350.265625 L 1599.503906 349.519531 L 1605.214844 347.203125 Z M 1614.542969 354.898438 C 1614.535156 357.714844 1615.214844 359.917969 1616.59375 361.519531 C 1617.96875 363.121094 1619.59375 363.917969 1621.453125 363.917969 C 1622.695312 363.917969 1623.769531 363.578125 1624.691406 362.894531 C 1625.613281 362.210938 1626.378906 361.042969 1626.996094 359.390625 L 1627.640625 359.800781 C 1627.347656 361.695312 1626.511719 363.414062 1625.117188 364.964844 C 1623.71875 366.515625 1621.980469 367.292969 1619.882812 367.292969 C 1617.605469 367.292969 1615.660156 366.402344 1614.039062 364.632812 C 1612.414062 362.863281 1611.605469 360.476562 1611.605469 357.484375 C 1611.605469 354.25 1612.433594 351.714844 1614.101562 349.902344 C 1615.765625 348.09375 1617.84375 347.183594 1620.355469 347.183594 C 1622.476562 347.183594 1624.226562 347.886719 1625.589844 349.285156 C 1626.957031 350.679688 1627.640625 352.550781 1627.640625 354.898438 L 1614.542969 354.898438 M 1614.542969 353.699219 L 1623.316406 353.699219 C 1623.242188 352.488281 1623.097656 351.632812 1622.882812 351.136719 C 1622.539062 350.359375 1622.023438 349.757812 1621.339844 349.316406 C 1620.65625 348.871094 1619.945312 348.652344 1619.199219 348.652344 C 1618.050781 348.652344 1617.027344 349.097656 1616.128906 349.988281 C 1615.226562 350.875 1614.699219 352.117188 1614.542969 353.699219 Z M 1642.410156 347.203125 L 1642.410156 353.660156 L 1641.726562 353.660156 C 1641.199219 351.632812 1640.527344 350.253906 1639.710938 349.519531 C 1638.890625 348.785156 1637.847656 348.425781 1636.574219 348.425781 C 1635.613281 348.425781 1634.828125 348.683594 1634.238281 349.191406 C 1633.648438 349.695312 1633.347656 350.265625 1633.347656 350.886719 C 1633.347656 351.664062 1633.566406 352.324219 1634.011719 352.871094 C 1634.433594 353.441406 1635.304688 354.042969 1636.617188 354.671875 L 1639.636719 356.140625 C 1642.441406 357.507812 1643.835938 359.304688 1643.835938 361.539062 C 1643.835938 363.265625 1643.183594 364.652344 1641.882812 365.707031 C 1640.578125 366.761719 1639.121094 367.292969 1637.507812 367.292969 C 1636.347656 367.292969 1635.023438 367.085938 1633.535156 366.671875 C 1633.078125 366.535156 1632.707031 366.464844 1632.417969 366.464844 C 1632.097656 366.464844 1631.847656 366.640625 1631.671875 367 L 1630.992188 367 L 1630.992188 360.238281 L 1631.671875 360.238281 C 1632.054688 362.171875 1632.800781 363.621094 1633.886719 364.601562 C 1634.972656 365.585938 1636.191406 366.070312 1637.546875 366.070312 C 1638.5 366.070312 1639.273438 365.792969 1639.875 365.234375 C 1640.476562 364.675781 1640.773438 364 1640.773438 363.214844 C 1640.773438 362.265625 1640.445312 361.46875 1639.773438 360.816406 C 1639.097656 360.164062 1637.765625 359.347656 1635.769531 358.355469 C 1633.773438 357.363281 1632.460938 356.460938 1631.839844 355.664062 C 1631.21875 354.878906 1630.90625 353.886719 1630.90625 352.6875 C 1630.90625 351.125 1631.445312 349.820312 1632.511719 348.777344 C 1633.574219 347.730469 1634.960938 347.203125 1636.660156 347.203125 C 1637.402344 347.203125 1638.304688 347.359375 1639.367188 347.679688 C 1640.070312 347.886719 1640.535156 347.992188 1640.773438 347.992188 C 1640.992188 347.992188 1641.167969 347.9375 1641.292969 347.847656 C 1641.417969 347.753906 1641.5625 347.535156 1641.726562 347.203125 Z M 1380.683594 328.957031 "/>
</svg>
