<?xml version="1.0" encoding="UTF-8"?>
<svg xmlns="http://www.w3.org/2000/svg" xmlns:xlink="http://www.w3.org/1999/xlink" width="944" height="472" viewBox="0 0 944 472">
<path fill-rule="nonzero" fill="rgb(100%, 100%, 100%)" fill-opacity="1" d="M 0 265.640625 L 0 206.359375 L 944 206.359375 L 944 265.640625 Z M 0 265.640625 "/>
<path fill="none" stroke-width="1" stroke-linecap="butt" stroke-linejoin="miter" stroke="rgb(60%, 60%, 60%)" stroke-opacity="1" stroke-miterlimit="4" d="M 358.023824 -14.938176 C 346.553606 -14.141172 333.907807 -13.39398 322.278188 -12.998799 C 312.999732 -12.683318 303.206544 -12.756377 293.58936 -13.061895 " transform="matrix(1.17628, 0, 0, 1.17628, 8.469216, 257.173039)"/>
<path fill-rule="nonzero" fill="rgb(60%, 60%, 60%)" fill-opacity="1" stroke-width="1" stroke-linecap="butt" stroke-linejoin="miter" stroke="rgb(60%, 60%, 60%)" stroke-opacity="1" stroke-miterlimit="4" d="M 293.456526 -10.265739 L 285.566185 -13.367413 L 293.669061 -15.861372 Z M 293.456526 -10.265739 " transform="matrix(1.17628, 0, 0, 1.17628, 8.469216, 257.173039)"/>
<path fill="none" stroke-width="1.1" stroke-linecap="butt" stroke-linejoin="miter" stroke="rgb(0%, 0%, 0%)" stroke-opacity="1" stroke-miterlimit="4" d="M 432.759566 -16.000848 C 465.41681 -16.000848 473.579461 -16.000848 506.236705 -16.000848 " transform="matrix(1.17628, 0, 0, 1.17628, 8.469216, 257.173039)"/>
<path fill="none" stroke-width="1.1" stroke-linecap="butt" stroke-linejoin="miter" stroke="rgb(95.686275%, 50.588235%, 32.54902%)" stroke-opacity="1" stroke-miterlimit="4" d="M 432.759566 -18 C 465.41681 -18 473.579461 -18 506.236705 -18 " transform="matrix(1.17628, 0, 0, 1.17628, 8.469216, 257.173039)"/>
<path fill="none" stroke-width="1.1" stroke-linecap="butt" stroke-linejoin="miter" stroke="rgb(0%, 0%, 0%)" stroke-opacity="1" stroke-miterlimit="4" d="M 432.759566 -19.999152 C 465.41681 -19.999152 473.579461 -19.999152 506.236705 -19.999152 " transform="matrix(1.17628, 0, 0, 1.17628, 8.469216, 257.173039)"/>
<path fill="none" stroke-width="1" stroke-linecap="butt" stroke-linejoin="miter" stroke="rgb(60%, 60%, 60%)" stroke-opacity="1" stroke-miterlimit="4" d="M 433.490153 -14.938176 C 444.96037 -14.141172 457.60949 -13.39398 469.235788 -12.998799 C 478.583982 -12.683318 488.443588 -12.749735 498.130509 -13.048612 " transform="matrix(1.17628, 0, 0, 1.17628, 8.469216, 257.173039)"/>
<path fill-rule="nonzero" fill="rgb(60%, 60%, 60%)" fill-opacity="1" stroke-width="1" stroke-linecap="butt" stroke-linejoin="miter" stroke="rgb(60%, 60%, 60%)" stroke-opacity="1" stroke-miterlimit="4" d="M 498.113905 -15.848089 L 506.213459 -13.350809 L 498.323118 -10.252456 Z M 498.113905 -15.848089 " transform="matrix(1.17628, 0, 0, 1.17628, 8.469216, 257.173039)"/>
<path fill="none" stroke-width="1.1" stroke-linecap="butt" stroke-linejoin="miter" stroke="rgb(0%, 0%, 0%)" stroke-opacity="1" stroke-miterlimit="4" d="M 98.492711 -16.000848 C 131.153276 -16.000848 139.319248 -16.000848 171.983134 -16.000848 " transform="matrix(1.17628, 0, 0, 1.17628, 8.469216, 257.173039)"/>
<path fill="none" stroke-width="1.1" stroke-linecap="butt" stroke-linejoin="miter" stroke="rgb(95.686275%, 50.588235%, 32.54902%)" stroke-opacity="1" stroke-miterlimit="4" d="M 98.492711 -18 C 131.153276 -18 139.319248 -18 171.983134 -18 " transform="matrix(1.17628, 0, 0, 1.17628, 8.469216, 257.173039)"/>
<path fill="none" stroke-width="1.1" stroke-linecap="butt" stroke-linejoin="miter" stroke="rgb(0%, 0%, 0%)" stroke-opacity="1" stroke-miterlimit="4" d="M 98.492711 -19.999152 C 131.153276 -19.999152 139.319248 -19.999152 171.983134 -19.999152 " transform="matrix(1.17628, 0, 0, 1.17628, 8.469216, 257.173039)"/>
<path fill="none" stroke-width="1" stroke-linecap="butt" stroke-linejoin="miter" stroke="rgb(60%, 60%, 60%)" stroke-opacity="1" stroke-miterlimit="4" d="M 99.196731 -14.599449 C 110.925975 -13.935279 123.392448 -13.337526 134.982217 -12.998799 C 144.263994 -12.72981 154.060503 -12.826115 163.677687 -13.141596 " transform="matrix(1.17628, 0, 0, 1.17628, 8.469216, 257.173039)"/>
<path fill-rule="nonzero" fill="rgb(60%, 60%, 60%)" fill-opacity="1" stroke-width="1" stroke-linecap="butt" stroke-linejoin="miter" stroke="rgb(60%, 60%, 60%)" stroke-opacity="1" stroke-miterlimit="4" d="M 163.594665 -15.941073 L 171.697541 -13.457076 L 163.813841 -10.345439 Z M 163.594665 -15.941073 " transform="matrix(1.17628, 0, 0, 1.17628, 8.469216, 257.173039)"/>
<path fill="none" stroke-width="1.1" stroke-linecap="butt" stroke-linejoin="miter" stroke="rgb(0%, 0%, 0%)" stroke-opacity="1" stroke-miterlimit="4" d="M 285.280592 -16.000848 C 312.196086 -16.000848 322.474119 -16.000848 343.541594 -16.000848 " transform="matrix(1.17628, 0, 0, 1.17628, 8.469216, 257.173039)"/>
<path fill="none" stroke-width="1.1" stroke-linecap="butt" stroke-linejoin="miter" stroke="rgb(95.686275%, 50.588235%, 32.54902%)" stroke-opacity="1" stroke-miterlimit="4" d="M 285.280592 -18 C 312.196086 -18 322.474119 -18 343.541594 -18 " transform="matrix(1.17628, 0, 0, 1.17628, 8.469216, 257.173039)"/>
<path fill="none" stroke-width="1.1" stroke-linecap="butt" stroke-linejoin="miter" stroke="rgb(0%, 0%, 0%)" stroke-opacity="1" stroke-miterlimit="4" d="M 285.280592 -19.999152 C 312.196086 -19.999152 322.474119 -19.999152 343.541594 -19.999152 " transform="matrix(1.17628, 0, 0, 1.17628, 8.469216, 257.173039)"/>
<path fill-rule="nonzero" fill="rgb(0%, 0%, 0%)" fill-opacity="1" stroke-width="1.1" stroke-linecap="butt" stroke-linejoin="miter" stroke="rgb(0%, 0%, 0%)" stroke-opacity="1" stroke-miterlimit="4" d="M 343.75745 -23.250265 L 358.757732 -18 L 343.75745 -12.749735 Z M 343.75745 -23.250265 " transform="matrix(1.17628, 0, 0, 1.17628, 8.469216, 257.173039)"/>
<path fill="none" stroke-width="1.1" stroke-linecap="butt" stroke-linejoin="miter" stroke="rgb(0%, 0%, 0%)" stroke-opacity="1" stroke-miterlimit="4" d="M 622.170919 -16.000848 C 649.086413 -16.000848 659.364445 -16.000848 680.431921 -16.000848 " transform="matrix(1.17628, 0, 0, 1.17628, 8.469216, 257.173039)"/>
<path fill="none" stroke-width="1.1" stroke-linecap="butt" stroke-linejoin="miter" stroke="rgb(95.686275%, 50.588235%, 32.54902%)" stroke-opacity="1" stroke-miterlimit="4" d="M 622.170919 -18 C 649.086413 -18 659.364445 -18 680.431921 -18 " transform="matrix(1.17628, 0, 0, 1.17628, 8.469216, 257.173039)"/>
<path fill="none" stroke-width="1.1" stroke-linecap="butt" stroke-linejoin="miter" stroke="rgb(0%, 0%, 0%)" stroke-opacity="1" stroke-miterlimit="4" d="M 622.170919 -19.999152 C 649.086413 -19.999152 659.364445 -19.999152 680.431921 -19.999152 " transform="matrix(1.17628, 0, 0, 1.17628, 8.469216, 257.173039)"/>
<path fill-rule="nonzero" fill="rgb(0%, 0%, 0%)" fill-opacity="1" stroke-width="1.1" stroke-linecap="butt" stroke-linejoin="miter" stroke="rgb(0%, 0%, 0%)" stroke-opacity="1" stroke-miterlimit="4" d="M 680.651097 -23.250265 L 695.651379 -18 L 680.651097 -12.749735 Z M 680.651097 -23.250265 " transform="matrix(1.17628, 0, 0, 1.17628, 8.469216, 257.173039)"/>
<path fill-rule="nonzero" fill="rgb(51.372549%, 82.745098%, 83.137255%)" fill-opacity="1" stroke-width="1" stroke-linecap="butt" stroke-linejoin="miter" stroke="rgb(0%, 0%, 0%)" stroke-opacity="1" stroke-miterlimit="4" d="M 433.214522 -35.99901 L 358.299454 -35.99901 L 358.299454 -0.000989975 L 433.214522 -0.000989975 Z M 433.214522 -35.99901 " transform="matrix(1.17628, 0, 0, 1.17628, 8.469216, 257.173039)"/>
<path fill-rule="nonzero" fill="rgb(0%, 0%, 0%)" fill-opacity="1" d="M 445.851562 241.96875 L 445.851562 242.351562 L 439.847656 242.351562 L 439.847656 241.96875 L 440.34375 241.96875 C 440.921875 241.96875 441.339844 241.796875 441.601562 241.457031 C 441.765625 241.242188 441.851562 240.710938 441.851562 239.867188 L 441.851562 230.8125 C 441.851562 230.105469 441.804688 229.632812 441.71875 229.40625 C 441.648438 229.238281 441.503906 229.085938 441.292969 228.960938 C 440.992188 228.796875 440.675781 228.710938 440.34375 228.710938 L 439.847656 228.710938 L 439.847656 228.332031 L 445.851562 228.332031 L 445.851562 228.710938 L 445.347656 228.710938 C 444.773438 228.710938 444.355469 228.882812 444.097656 229.21875 C 443.921875 229.441406 443.835938 229.972656 443.835938 230.8125 L 443.835938 239.867188 C 443.835938 240.582031 443.882812 241.046875 443.96875 241.273438 C 444.039062 241.449219 444.183594 241.597656 444.40625 241.71875 C 444.699219 241.886719 445.015625 241.96875 445.347656 241.96875 Z M 449.789062 234.609375 C 450.898438 233.269531 451.953125 232.601562 452.964844 232.601562 C 453.480469 232.601562 453.925781 232.726562 454.296875 232.992188 C 454.667969 233.246094 454.964844 233.675781 455.183594 234.261719 C 455.335938 234.675781 455.414062 235.316406 455.414062 236.164062 L 455.414062 240.207031 C 455.414062 240.8125 455.460938 241.214844 455.558594 241.429688 C 455.636719 241.601562 455.753906 241.738281 455.925781 241.835938 C 456.09375 241.933594 456.40625 241.976562 456.863281 241.976562 L 456.863281 242.351562 L 452.175781 242.351562 L 452.175781 241.976562 L 452.371094 241.976562 C 452.8125 241.976562 453.121094 241.910156 453.300781 241.777344 C 453.476562 241.640625 453.59375 241.445312 453.664062 241.183594 C 453.691406 241.078125 453.710938 240.753906 453.710938 240.207031 L 453.710938 236.332031 C 453.710938 235.472656 453.59375 234.847656 453.371094 234.457031 C 453.148438 234.066406 452.769531 233.871094 452.238281 233.871094 C 451.417969 233.871094 450.601562 234.324219 449.789062 235.21875 L 449.789062 240.207031 C 449.789062 240.851562 449.828125 241.246094 449.90625 241.398438 C 449.996094 241.601562 450.128906 241.742188 450.300781 241.839844 C 450.46875 241.933594 450.808594 241.976562 451.328125 241.976562 L 451.328125 242.351562 L 446.648438 242.351562 L 446.648438 241.976562 L 446.855469 241.976562 C 447.335938 241.976562 447.664062 241.855469 447.828125 241.609375 C 448 241.367188 448.085938 240.898438 448.085938 240.207031 L 448.085938 236.695312 C 448.085938 235.558594 448.058594 234.863281 448.007812 234.617188 C 447.953125 234.367188 447.875 234.199219 447.769531 234.113281 C 447.664062 234.019531 447.515625 233.976562 447.339844 233.976562 C 447.144531 233.976562 446.914062 234.027344 446.648438 234.128906 L 446.492188 233.757812 L 449.34375 232.601562 L 449.789062 232.601562 Z M 461.320312 233.625 L 461.320312 239.851562 C 461.320312 240.734375 461.410156 241.289062 461.601562 241.523438 C 461.859375 241.828125 462.199219 241.976562 462.628906 241.976562 L 463.488281 241.976562 L 463.488281 242.351562 L 457.832031 242.351562 L 457.832031 241.976562 L 458.257812 241.976562 C 458.53125 241.976562 458.78125 241.910156 459.011719 241.769531 C 459.238281 241.632812 459.394531 241.449219 459.480469 241.210938 C 459.566406 240.980469 459.609375 240.527344 459.609375 239.851562 L 459.609375 233.625 L 457.769531 233.625 L 457.769531 232.878906 L 459.609375 232.878906 L 459.609375 232.261719 C 459.609375 231.316406 459.761719 230.519531 460.0625 229.859375 C 460.367188 229.207031 460.832031 228.675781 461.457031 228.277344 C 462.082031 227.871094 462.78125 227.667969 463.5625 227.667969 C 464.28125 227.667969 464.949219 227.902344 465.554688 228.371094 C 465.953125 228.683594 466.152344 229.03125 466.152344 229.414062 C 466.152344 229.621094 466.066406 229.820312 465.886719 230 C 465.707031 230.183594 465.515625 230.273438 465.308594 230.273438 C 465.144531 230.273438 464.980469 230.21875 464.804688 230.105469 C 464.632812 229.988281 464.414062 229.746094 464.160156 229.371094 C 463.90625 228.992188 463.671875 228.738281 463.457031 228.613281 C 463.242188 228.476562 463.003906 228.414062 462.742188 228.414062 C 462.425781 228.414062 462.15625 228.496094 461.933594 228.667969 C 461.714844 228.835938 461.558594 229.097656 461.460938 229.453125 C 461.363281 229.804688 461.320312 230.726562 461.320312 232.195312 L 461.320312 232.878906 L 463.753906 232.878906 L 463.753906 233.625 Z M 466.257812 236.445312 C 466.253906 237.851562 466.59375 238.953125 467.28125 239.753906 C 467.972656 240.554688 468.78125 240.953125 469.714844 240.953125 C 470.332031 240.953125 470.871094 240.785156 471.332031 240.441406 C 471.789062 240.101562 472.175781 239.519531 472.484375 238.691406 L 472.804688 238.894531 C 472.660156 239.839844 472.242188 240.699219 471.542969 241.476562 C 470.847656 242.253906 469.976562 242.640625 468.925781 242.640625 C 467.792969 242.640625 466.820312 242.199219 466.003906 241.3125 C 465.195312 240.425781 464.792969 239.234375 464.792969 237.738281 C 464.792969 236.121094 465.207031 234.855469 466.039062 233.949219 C 466.871094 233.046875 467.914062 232.589844 469.167969 232.589844 C 470.226562 232.589844 471.101562 232.941406 471.78125 233.636719 C 472.460938 234.339844 472.804688 235.273438 472.804688 236.445312 L 466.257812 236.445312 M 466.257812 235.847656 L 470.640625 235.847656 C 470.609375 235.242188 470.535156 234.816406 470.425781 234.566406 C 470.253906 234.179688 470 233.878906 469.660156 233.65625 C 469.3125 233.4375 468.960938 233.324219 468.585938 233.324219 C 468.011719 233.324219 467.503906 233.546875 467.054688 233.992188 C 466.597656 234.4375 466.335938 235.054688 466.257812 235.847656 Z M 482.105469 238.753906 C 481.851562 240.003906 481.351562 240.957031 480.609375 241.632812 C 479.863281 242.304688 479.039062 242.640625 478.136719 242.640625 C 477.0625 242.640625 476.125 242.1875 475.324219 241.285156 C 474.523438 240.382812 474.128906 239.160156 474.128906 237.625 C 474.128906 236.136719 474.570312 234.925781 475.457031 233.996094 C 476.339844 233.070312 477.40625 232.601562 478.644531 232.601562 C 479.574219 232.601562 480.339844 232.847656 480.9375 233.339844 C 481.539062 233.832031 481.839844 234.347656 481.839844 234.875 C 481.839844 235.136719 481.757812 235.347656 481.585938 235.511719 C 481.417969 235.671875 481.183594 235.75 480.878906 235.75 C 480.46875 235.75 480.167969 235.625 479.957031 235.359375 C 479.839844 235.21875 479.761719 234.941406 479.726562 234.535156 C 479.6875 234.128906 479.546875 233.816406 479.308594 233.601562 C 479.0625 233.398438 478.726562 233.292969 478.300781 233.292969 C 477.613281 233.292969 477.0625 233.550781 476.636719 234.0625 C 476.082031 234.738281 475.800781 235.628906 475.800781 236.734375 C 475.800781 237.867188 476.078125 238.863281 476.632812 239.730469 C 477.1875 240.59375 477.9375 241.027344 478.878906 241.027344 C 479.554688 241.027344 480.167969 240.796875 480.699219 240.332031 C 481.082031 240.015625 481.449219 239.441406 481.808594 238.609375 Z M 486.214844 229.769531 L 486.214844 232.878906 L 488.429688 232.878906 L 488.429688 233.601562 L 486.214844 233.601562 L 486.214844 239.746094 C 486.214844 240.359375 486.304688 240.773438 486.480469 240.984375 C 486.65625 241.203125 486.878906 241.308594 487.15625 241.308594 C 487.386719 241.308594 487.605469 241.234375 487.816406 241.09375 C 488.03125 240.953125 488.199219 240.746094 488.3125 240.464844 L 488.71875 240.464844 C 488.472656 241.144531 488.132812 241.652344 487.691406 241.992188 C 487.25 242.335938 486.796875 242.507812 486.328125 242.507812 C 486.011719 242.507812 485.703125 242.417969 485.398438 242.238281 C 485.097656 242.066406 484.871094 241.8125 484.726562 241.484375 C 484.582031 241.160156 484.507812 240.65625 484.507812 239.96875 L 484.507812 233.601562 L 483.011719 233.601562 L 483.011719 233.261719 C 483.386719 233.109375 483.777344 232.851562 484.171875 232.492188 C 484.570312 232.132812 484.921875 231.699219 485.234375 231.203125 C 485.390625 230.945312 485.613281 230.464844 485.894531 229.769531 Z M 490.9375 236.445312 C 490.933594 237.851562 491.273438 238.953125 491.960938 239.753906 C 492.652344 240.554688 493.460938 240.953125 494.390625 240.953125 C 495.011719 240.953125 495.550781 240.785156 496.007812 240.441406 C 496.46875 240.101562 496.855469 239.519531 497.164062 238.691406 L 497.484375 238.894531 C 497.335938 239.839844 496.917969 240.699219 496.222656 241.476562 C 495.527344 242.253906 494.652344 242.640625 493.605469 242.640625 C 492.472656 242.640625 491.496094 242.199219 490.683594 241.3125 C 489.875 240.425781 489.472656 239.234375 489.472656 237.738281 C 489.472656 236.121094 489.886719 234.855469 490.714844 233.949219 C 491.546875 233.046875 492.589844 232.589844 493.84375 232.589844 C 494.90625 232.589844 495.78125 232.941406 496.460938 233.636719 C 497.140625 234.339844 497.484375 235.273438 497.484375 236.445312 L 490.9375 236.445312 M 490.9375 235.847656 L 495.320312 235.847656 C 495.289062 235.242188 495.214844 234.816406 495.105469 234.566406 C 494.933594 234.179688 494.675781 233.878906 494.335938 233.65625 C 493.992188 233.4375 493.640625 233.324219 493.265625 233.324219 C 492.691406 233.324219 492.183594 233.546875 491.730469 233.992188 C 491.277344 234.4375 491.015625 235.054688 490.9375 235.847656 Z M 505.433594 241.285156 C 504.96875 241.765625 504.519531 242.117188 504.078125 242.324219 C 503.636719 242.535156 503.160156 242.640625 502.648438 242.640625 C 501.621094 242.640625 500.714844 242.207031 499.941406 241.34375 C 499.171875 240.476562 498.785156 239.367188 498.785156 238.007812 C 498.785156 236.652344 499.210938 235.40625 500.066406 234.28125 C 500.921875 233.15625 502.019531 232.589844 503.367188 232.589844 C 504.199219 232.589844 504.886719 232.855469 505.433594 233.386719 L 505.433594 231.640625 C 505.433594 230.558594 505.40625 229.894531 505.355469 229.644531 C 505.304688 229.398438 505.222656 229.226562 505.113281 229.136719 C 505 229.046875 504.863281 229.003906 504.699219 229.003906 C 504.519531 229.003906 504.28125 229.058594 503.988281 229.167969 L 503.851562 228.804688 L 506.675781 227.648438 L 507.136719 227.648438 L 507.136719 238.597656 C 507.136719 239.707031 507.164062 240.382812 507.214844 240.628906 C 507.265625 240.875 507.351562 241.046875 507.464844 241.140625 C 507.578125 241.238281 507.707031 241.285156 507.859375 241.285156 C 508.046875 241.285156 508.296875 241.230469 508.605469 241.109375 L 508.71875 241.472656 L 505.90625 242.640625 L 505.433594 242.640625 L 505.433594 241.285156 M 505.433594 240.5625 L 505.433594 235.683594 C 505.390625 235.214844 505.269531 234.785156 505.0625 234.402344 C 504.855469 234.015625 504.578125 233.722656 504.238281 233.527344 C 503.898438 233.332031 503.5625 233.234375 503.242188 233.234375 C 502.636719 233.234375 502.09375 233.503906 501.621094 234.046875 C 500.992188 234.765625 500.679688 235.8125 500.679688 237.191406 C 500.679688 238.582031 500.980469 239.648438 501.585938 240.394531 C 502.195312 241.132812 502.871094 241.503906 503.613281 241.503906 C 504.238281 241.503906 504.84375 241.1875 505.433594 240.5625 Z M 439.320312 223.484375 "/>
<path fill-rule="nonzero" fill="rgb(51.372549%, 82.745098%, 83.137255%)" fill-opacity="1" stroke-width="1" stroke-linecap="butt" stroke-linejoin="miter" stroke="rgb(0%, 0%, 0%)" stroke-opacity="1" stroke-miterlimit="4" d="M 788.10718 -35.99901 L 695.193102 -35.99901 L 695.193102 -0.000989975 L 788.10718 -0.000989975 Z M 788.10718 -35.99901 " transform="matrix(1.17628, 0, 0, 1.17628, 8.469216, 257.173039)"/>
<path fill-rule="nonzero" fill="rgb(0%, 0%, 0%)" fill-opacity="1" d="M 849.90625 242.351562 L 846.164062 242.351562 L 841.417969 235.796875 C 841.0625 235.8125 840.777344 235.816406 840.558594 235.816406 C 840.464844 235.816406 840.375 235.816406 840.269531 235.8125 C 840.164062 235.808594 840.058594 235.800781 839.949219 235.796875 L 839.949219 239.867188 C 839.949219 240.75 840.042969 241.296875 840.238281 241.515625 C 840.5 241.816406 840.894531 241.96875 841.417969 241.96875 L 841.964844 241.96875 L 841.964844 242.351562 L 835.960938 242.351562 L 835.960938 241.96875 L 836.488281 241.96875 C 837.074219 241.96875 837.503906 241.777344 837.753906 241.390625 C 837.902344 241.171875 837.976562 240.667969 837.976562 239.867188 L 837.976562 230.8125 C 837.976562 229.929688 837.875 229.382812 837.683594 229.167969 C 837.414062 228.863281 837.015625 228.710938 836.488281 228.710938 L 835.960938 228.710938 L 835.960938 228.332031 L 841.0625 228.332031 C 842.554688 228.332031 843.652344 228.441406 844.359375 228.65625 C 845.066406 228.875 845.664062 229.273438 846.15625 229.855469 C 846.652344 230.441406 846.894531 231.132812 846.894531 231.9375 C 846.894531 232.800781 846.613281 233.550781 846.054688 234.179688 C 845.492188 234.820312 844.621094 235.265625 843.445312 235.527344 L 846.339844 239.546875 C 847 240.472656 847.570312 241.085938 848.042969 241.390625 C 848.515625 241.691406 849.140625 241.886719 849.90625 241.96875 L 849.90625 242.351562 M 839.949219 235.144531 C 840.082031 235.144531 840.191406 235.144531 840.292969 235.148438 C 840.382812 235.15625 840.464844 235.15625 840.527344 235.15625 C 841.863281 235.15625 842.875 234.863281 843.550781 234.285156 C 844.230469 233.707031 844.570312 232.972656 844.570312 232.074219 C 844.570312 231.199219 844.292969 230.484375 843.746094 229.9375 C 843.199219 229.394531 842.476562 229.117188 841.570312 229.117188 C 841.167969 229.117188 840.632812 229.179688 839.949219 229.316406 Z M 851.972656 236.445312 C 851.96875 237.851562 852.308594 238.953125 852.996094 239.753906 C 853.6875 240.554688 854.496094 240.953125 855.425781 240.953125 C 856.046875 240.953125 856.585938 240.785156 857.046875 240.441406 C 857.503906 240.101562 857.890625 239.519531 858.199219 238.691406 L 858.519531 238.894531 C 858.371094 239.839844 857.953125 240.699219 857.257812 241.476562 C 856.5625 242.253906 855.691406 242.640625 854.640625 242.640625 C 853.507812 242.640625 852.53125 242.199219 851.71875 241.3125 C 850.910156 240.425781 850.507812 239.234375 850.507812 237.738281 C 850.507812 236.121094 850.921875 234.855469 851.75 233.949219 C 852.582031 233.046875 853.625 232.589844 854.878906 232.589844 C 855.941406 232.589844 856.816406 232.941406 857.496094 233.636719 C 858.175781 234.339844 858.519531 235.273438 858.519531 236.445312 L 851.972656 236.445312 M 851.972656 235.847656 L 856.355469 235.847656 C 856.324219 235.242188 856.25 234.816406 856.140625 234.566406 C 855.96875 234.179688 855.710938 233.878906 855.371094 233.65625 C 855.027344 233.4375 854.675781 233.324219 854.300781 233.324219 C 853.726562 233.324219 853.21875 233.546875 852.765625 233.992188 C 852.3125 234.4375 852.050781 235.054688 851.972656 235.847656 Z M 867.820312 238.753906 C 867.566406 240.003906 867.066406 240.957031 866.320312 241.632812 C 865.578125 242.304688 864.753906 242.640625 863.851562 242.640625 C 862.773438 242.640625 861.835938 242.1875 861.039062 241.285156 C 860.238281 240.382812 859.84375 239.160156 859.84375 237.625 C 859.84375 236.136719 860.285156 234.925781 861.171875 233.996094 C 862.054688 233.070312 863.121094 232.601562 864.359375 232.601562 C 865.289062 232.601562 866.054688 232.847656 866.652344 233.339844 C 867.253906 233.832031 867.554688 234.347656 867.554688 234.875 C 867.554688 235.136719 867.46875 235.347656 867.300781 235.511719 C 867.128906 235.671875 866.894531 235.75 866.59375 235.75 C 866.183594 235.75 865.878906 235.625 865.667969 235.359375 C 865.554688 235.21875 865.476562 234.941406 865.441406 234.535156 C 865.402344 234.128906 865.261719 233.816406 865.023438 233.601562 C 864.777344 233.398438 864.441406 233.292969 864.015625 233.292969 C 863.324219 233.292969 862.773438 233.550781 862.351562 234.0625 C 861.796875 234.738281 861.515625 235.628906 861.515625 236.734375 C 861.515625 237.867188 861.792969 238.863281 862.347656 239.730469 C 862.902344 240.59375 863.652344 241.027344 864.59375 241.027344 C 865.269531 241.027344 865.878906 240.796875 866.414062 240.332031 C 866.796875 240.015625 867.164062 239.441406 867.519531 238.609375 Z M 873.808594 232.601562 C 875.242188 232.601562 876.390625 233.148438 877.261719 234.234375 C 877.996094 235.164062 878.363281 236.234375 878.363281 237.4375 C 878.363281 238.289062 878.164062 239.144531 877.757812 240.015625 C 877.347656 240.878906 876.789062 241.535156 876.078125 241.976562 C 875.363281 242.417969 874.570312 242.640625 873.691406 242.640625 C 872.269531 242.640625 871.132812 242.070312 870.292969 240.933594 C 869.578125 239.972656 869.226562 238.898438 869.226562 237.710938 C 869.226562 236.839844 869.441406 235.976562 869.875 235.117188 C 870.304688 234.257812 870.871094 233.625 871.574219 233.214844 C 872.277344 232.804688 873.019531 232.601562 873.808594 232.601562 M 873.484375 233.269531 C 873.121094 233.269531 872.753906 233.382812 872.386719 233.597656 C 872.015625 233.816406 871.722656 234.199219 871.492188 234.742188 C 871.261719 235.289062 871.152344 235.984375 871.152344 236.839844 C 871.152344 238.21875 871.421875 239.410156 871.972656 240.40625 C 872.519531 241.40625 873.242188 241.90625 874.136719 241.90625 C 874.804688 241.90625 875.359375 241.628906 875.792969 241.078125 C 876.222656 240.527344 876.445312 239.578125 876.445312 238.234375 C 876.445312 236.554688 876.082031 235.234375 875.359375 234.261719 C 874.867188 233.601562 874.242188 233.269531 873.484375 233.269531 Z M 879.273438 232.878906 L 883.730469 232.878906 L 883.730469 233.261719 L 883.441406 233.261719 C 883.171875 233.261719 882.96875 233.332031 882.828125 233.460938 C 882.683594 233.59375 882.617188 233.765625 882.617188 233.988281 C 882.617188 234.226562 882.6875 234.515625 882.832031 234.84375 L 885.035156 240.074219 L 887.246094 234.648438 C 887.402344 234.261719 887.484375 233.96875 887.484375 233.765625 C 887.484375 233.675781 887.457031 233.59375 887.402344 233.53125 C 887.324219 233.425781 887.226562 233.359375 887.113281 233.320312 C 886.992188 233.28125 886.753906 233.261719 886.398438 233.261719 L 886.398438 232.878906 L 889.488281 232.878906 L 889.488281 233.261719 C 889.128906 233.289062 888.882812 233.363281 888.746094 233.480469 C 888.503906 233.6875 888.285156 234.035156 888.097656 234.511719 L 884.734375 242.640625 L 884.3125 242.640625 L 880.929688 234.648438 C 880.777344 234.277344 880.636719 234.011719 880.496094 233.84375 C 880.359375 233.683594 880.179688 233.550781 879.96875 233.4375 C 879.847656 233.375 879.621094 233.316406 879.273438 233.261719 Z M 891.9375 236.445312 C 891.933594 237.851562 892.273438 238.953125 892.960938 239.753906 C 893.652344 240.554688 894.460938 240.953125 895.394531 240.953125 C 896.015625 240.953125 896.550781 240.785156 897.011719 240.441406 C 897.46875 240.101562 897.855469 239.519531 898.164062 238.691406 L 898.484375 238.894531 C 898.339844 239.839844 897.921875 240.699219 897.222656 241.476562 C 896.527344 242.253906 895.65625 242.640625 894.609375 242.640625 C 893.472656 242.640625 892.5 242.199219 891.683594 241.3125 C 890.875 240.425781 890.472656 239.234375 890.472656 237.738281 C 890.472656 236.121094 890.886719 234.855469 891.71875 233.949219 C 892.550781 233.046875 893.59375 232.589844 894.847656 232.589844 C 895.90625 232.589844 896.78125 232.941406 897.460938 233.636719 C 898.140625 234.339844 898.484375 235.273438 898.484375 236.445312 L 891.9375 236.445312 M 891.9375 235.847656 L 896.320312 235.847656 C 896.289062 235.242188 896.214844 234.816406 896.105469 234.566406 C 895.9375 234.179688 895.679688 233.878906 895.339844 233.65625 C 894.992188 233.4375 894.640625 233.324219 894.269531 233.324219 C 893.695312 233.324219 893.183594 233.546875 892.734375 233.992188 C 892.277344 234.4375 892.015625 235.054688 891.9375 235.847656 Z M 902.515625 232.601562 L 902.515625 234.730469 C 903.304688 233.3125 904.117188 232.601562 904.957031 232.601562 C 905.332031 232.601562 905.648438 232.714844 905.898438 232.949219 C 906.144531 233.179688 906.269531 233.445312 906.269531 233.75 C 906.269531 234.015625 906.175781 234.246094 906 234.429688 C 905.820312 234.617188 905.609375 234.707031 905.359375 234.707031 C 905.117188 234.707031 904.84375 234.589844 904.546875 234.355469 C 904.246094 234.117188 904.027344 233.996094 903.878906 233.996094 C 903.757812 233.996094 903.621094 234.066406 903.476562 234.203125 C 903.167969 234.488281 902.847656 234.953125 902.515625 235.601562 L 902.515625 240.136719 C 902.515625 240.664062 902.578125 241.058594 902.714844 241.324219 C 902.800781 241.515625 902.960938 241.671875 903.1875 241.789062 C 903.417969 241.917969 903.742188 241.976562 904.167969 241.976562 L 904.167969 242.351562 L 899.320312 242.351562 L 899.320312 241.976562 C 899.804688 241.976562 900.164062 241.90625 900.398438 241.753906 C 900.566406 241.640625 900.6875 241.464844 900.753906 241.222656 C 900.792969 241.105469 900.8125 240.773438 900.8125 240.21875 L 900.8125 236.550781 C 900.8125 235.449219 900.789062 234.792969 900.742188 234.582031 C 900.695312 234.367188 900.613281 234.21875 900.492188 234.121094 C 900.375 234.023438 900.222656 233.976562 900.042969 233.976562 C 899.832031 233.976562 899.589844 234.027344 899.320312 234.128906 L 899.214844 233.757812 L 902.078125 232.601562 Z M 908.386719 236.445312 C 908.382812 237.851562 908.722656 238.953125 909.414062 239.753906 C 910.101562 240.554688 910.910156 240.953125 911.84375 240.953125 C 912.464844 240.953125 913 240.785156 913.460938 240.441406 C 913.917969 240.101562 914.304688 239.519531 914.613281 238.691406 L 914.933594 238.894531 C 914.789062 239.839844 914.371094 240.699219 913.671875 241.476562 C 912.976562 242.253906 912.105469 242.640625 911.058594 242.640625 C 909.921875 242.640625 908.949219 242.199219 908.136719 241.3125 C 907.328125 240.425781 906.921875 239.234375 906.921875 237.738281 C 906.921875 236.121094 907.335938 234.855469 908.167969 233.949219 C 909 233.046875 910.042969 232.589844 911.296875 232.589844 C 912.359375 232.589844 913.230469 232.941406 913.910156 233.636719 C 914.589844 234.339844 914.933594 235.273438 914.933594 236.445312 L 908.386719 236.445312 M 908.386719 235.847656 L 912.769531 235.847656 C 912.738281 235.242188 912.664062 234.816406 912.554688 234.566406 C 912.386719 234.179688 912.128906 233.878906 911.789062 233.65625 C 911.441406 233.4375 911.089844 233.324219 910.71875 233.324219 C 910.144531 233.324219 909.632812 233.546875 909.183594 233.992188 C 908.726562 234.4375 908.464844 235.054688 908.386719 235.847656 Z M 922.882812 241.285156 C 922.421875 241.765625 921.96875 242.117188 921.527344 242.324219 C 921.085938 242.535156 920.609375 242.640625 920.101562 242.640625 C 919.070312 242.640625 918.164062 242.207031 917.394531 241.34375 C 916.621094 240.476562 916.234375 239.367188 916.234375 238.007812 C 916.234375 236.652344 916.664062 235.40625 917.519531 234.28125 C 918.371094 233.15625 919.46875 232.589844 920.816406 232.589844 C 921.648438 232.589844 922.335938 232.855469 922.882812 233.386719 L 922.882812 231.640625 C 922.882812 230.558594 922.855469 229.894531 922.804688 229.644531 C 922.753906 229.398438 922.671875 229.226562 922.5625 229.136719 C 922.453125 229.046875 922.316406 229.003906 922.148438 229.003906 C 921.96875 229.003906 921.730469 229.058594 921.4375 229.167969 L 921.304688 228.804688 L 924.125 227.648438 L 924.589844 227.648438 L 924.589844 238.597656 C 924.589844 239.707031 924.617188 240.382812 924.667969 240.628906 C 924.71875 240.875 924.800781 241.046875 924.914062 241.140625 C 925.03125 241.238281 925.160156 241.285156 925.308594 241.285156 C 925.5 241.285156 925.746094 241.230469 926.054688 241.109375 L 926.167969 241.472656 L 923.359375 242.640625 L 922.882812 242.640625 L 922.882812 241.285156 M 922.882812 240.5625 L 922.882812 235.683594 C 922.84375 235.214844 922.71875 234.785156 922.511719 234.402344 C 922.304688 234.015625 922.03125 233.722656 921.691406 233.527344 C 921.351562 233.332031 921.015625 233.234375 920.691406 233.234375 C 920.085938 233.234375 919.542969 233.503906 919.070312 234.046875 C 918.441406 234.765625 918.128906 235.8125 918.128906 237.191406 C 918.128906 238.582031 918.433594 239.648438 919.039062 240.394531 C 919.644531 241.132812 920.320312 241.503906 921.066406 241.503906 C 921.691406 241.503906 922.296875 241.1875 922.882812 240.5625 Z M 835.597656 223.484375 "/>
<path fill-rule="nonzero" fill="rgb(51.372549%, 82.745098%, 83.137255%)" fill-opacity="1" stroke-width="1" stroke-linecap="butt" stroke-linejoin="miter" stroke="rgb(0%, 0%, 0%)" stroke-opacity="1" stroke-miterlimit="4" d="M 98.974234 -35.99901 L 0.00956675 -35.99901 L 0.00956675 -0.000989975 L 98.974234 -0.000989975 Z M 98.974234 -35.99901 " transform="matrix(1.17628, 0, 0, 1.17628, 8.469216, 257.173039)"/>
<path fill-rule="nonzero" fill="rgb(0%, 0%, 0%)" fill-opacity="1" d="M 27.589844 228.007812 L 27.589844 232.855469 L 27.207031 232.855469 C 27.078125 231.929688 26.859375 231.1875 26.535156 230.636719 C 26.21875 230.085938 25.757812 229.648438 25.167969 229.324219 C 24.574219 229.003906 23.964844 228.835938 23.328125 228.835938 C 22.613281 228.835938 22.019531 229.058594 21.550781 229.492188 C 21.082031 229.929688 20.847656 230.429688 20.847656 230.988281 C 20.847656 231.414062 20.996094 231.804688 21.289062 232.160156 C 21.714844 232.671875 22.734375 233.363281 24.339844 234.226562 C 25.648438 234.925781 26.546875 235.46875 27.023438 235.84375 C 27.5 236.214844 27.875 236.660156 28.128906 237.171875 C 28.386719 237.683594 28.515625 238.214844 28.515625 238.773438 C 28.515625 239.835938 28.109375 240.75 27.28125 241.519531 C 26.457031 242.285156 25.398438 242.671875 24.101562 242.671875 C 23.695312 242.671875 23.316406 242.640625 22.957031 242.578125 C 22.742188 242.542969 22.300781 242.417969 21.628906 242.199219 C 20.953125 241.984375 20.53125 241.871094 20.351562 241.871094 C 20.175781 241.871094 20.042969 241.925781 19.941406 242.027344 C 19.839844 242.132812 19.769531 242.34375 19.71875 242.671875 L 19.335938 242.671875 L 19.335938 237.867188 L 19.71875 237.867188 C 19.898438 238.871094 20.140625 239.621094 20.445312 240.121094 C 20.746094 240.621094 21.210938 241.035156 21.835938 241.367188 C 22.457031 241.699219 23.140625 241.863281 23.886719 241.863281 C 24.75 241.863281 25.429688 241.636719 25.929688 241.183594 C 26.425781 240.726562 26.679688 240.191406 26.679688 239.570312 C 26.679688 239.226562 26.582031 238.875 26.394531 238.527344 C 26.207031 238.171875 25.90625 237.847656 25.507812 237.542969 C 25.242188 237.335938 24.503906 236.894531 23.304688 236.226562 C 22.105469 235.554688 21.257812 235.015625 20.746094 234.617188 C 20.242188 234.21875 19.855469 233.777344 19.597656 233.292969 C 19.332031 232.8125 19.203125 232.277344 19.203125 231.699219 C 19.203125 230.699219 19.589844 229.828125 20.359375 229.101562 C 21.132812 228.371094 22.117188 228.007812 23.304688 228.007812 C 24.050781 228.007812 24.839844 228.195312 25.671875 228.554688 C 26.058594 228.730469 26.332031 228.816406 26.488281 228.816406 C 26.667969 228.816406 26.816406 228.761719 26.929688 228.65625 C 27.046875 228.550781 27.132812 228.335938 27.207031 228.007812 Z M 38.621094 232.878906 L 38.621094 238.617188 C 38.621094 239.710938 38.644531 240.382812 38.699219 240.628906 C 38.75 240.875 38.832031 241.046875 38.945312 241.140625 C 39.058594 241.238281 39.191406 241.285156 39.34375 241.285156 C 39.558594 241.285156 39.796875 241.230469 40.066406 241.109375 L 40.210938 241.472656 L 37.378906 242.640625 L 36.914062 242.640625 L 36.914062 240.632812 C 36.097656 241.515625 35.476562 242.070312 35.050781 242.300781 C 34.625 242.523438 34.171875 242.640625 33.699219 242.640625 C 33.167969 242.640625 32.707031 242.488281 32.316406 242.179688 C 31.929688 241.871094 31.660156 241.476562 31.507812 240.996094 C 31.355469 240.511719 31.277344 239.832031 31.277344 238.949219 L 31.277344 234.722656 C 31.277344 234.273438 31.230469 233.964844 31.136719 233.789062 C 31.039062 233.621094 30.898438 233.488281 30.703125 233.390625 C 30.515625 233.296875 30.171875 233.257812 29.675781 233.261719 L 29.675781 232.878906 L 32.996094 232.878906 L 32.996094 239.214844 C 32.996094 240.097656 33.148438 240.675781 33.457031 240.953125 C 33.765625 241.230469 34.132812 241.367188 34.566406 241.367188 C 34.863281 241.367188 35.199219 241.273438 35.574219 241.089844 C 35.949219 240.902344 36.398438 240.550781 36.914062 240.023438 L 36.914062 234.660156 C 36.914062 234.121094 36.816406 233.757812 36.617188 233.570312 C 36.425781 233.375 36.015625 233.273438 35.394531 233.261719 L 35.394531 232.878906 Z M 47.023438 232.601562 L 47.023438 235.824219 L 46.683594 235.824219 C 46.421875 234.816406 46.085938 234.125 45.671875 233.757812 C 45.265625 233.394531 44.742188 233.210938 44.113281 233.210938 C 43.625 233.210938 43.238281 233.339844 42.941406 233.59375 C 42.644531 233.851562 42.492188 234.128906 42.492188 234.441406 C 42.492188 234.828125 42.605469 235.160156 42.824219 235.433594 C 43.039062 235.714844 43.472656 236.019531 44.128906 236.332031 L 45.636719 237.066406 C 47.039062 237.75 47.738281 238.648438 47.738281 239.769531 C 47.738281 240.628906 47.410156 241.320312 46.761719 241.847656 C 46.109375 242.378906 45.378906 242.640625 44.574219 242.640625 C 43.996094 242.640625 43.335938 242.535156 42.589844 242.332031 C 42.359375 242.261719 42.175781 242.226562 42.03125 242.226562 C 41.875 242.226562 41.75 242.316406 41.65625 242.496094 L 41.316406 242.496094 L 41.316406 239.117188 L 41.65625 239.117188 C 41.851562 240.082031 42.21875 240.804688 42.765625 241.292969 C 43.308594 241.785156 43.917969 242.027344 44.59375 242.027344 C 45.070312 242.027344 45.457031 241.890625 45.757812 241.609375 C 46.058594 241.328125 46.207031 240.996094 46.207031 240.605469 C 46.207031 240.125 46.042969 239.726562 45.707031 239.40625 C 45.371094 239.078125 44.703125 238.667969 43.707031 238.171875 C 42.707031 237.675781 42.054688 237.230469 41.742188 236.828125 C 41.433594 236.4375 41.277344 235.941406 41.277344 235.339844 C 41.277344 234.5625 41.542969 233.910156 42.074219 233.386719 C 42.613281 232.863281 43.300781 232.601562 44.148438 232.601562 C 44.519531 232.601562 44.976562 232.683594 45.503906 232.839844 C 45.859375 232.941406 46.089844 232.996094 46.207031 232.996094 C 46.316406 232.996094 46.402344 232.972656 46.464844 232.921875 C 46.527344 232.875 46.601562 232.765625 46.683594 232.601562 Z M 57.183594 238.753906 C 56.929688 240.003906 56.429688 240.957031 55.6875 241.632812 C 54.941406 242.304688 54.117188 242.640625 53.214844 242.640625 C 52.136719 242.640625 51.203125 242.1875 50.402344 241.285156 C 49.601562 240.382812 49.207031 239.160156 49.207031 237.625 C 49.207031 236.136719 49.648438 234.925781 50.535156 233.996094 C 51.417969 233.070312 52.484375 232.601562 53.722656 232.601562 C 54.652344 232.601562 55.417969 232.847656 56.015625 233.339844 C 56.617188 233.832031 56.917969 234.347656 56.917969 234.875 C 56.917969 235.136719 56.835938 235.347656 56.664062 235.511719 C 56.496094 235.671875 56.261719 235.75 55.957031 235.75 C 55.546875 235.75 55.246094 235.625 55.035156 235.359375 C 54.917969 235.21875 54.839844 234.941406 54.804688 234.535156 C 54.765625 234.128906 54.625 233.816406 54.386719 233.601562 C 54.140625 233.398438 53.804688 233.292969 53.378906 233.292969 C 52.691406 233.292969 52.136719 233.550781 51.714844 234.0625 C 51.160156 234.738281 50.878906 235.628906 50.878906 236.734375 C 50.878906 237.867188 51.15625 238.863281 51.710938 239.730469 C 52.265625 240.59375 53.015625 241.027344 53.957031 241.027344 C 54.632812 241.027344 55.246094 240.796875 55.777344 240.332031 C 56.160156 240.015625 56.527344 239.441406 56.886719 238.609375 Z M 60.128906 236.445312 C 60.125 237.851562 60.464844 238.953125 61.152344 239.753906 C 61.84375 240.554688 62.652344 240.953125 63.585938 240.953125 C 64.203125 240.953125 64.742188 240.785156 65.203125 240.441406 C 65.660156 240.101562 66.046875 239.519531 66.355469 238.691406 L 66.675781 238.894531 C 66.53125 239.839844 66.113281 240.699219 65.414062 241.476562 C 64.71875 242.253906 63.847656 242.640625 62.796875 242.640625 C 61.664062 242.640625 60.691406 242.199219 59.875 241.3125 C 59.066406 240.425781 58.664062 239.234375 58.664062 237.738281 C 58.664062 236.121094 59.078125 234.855469 59.910156 233.949219 C 60.738281 233.046875 61.78125 232.589844 63.039062 232.589844 C 64.097656 232.589844 64.972656 232.941406 65.652344 233.636719 C 66.332031 234.339844 66.675781 235.273438 66.675781 236.445312 L 60.128906 236.445312 M 60.128906 235.847656 L 64.511719 235.847656 C 64.480469 235.242188 64.40625 234.816406 64.296875 234.566406 C 64.125 234.179688 63.871094 233.878906 63.527344 233.65625 C 63.183594 233.4375 62.832031 233.324219 62.457031 233.324219 C 61.882812 233.324219 61.375 233.546875 60.925781 233.992188 C 60.46875 234.4375 60.207031 235.054688 60.128906 235.847656 Z M 67.253906 233.820312 L 70.167969 232.640625 L 70.5625 232.640625 L 70.5625 234.855469 C 71.050781 234.019531 71.542969 233.4375 72.035156 233.101562 C 72.527344 232.769531 73.046875 232.601562 73.59375 232.601562 C 74.542969 232.601562 75.332031 232.972656 75.96875 233.714844 C 76.75 234.625 77.132812 235.8125 77.132812 237.273438 C 77.132812 238.910156 76.664062 240.257812 75.730469 241.324219 C 74.957031 242.203125 73.988281 242.640625 72.816406 242.640625 C 72.304688 242.640625 71.863281 242.566406 71.492188 242.421875 C 71.214844 242.316406 70.902344 242.109375 70.5625 241.804688 L 70.5625 244.683594 C 70.5625 245.332031 70.601562 245.746094 70.679688 245.921875 C 70.761719 246.097656 70.898438 246.238281 71.09375 246.339844 C 71.289062 246.445312 71.648438 246.496094 72.164062 246.496094 L 72.164062 246.878906 L 67.199219 246.878906 L 67.199219 246.496094 L 67.457031 246.496094 C 67.839844 246.503906 68.164062 246.429688 68.433594 246.277344 C 68.5625 246.199219 68.667969 246.082031 68.734375 245.910156 C 68.808594 245.742188 68.84375 245.3125 68.84375 244.625 L 68.84375 235.667969 C 68.84375 235.058594 68.816406 234.667969 68.761719 234.503906 C 68.707031 234.335938 68.621094 234.210938 68.5 234.128906 C 68.375 234.046875 68.214844 234.003906 68.007812 234.003906 C 67.84375 234.003906 67.632812 234.054688 67.375 234.152344 L 67.253906 233.820312 M 70.5625 235.46875 L 70.5625 239 C 70.5625 239.769531 70.589844 240.269531 70.65625 240.511719 C 70.753906 240.910156 70.988281 241.261719 71.363281 241.5625 C 71.738281 241.867188 72.214844 242.019531 72.785156 242.019531 C 73.472656 242.019531 74.03125 241.753906 74.460938 241.210938 C 75.015625 240.511719 75.296875 239.519531 75.296875 238.246094 C 75.296875 236.800781 74.980469 235.6875 74.34375 234.90625 C 73.90625 234.367188 73.378906 234.101562 72.773438 234.097656 C 72.441406 234.101562 72.117188 234.183594 71.789062 234.347656 C 71.542969 234.472656 71.132812 234.84375 70.5625 235.46875 Z M 81.269531 229.769531 L 81.269531 232.878906 L 83.484375 232.878906 L 83.484375 233.601562 L 81.269531 233.601562 L 81.269531 239.746094 C 81.269531 240.359375 81.363281 240.773438 81.535156 240.984375 C 81.710938 241.203125 81.9375 241.308594 82.210938 241.308594 C 82.441406 241.308594 82.664062 241.234375 82.875 241.09375 C 83.089844 240.953125 83.253906 240.746094 83.371094 240.464844 L 83.773438 240.464844 C 83.53125 241.144531 83.191406 241.652344 82.75 241.992188 C 82.308594 242.335938 81.851562 242.507812 81.386719 242.507812 C 81.066406 242.507812 80.761719 242.417969 80.457031 242.238281 C 80.152344 242.066406 79.929688 241.8125 79.78125 241.484375 C 79.640625 241.160156 79.566406 240.65625 79.566406 239.96875 L 79.566406 233.601562 L 78.066406 233.601562 L 78.066406 233.261719 C 78.445312 233.109375 78.835938 232.851562 79.230469 232.492188 C 79.625 232.132812 79.980469 231.699219 80.292969 231.203125 C 80.449219 230.945312 80.667969 230.464844 80.953125 229.769531 Z M 86.816406 227.648438 C 87.105469 227.648438 87.351562 227.753906 87.554688 227.953125 C 87.757812 228.15625 87.863281 228.40625 87.863281 228.695312 C 87.863281 228.984375 87.757812 229.230469 87.554688 229.4375 C 87.351562 229.644531 87.105469 229.746094 86.816406 229.746094 C 86.527344 229.746094 86.277344 229.644531 86.070312 229.4375 C 85.863281 229.230469 85.765625 228.984375 85.765625 228.695312 C 85.765625 228.40625 85.863281 228.15625 86.066406 227.953125 C 86.269531 227.753906 86.523438 227.648438 86.816406 227.648438 M 87.675781 232.601562 L 87.675781 240.207031 C 87.675781 240.800781 87.714844 241.195312 87.804688 241.394531 C 87.890625 241.59375 88.019531 241.738281 88.183594 241.835938 C 88.355469 241.933594 88.664062 241.976562 89.113281 241.976562 L 89.113281 242.351562 L 84.507812 242.351562 L 84.507812 241.976562 C 84.972656 241.976562 85.28125 241.933594 85.441406 241.84375 C 85.597656 241.753906 85.726562 241.605469 85.820312 241.398438 C 85.910156 241.191406 85.960938 240.796875 85.960938 240.207031 L 85.960938 236.5625 C 85.960938 235.535156 85.929688 234.871094 85.863281 234.566406 C 85.820312 234.347656 85.742188 234.191406 85.640625 234.105469 C 85.535156 234.019531 85.390625 233.976562 85.21875 233.976562 C 85.019531 233.976562 84.785156 234.027344 84.507812 234.128906 L 84.367188 233.757812 L 87.21875 232.601562 Z M 92.886719 234.511719 C 93.800781 233.238281 94.789062 232.601562 95.847656 232.601562 C 96.824219 232.601562 97.667969 233.019531 98.394531 233.84375 C 99.121094 234.675781 99.480469 235.8125 99.480469 237.253906 C 99.480469 238.9375 98.921875 240.292969 97.808594 241.316406 C 96.847656 242.199219 95.78125 242.640625 94.597656 242.640625 C 94.046875 242.640625 93.488281 242.539062 92.921875 242.339844 C 92.351562 242.140625 91.769531 241.839844 91.179688 241.441406 L 91.179688 231.628906 C 91.179688 230.554688 91.152344 229.894531 91.101562 229.644531 C 91.046875 229.398438 90.96875 229.226562 90.859375 229.136719 C 90.75 229.046875 90.609375 229.003906 90.445312 229.003906 C 90.253906 229.003906 90.007812 229.058594 89.71875 229.167969 L 89.578125 228.804688 L 92.421875 227.648438 L 92.886719 227.648438 L 92.886719 234.511719 M 92.886719 235.171875 L 92.886719 240.84375 C 93.234375 241.1875 93.597656 241.445312 93.976562 241.621094 C 94.351562 241.796875 94.738281 241.886719 95.128906 241.886719 C 95.753906 241.886719 96.339844 241.542969 96.878906 240.851562 C 97.421875 240.164062 97.691406 239.15625 97.691406 237.84375 C 97.691406 236.628906 97.421875 235.695312 96.878906 235.042969 C 96.339844 234.394531 95.726562 234.070312 95.035156 234.070312 C 94.667969 234.070312 94.304688 234.160156 93.9375 234.347656 C 93.664062 234.488281 93.3125 234.757812 92.886719 235.171875 Z M 104.132812 227.648438 L 104.132812 240.207031 C 104.132812 240.800781 104.175781 241.195312 104.261719 241.390625 C 104.351562 241.582031 104.476562 241.730469 104.664062 241.828125 C 104.835938 241.925781 105.171875 241.976562 105.664062 241.976562 L 105.664062 242.351562 L 101.023438 242.351562 L 101.023438 241.976562 C 101.453125 241.976562 101.75 241.933594 101.910156 241.84375 C 102.066406 241.753906 102.191406 241.605469 102.28125 241.398438 C 102.371094 241.191406 102.414062 240.796875 102.414062 240.207031 L 102.414062 231.605469 C 102.414062 230.542969 102.390625 229.882812 102.347656 229.640625 C 102.296875 229.394531 102.21875 229.226562 102.113281 229.136719 C 102.007812 229.046875 101.867188 229.003906 101.703125 229.003906 C 101.523438 229.003906 101.292969 229.058594 101.023438 229.167969 L 100.84375 228.804688 L 103.667969 227.648438 Z M 108.347656 236.445312 C 108.34375 237.851562 108.683594 238.953125 109.371094 239.753906 C 110.0625 240.554688 110.871094 240.953125 111.800781 240.953125 C 112.421875 240.953125 112.960938 240.785156 113.421875 240.441406 C 113.878906 240.101562 114.265625 239.519531 114.574219 238.691406 L 114.894531 238.894531 C 114.746094 239.839844 114.328125 240.699219 113.632812 241.476562 C 112.9375 242.253906 112.066406 242.640625 111.015625 242.640625 C 109.882812 242.640625 108.90625 242.199219 108.09375 241.3125 C 107.285156 240.425781 106.882812 239.234375 106.882812 237.738281 C 106.882812 236.121094 107.296875 234.855469 108.125 233.949219 C 108.957031 233.046875 110 232.589844 111.257812 232.589844 C 112.316406 232.589844 113.191406 232.941406 113.871094 233.636719 C 114.550781 234.339844 114.894531 235.273438 114.894531 236.445312 L 108.347656 236.445312 M 108.347656 235.847656 L 112.730469 235.847656 C 112.699219 235.242188 112.625 234.816406 112.515625 234.566406 C 112.34375 234.179688 112.085938 233.878906 111.746094 233.65625 C 111.402344 233.4375 111.050781 233.324219 110.675781 233.324219 C 110.101562 233.324219 109.59375 233.546875 109.140625 233.992188 C 108.6875 234.4375 108.425781 235.054688 108.347656 235.847656 Z M 17.878906 223.484375 "/>
<path fill-rule="nonzero" fill="rgb(0%, 0%, 0%)" fill-opacity="1" d="M 219.929688 229.1875 L 223.308594 229.1875 L 230.929688 238.53125 L 230.929688 231.34375 C 230.929688 230.578125 230.839844 230.101562 230.671875 229.910156 C 230.445312 229.65625 230.085938 229.527344 229.597656 229.527344 L 229.164062 229.527344 L 229.164062 229.1875 L 233.5 229.1875 L 233.5 229.527344 L 233.0625 229.527344 C 232.53125 229.527344 232.160156 229.6875 231.9375 230.003906 C 231.804688 230.203125 231.738281 230.648438 231.738281 231.34375 L 231.738281 241.847656 L 231.40625 241.847656 L 223.191406 231.8125 L 223.191406 239.488281 C 223.191406 240.253906 223.273438 240.734375 223.4375 240.921875 C 223.671875 241.179688 224.03125 241.308594 224.515625 241.308594 L 224.957031 241.308594 L 224.957031 241.648438 L 220.617188 241.648438 L 220.617188 241.308594 L 221.050781 241.308594 C 221.582031 241.308594 221.960938 241.144531 222.179688 240.828125 C 222.3125 240.632812 222.382812 240.1875 222.382812 239.488281 L 222.382812 230.820312 C 222.019531 230.398438 221.75 230.117188 221.558594 229.984375 C 221.371094 229.851562 221.101562 229.722656 220.738281 229.609375 C 220.558594 229.554688 220.292969 229.527344 219.929688 229.527344 Z M 235.773438 236.398438 C 235.765625 237.648438 236.070312 238.628906 236.679688 239.339844 C 237.292969 240.050781 238.015625 240.40625 238.839844 240.40625 C 239.390625 240.40625 239.871094 240.253906 240.277344 239.953125 C 240.6875 239.648438 241.027344 239.128906 241.304688 238.394531 L 241.589844 238.578125 C 241.460938 239.417969 241.085938 240.179688 240.46875 240.871094 C 239.847656 241.558594 239.074219 241.90625 238.140625 241.90625 C 237.132812 241.90625 236.269531 241.507812 235.546875 240.722656 C 234.824219 239.9375 234.464844 238.875 234.464844 237.546875 C 234.464844 236.109375 234.835938 234.984375 235.574219 234.179688 C 236.3125 233.375 237.238281 232.972656 238.355469 232.972656 C 239.296875 232.972656 240.074219 233.285156 240.679688 233.90625 C 241.285156 234.523438 241.589844 235.355469 241.589844 236.398438 L 235.773438 236.398438 M 235.773438 235.867188 L 239.667969 235.867188 C 239.636719 235.328125 239.570312 234.949219 239.476562 234.726562 C 239.324219 234.382812 239.09375 234.117188 238.789062 233.917969 C 238.488281 233.722656 238.171875 233.625 237.839844 233.625 C 237.328125 233.625 236.875 233.820312 236.472656 234.21875 C 236.074219 234.613281 235.839844 235.164062 235.773438 235.867188 Z M 242.242188 233.230469 L 245.769531 233.230469 L 245.769531 233.570312 C 245.445312 233.59375 245.230469 233.652344 245.132812 233.742188 C 245.03125 233.835938 244.980469 233.96875 244.980469 234.140625 C 244.980469 234.328125 245.03125 234.558594 245.136719 234.828125 L 246.9375 239.671875 L 248.746094 235.730469 L 248.269531 234.488281 C 248.121094 234.121094 247.929688 233.867188 247.691406 233.726562 C 247.558594 233.636719 247.304688 233.585938 246.9375 233.570312 L 246.9375 233.230469 L 250.945312 233.230469 L 250.945312 233.570312 C 250.503906 233.585938 250.191406 233.664062 250.007812 233.808594 C 249.882812 233.90625 249.824219 234.0625 249.824219 234.277344 C 249.824219 234.402344 249.84375 234.523438 249.894531 234.652344 L 251.808594 239.488281 L 253.582031 234.828125 C 253.707031 234.496094 253.765625 234.234375 253.765625 234.039062 C 253.765625 233.921875 253.707031 233.816406 253.585938 233.726562 C 253.464844 233.632812 253.230469 233.582031 252.882812 233.570312 L 252.882812 233.230469 L 255.539062 233.230469 L 255.539062 233.570312 C 255.003906 233.648438 254.613281 234.011719 254.363281 234.652344 L 251.550781 241.90625 L 251.171875 241.90625 L 249.070312 236.527344 L 246.617188 241.90625 L 246.273438 241.90625 L 243.574219 234.828125 C 243.394531 234.382812 243.21875 234.078125 243.050781 233.921875 C 242.878906 233.765625 242.609375 233.648438 242.242188 233.570312 Z M 263.148438 228.578125 C 263.40625 228.578125 263.625 228.671875 263.804688 228.851562 C 263.984375 229.03125 264.074219 229.25 264.074219 229.507812 C 264.074219 229.765625 263.984375 229.984375 263.804688 230.167969 C 263.625 230.351562 263.40625 230.445312 263.148438 230.445312 C 262.890625 230.445312 262.667969 230.351562 262.484375 230.167969 C 262.300781 229.984375 262.210938 229.765625 262.210938 229.507812 C 262.210938 229.25 262.300781 229.03125 262.480469 228.851562 C 262.660156 228.671875 262.886719 228.578125 263.148438 228.578125 M 263.910156 232.980469 L 263.910156 239.746094 C 263.910156 240.273438 263.945312 240.621094 264.023438 240.796875 C 264.101562 240.972656 264.214844 241.101562 264.367188 241.1875 C 264.515625 241.273438 264.789062 241.316406 265.1875 241.316406 L 265.1875 241.648438 L 261.097656 241.648438 L 261.097656 241.316406 C 261.507812 241.316406 261.78125 241.273438 261.925781 241.195312 C 262.066406 241.117188 262.179688 240.984375 262.261719 240.800781 C 262.34375 240.617188 262.386719 240.265625 262.386719 239.746094 L 262.386719 236.5 C 262.386719 235.585938 262.355469 235 262.300781 234.726562 C 262.261719 234.53125 262.191406 234.394531 262.101562 234.316406 C 262.007812 234.238281 261.882812 234.203125 261.722656 234.203125 C 261.554688 234.203125 261.34375 234.25 261.097656 234.339844 L 260.96875 234.011719 L 263.507812 232.980469 Z M 268.6875 234.765625 C 269.675781 233.574219 270.613281 232.980469 271.511719 232.980469 C 271.96875 232.980469 272.363281 233.097656 272.695312 233.324219 C 273.027344 233.554688 273.289062 233.933594 273.484375 234.460938 C 273.621094 234.828125 273.6875 235.394531 273.6875 236.152344 L 273.6875 239.746094 C 273.6875 240.277344 273.730469 240.640625 273.816406 240.828125 C 273.886719 240.980469 273.992188 241.101562 274.144531 241.1875 C 274.292969 241.273438 274.570312 241.316406 274.976562 241.316406 L 274.976562 241.648438 L 270.8125 241.648438 L 270.8125 241.316406 L 270.988281 241.316406 C 271.378906 241.316406 271.652344 241.257812 271.808594 241.136719 C 271.964844 241.015625 272.074219 240.84375 272.136719 240.609375 C 272.15625 240.515625 272.171875 240.226562 272.171875 239.746094 L 272.171875 236.296875 C 272.171875 235.53125 272.070312 234.976562 271.875 234.628906 C 271.675781 234.285156 271.339844 234.113281 270.867188 234.113281 C 270.136719 234.113281 269.410156 234.511719 268.6875 235.304688 L 268.6875 239.746094 C 268.6875 240.316406 268.722656 240.667969 268.789062 240.800781 C 268.878906 240.980469 268.992188 241.109375 269.144531 241.191406 C 269.296875 241.273438 269.597656 241.316406 270.058594 241.316406 L 270.058594 241.648438 L 265.894531 241.648438 L 265.894531 241.316406 L 266.078125 241.316406 C 266.507812 241.316406 266.796875 241.207031 266.949219 240.988281 C 267.097656 240.773438 267.171875 240.355469 267.171875 239.746094 L 267.171875 236.621094 C 267.171875 235.609375 267.148438 234.992188 267.105469 234.773438 C 267.058594 234.550781 266.988281 234.402344 266.890625 234.324219 C 266.796875 234.246094 266.671875 234.203125 266.511719 234.203125 C 266.339844 234.203125 266.132812 234.25 265.894531 234.339844 L 265.757812 234.011719 L 268.292969 232.980469 L 268.6875 232.980469 Z M 278.933594 233.890625 L 278.933594 239.421875 C 278.933594 240.207031 279.023438 240.707031 279.191406 240.910156 C 279.417969 241.183594 279.722656 241.316406 280.101562 241.316406 L 280.867188 241.316406 L 280.867188 241.648438 L 275.839844 241.648438 L 275.839844 241.316406 L 276.214844 241.316406 C 276.457031 241.316406 276.683594 241.257812 276.886719 241.132812 C 277.089844 241.007812 277.226562 240.84375 277.304688 240.636719 C 277.382812 240.429688 277.417969 240.023438 277.417969 239.421875 L 277.417969 233.890625 L 275.785156 233.890625 L 275.785156 233.230469 L 277.417969 233.230469 L 277.417969 232.679688 C 277.417969 231.835938 277.550781 231.128906 277.824219 230.546875 C 278.09375 229.960938 278.503906 229.492188 279.058594 229.136719 C 279.617188 228.777344 280.234375 228.597656 280.929688 228.597656 C 281.574219 228.597656 282.164062 228.804688 282.703125 229.222656 C 283.058594 229.5 283.234375 229.804688 283.234375 230.152344 C 283.234375 230.335938 283.15625 230.507812 282.996094 230.671875 C 282.835938 230.832031 282.667969 230.914062 282.484375 230.914062 C 282.339844 230.914062 282.191406 230.863281 282.035156 230.761719 C 281.878906 230.660156 281.6875 230.445312 281.460938 230.109375 C 281.238281 229.773438 281.027344 229.550781 280.835938 229.433594 C 280.648438 229.320312 280.4375 229.257812 280.203125 229.257812 C 279.921875 229.257812 279.683594 229.332031 279.488281 229.484375 C 279.289062 229.636719 279.152344 229.867188 279.0625 230.183594 C 278.976562 230.5 278.933594 231.3125 278.933594 232.621094 L 278.933594 233.230469 L 281.105469 233.230469 L 281.105469 233.890625 Z M 283.328125 236.398438 C 283.324219 237.648438 283.625 238.628906 284.238281 239.339844 C 284.847656 240.050781 285.570312 240.40625 286.398438 240.40625 C 286.949219 240.40625 287.425781 240.253906 287.835938 239.953125 C 288.246094 239.648438 288.585938 239.128906 288.859375 238.394531 L 289.144531 238.578125 C 289.015625 239.417969 288.644531 240.179688 288.023438 240.871094 C 287.402344 241.558594 286.632812 241.90625 285.699219 241.90625 C 284.6875 241.90625 283.824219 241.507812 283.101562 240.722656 C 282.382812 239.9375 282.023438 238.875 282.023438 237.546875 C 282.023438 236.109375 282.390625 234.984375 283.128906 234.179688 C 283.871094 233.375 284.792969 232.972656 285.910156 232.972656 C 286.851562 232.972656 287.628906 233.285156 288.234375 233.90625 C 288.84375 234.523438 289.144531 235.355469 289.144531 236.398438 L 283.328125 236.398438 M 283.328125 235.867188 L 287.222656 235.867188 C 287.191406 235.328125 287.128906 234.949219 287.03125 234.726562 C 286.878906 234.382812 286.648438 234.117188 286.347656 233.917969 C 286.042969 233.722656 285.726562 233.625 285.394531 233.625 C 284.886719 233.625 284.429688 233.820312 284.03125 234.21875 C 283.632812 234.613281 283.398438 235.164062 283.328125 235.867188 Z M 297.414062 238.449219 C 297.191406 239.554688 296.746094 240.410156 296.082031 241.007812 C 295.421875 241.605469 294.691406 241.90625 293.886719 241.90625 C 292.929688 241.90625 292.101562 241.503906 291.386719 240.699219 C 290.675781 239.894531 290.320312 238.8125 290.320312 237.449219 C 290.320312 236.125 290.714844 235.050781 291.503906 234.222656 C 292.289062 233.394531 293.234375 232.980469 294.335938 232.980469 C 295.164062 232.980469 295.84375 233.203125 296.378906 233.636719 C 296.910156 234.074219 297.175781 234.53125 297.175781 235.003906 C 297.175781 235.238281 297.101562 235.425781 296.953125 235.566406 C 296.800781 235.710938 296.59375 235.785156 296.324219 235.785156 C 295.960938 235.785156 295.6875 235.667969 295.503906 235.433594 C 295.398438 235.304688 295.328125 235.0625 295.296875 234.699219 C 295.265625 234.335938 295.140625 234.0625 294.925781 233.871094 C 294.710938 233.6875 294.414062 233.597656 294.035156 233.597656 C 293.421875 233.597656 292.925781 233.820312 292.554688 234.277344 C 292.058594 234.878906 291.808594 235.667969 291.808594 236.65625 C 291.808594 237.664062 292.058594 238.550781 292.550781 239.316406 C 293.042969 240.085938 293.707031 240.472656 294.546875 240.472656 C 295.152344 240.472656 295.6875 240.265625 296.167969 239.855469 C 296.5 239.574219 296.832031 239.058594 297.148438 238.320312 Z M 301.0625 230.464844 L 301.0625 233.230469 L 303.03125 233.230469 L 303.03125 233.871094 L 301.0625 233.871094 L 301.0625 239.332031 C 301.0625 239.878906 301.140625 240.246094 301.296875 240.433594 C 301.453125 240.621094 301.65625 240.71875 301.902344 240.71875 C 302.101562 240.71875 302.300781 240.65625 302.488281 240.53125 C 302.675781 240.40625 302.824219 240.21875 302.929688 239.972656 L 303.289062 239.972656 C 303.070312 240.578125 302.769531 241.027344 302.378906 241.328125 C 301.988281 241.632812 301.582031 241.785156 301.164062 241.785156 C 300.886719 241.785156 300.609375 241.707031 300.339844 241.550781 C 300.066406 241.394531 299.871094 241.167969 299.742188 240.878906 C 299.613281 240.589844 299.546875 240.140625 299.546875 239.535156 L 299.546875 233.871094 L 298.214844 233.871094 L 298.214844 233.570312 C 298.550781 233.4375 298.894531 233.207031 299.25 232.882812 C 299.601562 232.5625 299.914062 232.183594 300.191406 231.742188 C 300.332031 231.507812 300.527344 231.082031 300.78125 230.464844 Z M 305.988281 228.578125 C 306.246094 228.578125 306.46875 228.671875 306.648438 228.851562 C 306.828125 229.03125 306.917969 229.25 306.917969 229.507812 C 306.917969 229.765625 306.828125 229.984375 306.648438 230.167969 C 306.46875 230.351562 306.246094 230.445312 305.988281 230.445312 C 305.734375 230.445312 305.511719 230.351562 305.328125 230.167969 C 305.144531 229.984375 305.050781 229.765625 305.050781 229.507812 C 305.050781 229.25 305.144531 229.03125 305.324219 228.851562 C 305.503906 228.671875 305.726562 228.578125 305.988281 228.578125 M 306.753906 232.980469 L 306.753906 239.746094 C 306.753906 240.273438 306.789062 240.621094 306.867188 240.796875 C 306.945312 240.972656 307.054688 241.101562 307.207031 241.1875 C 307.359375 241.273438 307.628906 241.316406 308.03125 241.316406 L 308.03125 241.648438 L 303.941406 241.648438 L 303.941406 241.316406 C 304.347656 241.316406 304.625 241.273438 304.769531 241.195312 C 304.910156 241.117188 305.019531 240.984375 305.101562 240.800781 C 305.1875 240.617188 305.226562 240.265625 305.226562 239.746094 L 305.226562 236.5 C 305.226562 235.585938 305.199219 235 305.144531 234.726562 C 305.101562 234.53125 305.035156 234.394531 304.941406 234.316406 C 304.851562 234.238281 304.726562 234.203125 304.566406 234.203125 C 304.394531 234.203125 304.183594 234.25 303.941406 234.339844 L 303.8125 234.011719 L 306.347656 232.980469 Z M 313.195312 232.980469 C 314.46875 232.980469 315.492188 233.464844 316.265625 234.433594 C 316.921875 235.261719 317.246094 236.210938 317.246094 237.28125 C 317.246094 238.035156 317.066406 238.796875 316.707031 239.570312 C 316.34375 240.34375 315.847656 240.925781 315.210938 241.316406 C 314.578125 241.707031 313.871094 241.90625 313.09375 241.90625 C 311.824219 241.90625 310.820312 241.398438 310.070312 240.386719 C 309.441406 239.539062 309.125 238.582031 309.125 237.519531 C 309.125 236.75 309.316406 235.980469 309.699219 235.21875 C 310.078125 234.457031 310.585938 233.890625 311.210938 233.527344 C 311.835938 233.164062 312.496094 232.980469 313.195312 232.980469 M 312.910156 233.578125 C 312.582031 233.578125 312.257812 233.675781 311.929688 233.867188 C 311.605469 234.0625 311.339844 234.402344 311.136719 234.882812 C 310.933594 235.367188 310.832031 235.992188 310.832031 236.75 C 310.832031 237.976562 311.078125 239.03125 311.5625 239.917969 C 312.050781 240.804688 312.695312 241.25 313.488281 241.25 C 314.082031 241.25 314.574219 241.007812 314.960938 240.515625 C 315.34375 240.023438 315.539062 239.183594 315.539062 237.988281 C 315.539062 236.496094 315.214844 235.320312 314.574219 234.460938 C 314.136719 233.871094 313.585938 233.578125 312.910156 233.578125 Z M 320.941406 234.765625 C 321.929688 233.574219 322.867188 232.980469 323.761719 232.980469 C 324.222656 232.980469 324.617188 233.097656 324.949219 233.324219 C 325.277344 233.554688 325.539062 233.933594 325.738281 234.460938 C 325.871094 234.828125 325.941406 235.394531 325.941406 236.152344 L 325.941406 239.746094 C 325.941406 240.277344 325.980469 240.640625 326.070312 240.828125 C 326.136719 240.980469 326.242188 241.101562 326.394531 241.1875 C 326.546875 241.273438 326.824219 241.316406 327.226562 241.316406 L 327.226562 241.648438 L 323.0625 241.648438 L 323.0625 241.316406 L 323.238281 241.316406 C 323.628906 241.316406 323.90625 241.257812 324.0625 241.136719 C 324.21875 241.015625 324.328125 240.84375 324.386719 240.609375 C 324.410156 240.515625 324.425781 240.226562 324.425781 239.746094 L 324.425781 236.296875 C 324.425781 235.53125 324.324219 234.976562 324.125 234.628906 C 323.929688 234.285156 323.59375 234.113281 323.121094 234.113281 C 322.390625 234.113281 321.664062 234.511719 320.941406 235.304688 L 320.941406 239.746094 C 320.941406 240.316406 320.972656 240.667969 321.042969 240.800781 C 321.128906 240.980469 321.246094 241.109375 321.394531 241.191406 C 321.546875 241.273438 321.851562 241.316406 322.3125 241.316406 L 322.3125 241.648438 L 318.148438 241.648438 L 318.148438 241.316406 L 318.332031 241.316406 C 318.757812 241.316406 319.046875 241.207031 319.199219 240.988281 C 319.351562 240.773438 319.425781 240.355469 319.425781 239.746094 L 319.425781 236.621094 C 319.425781 235.609375 319.402344 234.992188 319.355469 234.773438 C 319.308594 234.550781 319.242188 234.402344 319.144531 234.324219 C 319.046875 234.246094 318.925781 234.203125 318.761719 234.203125 C 318.59375 234.203125 318.386719 234.25 318.148438 234.339844 L 318.011719 234.011719 L 320.546875 232.980469 L 320.941406 232.980469 Z M 333.339844 232.980469 L 333.339844 235.847656 L 333.035156 235.847656 C 332.800781 234.949219 332.503906 234.335938 332.140625 234.011719 C 331.777344 233.683594 331.3125 233.523438 330.746094 233.523438 C 330.320312 233.523438 329.96875 233.636719 329.707031 233.863281 C 329.445312 234.089844 329.3125 234.339844 329.3125 234.617188 C 329.3125 234.960938 329.410156 235.253906 329.609375 235.5 C 329.796875 235.75 330.183594 236.019531 330.765625 236.296875 L 332.105469 236.949219 C 333.351562 237.558594 333.972656 238.355469 333.972656 239.351562 C 333.972656 240.117188 333.683594 240.734375 333.105469 241.203125 C 332.523438 241.671875 331.878906 241.90625 331.160156 241.90625 C 330.644531 241.90625 330.058594 241.8125 329.394531 241.628906 C 329.195312 241.570312 329.027344 241.535156 328.898438 241.535156 C 328.757812 241.535156 328.648438 241.613281 328.570312 241.777344 L 328.265625 241.777344 L 328.265625 238.769531 L 328.570312 238.769531 C 328.738281 239.628906 329.070312 240.273438 329.550781 240.710938 C 330.035156 241.144531 330.578125 241.363281 331.179688 241.363281 C 331.601562 241.363281 331.945312 241.238281 332.210938 240.988281 C 332.480469 240.742188 332.613281 240.441406 332.613281 240.09375 C 332.613281 239.671875 332.464844 239.316406 332.167969 239.027344 C 331.867188 238.738281 331.273438 238.375 330.386719 237.933594 C 329.5 237.492188 328.917969 237.09375 328.640625 236.738281 C 328.367188 236.390625 328.230469 235.949219 328.230469 235.417969 C 328.230469 234.722656 328.46875 234.144531 328.941406 233.679688 C 329.414062 233.214844 330.03125 232.980469 330.785156 232.980469 C 331.113281 232.980469 331.515625 233.050781 331.988281 233.191406 C 332.300781 233.285156 332.507812 233.332031 332.613281 233.332031 C 332.707031 233.332031 332.785156 233.308594 332.84375 233.265625 C 332.898438 233.226562 332.960938 233.128906 333.035156 232.980469 Z M 220.175781 224.875 "/>
<path fill-rule="nonzero" fill="rgb(0%, 0%, 0%)" fill-opacity="1" d="M 613.101562 229.1875 L 616.480469 229.1875 L 624.101562 238.53125 L 624.101562 231.34375 C 624.101562 230.578125 624.011719 230.101562 623.84375 229.910156 C 623.617188 229.65625 623.257812 229.527344 622.769531 229.527344 L 622.335938 229.527344 L 622.335938 229.1875 L 626.671875 229.1875 L 626.671875 229.527344 L 626.230469 229.527344 C 625.703125 229.527344 625.332031 229.6875 625.109375 230.003906 C 624.976562 230.203125 624.910156 230.648438 624.910156 231.34375 L 624.910156 241.847656 L 624.578125 241.847656 L 616.363281 231.8125 L 616.363281 239.488281 C 616.363281 240.253906 616.445312 240.734375 616.609375 240.921875 C 616.84375 241.179688 617.203125 241.308594 617.6875 241.308594 L 618.125 241.308594 L 618.125 241.648438 L 613.789062 241.648438 L 613.789062 241.308594 L 614.222656 241.308594 C 614.753906 241.308594 615.132812 241.144531 615.351562 240.828125 C 615.484375 240.632812 615.554688 240.1875 615.554688 239.488281 L 615.554688 230.820312 C 615.191406 230.398438 614.917969 230.117188 614.730469 229.984375 C 614.542969 229.851562 614.273438 229.722656 613.910156 229.609375 C 613.730469 229.554688 613.464844 229.527344 613.101562 229.527344 Z M 628.941406 236.398438 C 628.9375 237.648438 629.242188 238.628906 629.851562 239.339844 C 630.464844 240.050781 631.183594 240.40625 632.011719 240.40625 C 632.5625 240.40625 633.042969 240.253906 633.449219 239.953125 C 633.859375 239.648438 634.199219 239.128906 634.476562 238.394531 L 634.761719 238.578125 C 634.632812 239.417969 634.257812 240.179688 633.640625 240.871094 C 633.019531 241.558594 632.246094 241.90625 631.3125 241.90625 C 630.304688 241.90625 629.4375 241.507812 628.71875 240.722656 C 627.996094 239.9375 627.636719 238.875 627.636719 237.546875 C 627.636719 236.109375 628.003906 234.984375 628.746094 234.179688 C 629.484375 233.375 630.410156 232.972656 631.527344 232.972656 C 632.46875 232.972656 633.242188 233.285156 633.851562 233.90625 C 634.457031 234.523438 634.761719 235.355469 634.761719 236.398438 L 628.941406 236.398438 M 628.941406 235.867188 L 632.839844 235.867188 C 632.808594 235.328125 632.742188 234.949219 632.648438 234.726562 C 632.496094 234.382812 632.265625 234.117188 631.960938 233.917969 C 631.660156 233.722656 631.339844 233.625 631.011719 233.625 C 630.5 233.625 630.046875 233.820312 629.644531 234.21875 C 629.246094 234.613281 629.011719 235.164062 628.941406 235.867188 Z M 635.414062 233.230469 L 638.941406 233.230469 L 638.941406 233.570312 C 638.617188 233.59375 638.402344 233.652344 638.304688 233.742188 C 638.203125 233.835938 638.152344 233.96875 638.152344 234.140625 C 638.152344 234.328125 638.203125 234.558594 638.308594 234.828125 L 640.109375 239.671875 L 641.917969 235.730469 L 641.441406 234.488281 C 641.292969 234.121094 641.101562 233.867188 640.863281 233.726562 C 640.730469 233.636719 640.476562 233.585938 640.109375 233.570312 L 640.109375 233.230469 L 644.117188 233.230469 L 644.117188 233.570312 C 643.675781 233.585938 643.363281 233.664062 643.179688 233.808594 C 643.054688 233.90625 642.996094 234.0625 642.996094 234.277344 C 642.996094 234.402344 643.015625 234.523438 643.066406 234.652344 L 644.980469 239.488281 L 646.753906 234.828125 C 646.875 234.496094 646.9375 234.234375 646.9375 234.039062 C 646.9375 233.921875 646.875 233.816406 646.757812 233.726562 C 646.636719 233.632812 646.402344 233.582031 646.054688 233.570312 L 646.054688 233.230469 L 648.710938 233.230469 L 648.710938 233.570312 C 648.175781 233.648438 647.785156 234.011719 647.535156 234.652344 L 644.722656 241.90625 L 644.34375 241.90625 L 642.242188 236.527344 L 639.785156 241.90625 L 639.445312 241.90625 L 636.746094 234.828125 C 636.566406 234.382812 636.390625 234.078125 636.222656 233.921875 C 636.050781 233.765625 635.78125 233.648438 635.414062 233.570312 Z M 656.640625 232.980469 L 656.640625 234.875 C 657.34375 233.609375 658.070312 232.980469 658.808594 232.980469 C 659.144531 232.980469 659.425781 233.082031 659.644531 233.289062 C 659.867188 233.496094 659.976562 233.730469 659.976562 234 C 659.976562 234.238281 659.898438 234.441406 659.738281 234.609375 C 659.578125 234.773438 659.386719 234.855469 659.167969 234.855469 C 658.953125 234.855469 658.714844 234.75 658.445312 234.539062 C 658.179688 234.328125 657.984375 234.222656 657.855469 234.222656 C 657.742188 234.222656 657.625 234.28125 657.496094 234.40625 C 657.21875 234.660156 656.933594 235.070312 656.640625 235.644531 L 656.640625 239.679688 C 656.640625 240.144531 656.699219 240.5 656.816406 240.738281 C 656.894531 240.902344 657.035156 241.039062 657.238281 241.152344 C 657.441406 241.261719 657.730469 241.316406 658.109375 241.316406 L 658.109375 241.648438 L 653.800781 241.648438 L 653.800781 241.316406 C 654.230469 241.316406 654.550781 241.246094 654.757812 241.113281 C 654.910156 241.015625 655.019531 240.863281 655.078125 240.644531 C 655.109375 240.539062 655.125 240.246094 655.125 239.753906 L 655.125 236.492188 C 655.125 235.511719 655.105469 234.929688 655.066406 234.742188 C 655.023438 234.550781 654.949219 234.417969 654.84375 234.332031 C 654.738281 234.246094 654.605469 234.203125 654.445312 234.203125 C 654.257812 234.203125 654.039062 234.25 653.800781 234.339844 L 653.710938 234.011719 L 656.253906 232.980469 Z M 661.859375 236.398438 C 661.855469 237.648438 662.160156 238.628906 662.769531 239.339844 C 663.382812 240.050781 664.101562 240.40625 664.929688 240.40625 C 665.480469 240.40625 665.960938 240.253906 666.367188 239.953125 C 666.777344 239.648438 667.117188 239.128906 667.394531 238.394531 L 667.675781 238.578125 C 667.550781 239.417969 667.175781 240.179688 666.554688 240.871094 C 665.9375 241.558594 665.164062 241.90625 664.230469 241.90625 C 663.21875 241.90625 662.355469 241.507812 661.636719 240.722656 C 660.914062 239.9375 660.554688 238.875 660.554688 237.546875 C 660.554688 236.109375 660.921875 234.984375 661.664062 234.179688 C 662.402344 233.375 663.328125 232.972656 664.441406 232.972656 C 665.386719 232.972656 666.160156 233.285156 666.769531 233.90625 C 667.375 234.523438 667.675781 235.355469 667.675781 236.398438 L 661.859375 236.398438 M 661.859375 235.867188 L 665.757812 235.867188 C 665.726562 235.328125 665.660156 234.949219 665.5625 234.726562 C 665.414062 234.382812 665.183594 234.117188 664.878906 233.917969 C 664.574219 233.722656 664.257812 233.625 663.929688 233.625 C 663.417969 233.625 662.964844 233.820312 662.5625 234.21875 C 662.164062 234.613281 661.929688 235.164062 661.859375 235.867188 Z M 675.949219 238.449219 C 675.722656 239.554688 675.277344 240.410156 674.617188 241.007812 C 673.953125 241.605469 673.222656 241.90625 672.417969 241.90625 C 671.464844 241.90625 670.632812 241.503906 669.921875 240.699219 C 669.207031 239.894531 668.855469 238.8125 668.855469 237.449219 C 668.855469 236.125 669.25 235.050781 670.035156 234.222656 C 670.820312 233.394531 671.765625 232.980469 672.871094 232.980469 C 673.695312 232.980469 674.375 233.203125 674.910156 233.636719 C 675.441406 234.074219 675.710938 234.53125 675.710938 235.003906 C 675.710938 235.238281 675.636719 235.425781 675.484375 235.566406 C 675.332031 235.710938 675.125 235.785156 674.855469 235.785156 C 674.492188 235.785156 674.222656 235.667969 674.035156 235.433594 C 673.929688 235.304688 673.863281 235.0625 673.832031 234.699219 C 673.796875 234.335938 673.675781 234.0625 673.457031 233.871094 C 673.242188 233.6875 672.949219 233.597656 672.566406 233.597656 C 671.957031 233.597656 671.460938 233.820312 671.085938 234.277344 C 670.589844 234.878906 670.34375 235.667969 670.34375 236.65625 C 670.34375 237.664062 670.589844 238.550781 671.082031 239.316406 C 671.574219 240.085938 672.242188 240.472656 673.082031 240.472656 C 673.683594 240.472656 674.222656 240.265625 674.699219 239.855469 C 675.035156 239.574219 675.363281 239.058594 675.683594 238.320312 Z M 681.269531 232.980469 C 682.542969 232.980469 683.566406 233.464844 684.339844 234.433594 C 684.996094 235.261719 685.320312 236.210938 685.320312 237.28125 C 685.320312 238.035156 685.144531 238.796875 684.78125 239.570312 C 684.417969 240.34375 683.921875 240.925781 683.285156 241.316406 C 682.652344 241.707031 681.945312 241.90625 681.167969 241.90625 C 679.898438 241.90625 678.894531 241.398438 678.144531 240.386719 C 677.515625 239.539062 677.199219 238.582031 677.199219 237.519531 C 677.199219 236.75 677.390625 235.980469 677.773438 235.21875 C 678.152344 234.457031 678.660156 233.890625 679.285156 233.527344 C 679.910156 233.164062 680.570312 232.980469 681.269531 232.980469 M 680.984375 233.578125 C 680.65625 233.578125 680.332031 233.675781 680.003906 233.867188 C 679.679688 234.0625 679.414062 234.402344 679.210938 234.882812 C 679.007812 235.367188 678.90625 235.992188 678.90625 236.75 C 678.90625 237.976562 679.152344 239.03125 679.636719 239.917969 C 680.125 240.804688 680.769531 241.25 681.5625 241.25 C 682.15625 241.25 682.648438 241.007812 683.035156 240.515625 C 683.417969 240.023438 683.613281 239.183594 683.613281 237.988281 C 683.613281 236.496094 683.289062 235.320312 682.648438 234.460938 C 682.210938 233.871094 681.660156 233.578125 680.984375 233.578125 Z M 686.128906 233.230469 L 690.089844 233.230469 L 690.089844 233.570312 L 689.832031 233.570312 C 689.59375 233.570312 689.410156 233.628906 689.289062 233.742188 C 689.164062 233.859375 689.097656 234.015625 689.097656 234.210938 C 689.097656 234.429688 689.164062 234.679688 689.292969 234.976562 L 691.25 239.625 L 693.214844 234.800781 C 693.359375 234.457031 693.425781 234.199219 693.425781 234.019531 C 693.425781 233.933594 693.402344 233.863281 693.355469 233.808594 C 693.285156 233.714844 693.203125 233.652344 693.097656 233.621094 C 692.992188 233.585938 692.777344 233.570312 692.460938 233.570312 L 692.460938 233.230469 L 695.210938 233.230469 L 695.210938 233.570312 C 694.894531 233.59375 694.671875 233.65625 694.546875 233.761719 C 694.332031 233.945312 694.140625 234.253906 693.96875 234.679688 L 690.984375 241.90625 L 690.605469 241.90625 L 687.601562 234.800781 C 687.46875 234.46875 687.339844 234.230469 687.214844 234.089844 C 687.089844 233.945312 686.933594 233.820312 686.746094 233.726562 C 686.640625 233.671875 686.4375 233.621094 686.128906 233.570312 Z M 697.386719 236.398438 C 697.382812 237.648438 697.6875 238.628906 698.296875 239.339844 C 698.910156 240.050781 699.628906 240.40625 700.457031 240.40625 C 701.007812 240.40625 701.488281 240.253906 701.894531 239.953125 C 702.304688 239.648438 702.644531 239.128906 702.921875 238.394531 L 703.203125 238.578125 C 703.078125 239.417969 702.703125 240.179688 702.082031 240.871094 C 701.464844 241.558594 700.691406 241.90625 699.757812 241.90625 C 698.746094 241.90625 697.882812 241.507812 697.164062 240.722656 C 696.441406 239.9375 696.082031 238.875 696.082031 237.546875 C 696.082031 236.109375 696.449219 234.984375 697.191406 234.179688 C 697.929688 233.375 698.855469 232.972656 699.96875 232.972656 C 700.914062 232.972656 701.6875 233.285156 702.296875 233.90625 C 702.902344 234.523438 703.203125 235.355469 703.203125 236.398438 L 697.386719 236.398438 M 697.386719 235.867188 L 701.285156 235.867188 C 701.253906 235.328125 701.1875 234.949219 701.089844 234.726562 C 700.941406 234.382812 700.710938 234.117188 700.40625 233.917969 C 700.101562 233.722656 699.785156 233.625 699.457031 233.625 C 698.945312 233.625 698.492188 233.820312 698.089844 234.21875 C 697.691406 234.613281 697.457031 235.164062 697.386719 235.867188 Z M 706.789062 232.980469 L 706.789062 234.875 C 707.492188 233.609375 708.21875 232.980469 708.957031 232.980469 C 709.292969 232.980469 709.574219 233.082031 709.792969 233.289062 C 710.015625 233.496094 710.125 233.730469 710.125 234 C 710.125 234.238281 710.046875 234.441406 709.886719 234.609375 C 709.726562 234.773438 709.535156 234.855469 709.316406 234.855469 C 709.101562 234.855469 708.859375 234.75 708.59375 234.539062 C 708.328125 234.328125 708.128906 234.222656 708.003906 234.222656 C 707.890625 234.222656 707.773438 234.28125 707.644531 234.40625 C 707.367188 234.660156 707.082031 235.070312 706.789062 235.644531 L 706.789062 239.679688 C 706.789062 240.144531 706.847656 240.5 706.964844 240.738281 C 707.042969 240.902344 707.183594 241.039062 707.386719 241.152344 C 707.589844 241.261719 707.878906 241.316406 708.257812 241.316406 L 708.257812 241.648438 L 703.949219 241.648438 L 703.949219 241.316406 C 704.375 241.316406 704.699219 241.246094 704.90625 241.113281 C 705.058594 241.015625 705.167969 240.863281 705.226562 240.644531 C 705.257812 240.539062 705.273438 240.246094 705.273438 239.753906 L 705.273438 236.492188 C 705.273438 235.511719 705.253906 234.929688 705.214844 234.742188 C 705.171875 234.550781 705.097656 234.417969 704.992188 234.332031 C 704.886719 234.246094 704.753906 234.203125 704.59375 234.203125 C 704.402344 234.203125 704.1875 234.25 703.949219 234.339844 L 703.859375 234.011719 L 706.402344 232.980469 Z M 712.734375 228.578125 C 712.992188 228.578125 713.210938 228.671875 713.390625 228.851562 C 713.570312 229.03125 713.664062 229.25 713.664062 229.507812 C 713.664062 229.765625 713.570312 229.984375 713.390625 230.167969 C 713.210938 230.351562 712.992188 230.445312 712.734375 230.445312 C 712.476562 230.445312 712.257812 230.351562 712.074219 230.167969 C 711.890625 229.984375 711.796875 229.765625 711.796875 229.507812 C 711.796875 229.25 711.890625 229.03125 712.070312 228.851562 C 712.246094 228.671875 712.472656 228.578125 712.734375 228.578125 M 713.496094 232.980469 L 713.496094 239.746094 C 713.496094 240.273438 713.535156 240.621094 713.613281 240.796875 C 713.691406 240.972656 713.800781 241.101562 713.953125 241.1875 C 714.105469 241.273438 714.375 241.316406 714.773438 241.316406 L 714.773438 241.648438 L 710.683594 241.648438 L 710.683594 241.316406 C 711.09375 241.316406 711.371094 241.273438 711.511719 241.195312 C 711.65625 241.117188 711.765625 240.984375 711.847656 240.800781 C 711.929688 240.617188 711.972656 240.265625 711.972656 239.746094 L 711.972656 236.5 C 711.972656 235.585938 711.945312 235 711.890625 234.726562 C 711.847656 234.53125 711.777344 234.394531 711.6875 234.316406 C 711.59375 234.238281 711.472656 234.203125 711.308594 234.203125 C 711.140625 234.203125 710.929688 234.25 710.683594 234.339844 L 710.558594 234.011719 L 713.09375 232.980469 Z M 717.238281 236.398438 C 717.234375 237.648438 717.535156 238.628906 718.148438 239.339844 C 718.757812 240.050781 719.480469 240.40625 720.308594 240.40625 C 720.859375 240.40625 721.335938 240.253906 721.746094 239.953125 C 722.152344 239.648438 722.492188 239.128906 722.769531 238.394531 L 723.054688 238.578125 C 722.925781 239.417969 722.554688 240.179688 721.933594 240.871094 C 721.3125 241.558594 720.542969 241.90625 719.609375 241.90625 C 718.597656 241.90625 717.734375 241.507812 717.011719 240.722656 C 716.292969 239.9375 715.933594 238.875 715.933594 237.546875 C 715.933594 236.109375 716.300781 234.984375 717.039062 234.179688 C 717.78125 233.375 718.703125 232.972656 719.820312 232.972656 C 720.761719 232.972656 721.539062 233.285156 722.144531 233.90625 C 722.75 234.523438 723.054688 235.355469 723.054688 236.398438 L 717.238281 236.398438 M 717.238281 235.867188 L 721.132812 235.867188 C 721.101562 235.328125 721.039062 234.949219 720.941406 234.726562 C 720.789062 234.382812 720.558594 234.117188 720.257812 233.917969 C 719.953125 233.722656 719.636719 233.625 719.304688 233.625 C 718.796875 233.625 718.339844 233.820312 717.941406 234.21875 C 717.539062 234.613281 717.304688 235.164062 717.238281 235.867188 Z M 729.617188 232.980469 L 729.617188 235.847656 L 729.3125 235.847656 C 729.078125 234.949219 728.78125 234.335938 728.417969 234.011719 C 728.054688 233.683594 727.589844 233.523438 727.023438 233.523438 C 726.597656 233.523438 726.25 233.636719 725.984375 233.863281 C 725.722656 234.089844 725.589844 234.339844 725.589844 234.617188 C 725.589844 234.960938 725.6875 235.253906 725.886719 235.5 C 726.074219 235.75 726.460938 236.019531 727.042969 236.296875 L 728.382812 236.949219 C 729.628906 237.558594 730.25 238.355469 730.25 239.351562 C 730.25 240.117188 729.960938 240.734375 729.382812 241.203125 C 728.804688 241.671875 728.15625 241.90625 727.4375 241.90625 C 726.921875 241.90625 726.335938 241.8125 725.671875 241.628906 C 725.472656 241.570312 725.304688 241.535156 725.175781 241.535156 C 725.035156 241.535156 724.925781 241.613281 724.847656 241.777344 L 724.542969 241.777344 L 724.542969 238.769531 L 724.847656 238.769531 C 725.015625 239.628906 725.347656 240.273438 725.828125 240.710938 C 726.3125 241.144531 726.855469 241.363281 727.457031 241.363281 C 727.878906 241.363281 728.222656 241.238281 728.492188 240.988281 C 728.757812 240.742188 728.890625 240.441406 728.890625 240.09375 C 728.890625 239.671875 728.742188 239.316406 728.445312 239.027344 C 728.144531 238.738281 727.554688 238.375 726.667969 237.933594 C 725.78125 237.492188 725.195312 237.09375 724.921875 236.738281 C 724.644531 236.390625 724.507812 235.949219 724.507812 235.417969 C 724.507812 234.722656 724.746094 234.144531 725.21875 233.679688 C 725.691406 233.214844 726.308594 232.980469 727.0625 232.980469 C 727.390625 232.980469 727.792969 233.050781 728.265625 233.191406 C 728.578125 233.285156 728.785156 233.332031 728.890625 233.332031 C 728.988281 233.332031 729.066406 233.308594 729.121094 233.265625 C 729.175781 233.226562 729.238281 233.128906 729.3125 232.980469 Z M 613.347656 224.875 "/>
</svg>
