<?xml version="1.0" encoding="UTF-8" standalone="no"?>
<!DOCTYPE svg PUBLIC "-//W3C//DTD SVG 1.1//EN"
 "http://www.w3.org/Graphics/SVG/1.1/DTD/svg11.dtd">
<!-- Generated by graphviz version 2.40.1 (20161225.0304)
 -->
<!-- Title: sfm Pages: 1 -->
<svg width="676pt" height="161pt"
 viewBox="0.00 0.00 675.89 161.43" xmlns="http://www.w3.org/2000/svg" xmlns:xlink="http://www.w3.org/1999/xlink">
<defs><style type="text/css"><![CDATA[
@font-face { font-family: 'stix-two-text'; font-style: normal; font-weight: 400; src: url(https://cdn.jsdelivr.net/npm/@fontsource/stix-two-text@5/files/stix-two-text-latin-400-normal.woff2) format('woff2'); }
@font-face { font-family: 'stix-two-text'; font-style: normal; font-weight: 700; src: url(https://cdn.jsdelivr.net/npm/@fontsource/stix-two-text@5/files/stix-two-text-latin-700-normal.woff2) format('woff2'), url(https://cdn.jsdelivr.net/npm/@fontsource/stix-two-text@5/files/stix-two-text-latin-400-normal.woff2) format('woff2'); }
@font-face { font-family: 'stix-two-text'; font-style: italic; font-weight: 400; src: url(https://cdn.jsdelivr.net/npm/@fontsource/stix-two-text@5/files/stix-two-text-latin-400-italic.woff2) format('woff2'), url(https://cdn.jsdelivr.net/npm/@fontsource/stix-two-text@5/files/stix-two-text-latin-400-normal.woff2) format('woff2'); }
@font-face { font-family: 'stix-two-text'; font-style: italic; font-weight: 700; src: url(https://cdn.jsdelivr.net/npm/@fontsource/stix-two-text@5/files/stix-two-text-latin-700-italic.woff2) format('woff2'), url(https://cdn.jsdelivr.net/npm/@fontsource/stix-two-text@5/files/stix-two-text-latin-400-normal.woff2) format('woff2'); }
]]></style></defs>
<g id="graph0" class="graph" transform="scale(1 1) rotate(0) translate(7.2 154.2331)">
<title>sfm</title>
<polygon fill="#ffffff" stroke="transparent" points="-7.2,7.2 -7.2,-154.2331 668.6891,-154.2331 668.6891,7.2 -7.2,7.2"/>
<!-- infected&#45;&gt;new_infections -->
<g id="edge6" class="edge">
<title>infected:n&#45;&gt;new_infections:n</title>
<path fill="none" stroke="#999999" d="M329.2526,-95.4947C329.2526,-152.3159 208.1332,-165.9471 196.3052,-115.7351"/>
<polygon fill="#999999" stroke="#999999" points="195.3788,-107.4947 199.8501,-115.0424 195.8257,-111.4697 196.2726,-115.4447 196.2726,-115.4447 196.2726,-115.4447 195.8257,-111.4697 192.6951,-115.8469 195.3788,-107.4947 195.3788,-107.4947"/>
</g>
<!-- infected&#45;&gt;new_recoveries -->
<g id="edge2" class="edge">
<title>infected:e&#45;&gt;new_recoveries:w</title>
<path fill="none" stroke="#000000" stroke-width="1.1" d="M366.2526,-73.4947C382.4653,-73.4947 386.5185,-73.4947 402.7312,-73.4947"/>
<path fill="none" stroke="#f48153" stroke-width="1.1" d="M366.2526,-75.4947C382.4653,-75.4947 386.5185,-75.4947 402.7312,-75.4947"/>
<path fill="none" stroke="#000000" stroke-width="1.1" d="M366.2526,-77.4947C382.4653,-77.4947 386.5185,-77.4947 402.7312,-77.4947"/>
</g>
<!-- infected&#45;&gt;new_recoveries -->
<g id="edge7" class="edge">
<title>infected:s&#45;&gt;new_recoveries:s</title>
<path fill="none" stroke="#999999" d="M329.2526,-55.4947C329.2526,3.1624 454.9626,10.4542 466.7479,-42.278"/>
<polygon fill="#999999" stroke="#999999" points="467.6316,-50.4947 463.1967,-42.9256 467.2038,-46.5177 466.776,-42.5406 466.776,-42.5406 466.776,-42.5406 467.2038,-46.5177 470.3554,-42.1556 467.6316,-50.4947 467.6316,-50.4947"/>
</g>
<!-- susceptible&#45;&gt;new_infections -->
<g id="edge1" class="edge">
<title>susceptible:e&#45;&gt;new_infections:w</title>
<path fill="none" stroke="#000000" stroke-width="1.1" d="M98.4918,-73.4947C114.886,-73.4947 118.9846,-73.4947 135.3788,-73.4947"/>
<path fill="none" stroke="#f48153" stroke-width="1.1" d="M98.4918,-75.4947C114.886,-75.4947 118.9846,-75.4947 135.3788,-75.4947"/>
<path fill="none" stroke="#000000" stroke-width="1.1" d="M98.4918,-77.4947C114.886,-77.4947 118.9846,-77.4947 135.3788,-77.4947"/>
</g>
<!-- susceptible&#45;&gt;new_infections -->
<g id="edge5" class="edge">
<title>susceptible:s&#45;&gt;new_infections:s</title>
<path fill="none" stroke="#999999" d="M49.4918,-55.4947C49.4918,6.7675 183.111,20.4337 194.5939,-35.5333"/>
<polygon fill="#999999" stroke="#999999" points="195.3788,-43.4947 191.0112,-35.8866 194.9863,-39.514 194.5938,-35.5333 194.5938,-35.5333 194.5938,-35.5333 194.9863,-39.514 198.1764,-35.1801 195.3788,-43.4947 195.3788,-43.4947"/>
</g>
<!-- new_infections&#45;&gt;infected -->
<g id="edge3" class="edge">
<title>new_infections:e&#45;&gt;infected:w</title>
<path fill="none" stroke="#000000" stroke-width="1.1" d="M255.3788,-73.4947C265.3655,-73.4947 270.7879,-73.4947 277.2088,-73.4947"/>
<path fill="none" stroke="#f48153" stroke-width="1.1" d="M255.3788,-75.4947C265.3655,-75.4947 270.7879,-75.4947 277.2088,-75.4947"/>
<path fill="none" stroke="#000000" stroke-width="1.1" d="M255.3788,-77.4947C265.3655,-77.4947 270.7879,-77.4947 277.2088,-77.4947"/>
<polygon fill="#000000" stroke="#000000" stroke-width="1.1" points="277.2526,-80.7448 292.2526,-75.4947 277.2526,-70.2448 277.2526,-80.7448"/>
</g>
<!-- new_recoveries&#45;&gt;recovered -->
<g id="edge4" class="edge">
<title>new_recoveries:e&#45;&gt;recovered:w</title>
<path fill="none" stroke="#000000" stroke-width="1.1" d="M532.5319,-73.4947C542.1582,-73.4947 547.4978,-73.4947 553.6411,-73.4947"/>
<path fill="none" stroke="#f48153" stroke-width="1.1" d="M532.5319,-75.4947C542.1582,-75.4947 547.4978,-75.4947 553.6411,-75.4947"/>
<path fill="none" stroke="#000000" stroke-width="1.1" d="M532.5319,-77.4947C542.1582,-77.4947 547.4978,-77.4947 553.6411,-77.4947"/>
<polygon fill="#000000" stroke="#000000" stroke-width="1.1" points="554.0105,-80.7448 569.0105,-75.4947 554.0105,-70.2448 554.0105,-80.7448"/>
</g>
<!-- infected -->
<g id="infected" class="node">
<title>infected</title>
<g id="a_infected"><a xlink:title="Stock: Infected&#10;Name: infected&#10;Initial value: 1&#10;Inflows: New infections&#10;Outflows: New recoveries">
<polygon fill="#83d3d4" stroke="#000000" points="366.7098,-94.9947 291.7954,-94.9947 291.7954,-55.9947 366.7098,-55.9947 366.7098,-94.9947"/>
<text text-anchor="start" x="299.774" y="-75.7947" font-family="stix-two-text" font-size="18.00" fill="#000000">Infected</text>
<text text-anchor="start" x="309.7019" y="-62.2947" font-family="stix-two-text" font-size="13.00" fill="#000000">eqn = 1</text>
</a>
</g>
</g>
<!-- recovered -->
<g id="recovered" class="node">
<title>recovered</title>
<g id="a_recovered"><a xlink:title="Stock: Recovered&#10;Name: recovered&#10;Initial value: 0&#10;Inflows: New recoveries&#10;Outflows: —">
<polygon fill="#83d3d4" stroke="#000000" points="661.4677,-94.9947 568.5533,-94.9947 568.5533,-55.9947 661.4677,-55.9947 661.4677,-94.9947"/>
<text text-anchor="start" x="576.5319" y="-75.7947" font-family="stix-two-text" font-size="18.00" fill="#000000">Recovered</text>
<text text-anchor="start" x="595.4598" y="-62.2947" font-family="stix-two-text" font-size="13.00" fill="#000000">eqn = 0</text>
</a>
</g>
</g>
<!-- susceptible -->
<g id="susceptible" class="node">
<title>susceptible</title>
<g id="a_susceptible"><a xlink:title="Stock: Susceptible&#10;Name: susceptible&#10;Initial value: 99999&#10;Inflows: —&#10;Outflows: New infections">
<polygon fill="#83d3d4" stroke="#000000" points="98.9754,-94.9947 .0082,-94.9947 .0082,-55.9947 98.9754,-55.9947 98.9754,-94.9947"/>
<text text-anchor="start" x="8" y="-75.7947" font-family="stix-two-text" font-size="18.00" fill="#000000">Susceptible</text>
<text text-anchor="start" x="16.9411" y="-62.2947" font-family="stix-two-text" font-size="13.00" fill="#000000">eqn = 99999</text>
</a>
</g>
</g>
<!-- new_infections -->
<g id="new_infections" class="node">
<title>new_infections</title>
<g id="a_new_infections"><a xlink:title="Flow: New infections&#10;Name: new_infections&#10;Equation: infection_rate * susceptible * infected&#10;From: Susceptible&#10;To: Infected">
<text text-anchor="start" x="146.7308" y="-89.5947" font-family="stix-two-text" font-size="16.00" fill="#000000">New infections</text>
<text text-anchor="start" x="142.9836" y="-76.2947" font-family="stix-two-text" font-size="13.00" fill="#000000">eqn = infection_rate</text>
<text text-anchor="start" x="156.748" y="-63.2947" font-family="stix-two-text" font-size="13.00" fill="#000000">* susceptible *</text>
<text text-anchor="start" x="174.4462" y="-50.2947" font-family="stix-two-text" font-size="13.00" fill="#000000">infected</text>
</a>
</g>
</g>
<!-- new_recoveries -->
<g id="new_recoveries" class="node">
<title>new_recoveries</title>
<g id="a_new_recoveries"><a xlink:title="Flow: New recoveries&#10;Name: new_recoveries&#10;Equation: recovery_rate * infected&#10;From: Infected&#10;To: Recovered">
<text text-anchor="start" x="417.6644" y="-83.0947" font-family="stix-two-text" font-size="16.00" fill="#000000">New recoveries</text>
<text text-anchor="start" x="410.7312" y="-69.7947" font-family="stix-two-text" font-size="13.00" fill="#000000">eqn = recovery_rate *</text>
<text text-anchor="start" x="446.699" y="-56.7947" font-family="stix-two-text" font-size="13.00" fill="#000000">infected</text>
</a>
</g>
</g>
</g>
</svg>

