<?xml version="1.0" encoding="UTF-8"?>
<svg xmlns="http://www.w3.org/2000/svg" xmlns:xlink="http://www.w3.org/1999/xlink" width="708" height="118" viewBox="0 0 708 118">
<path fill-rule="nonzero" fill="rgb(100%, 100%, 100%)" fill-opacity="1" d="M 0 86.257812 L 0 31.742188 L 708 31.742188 L 708 86.257812 Z M 0 86.257812 "/>
<path fill="none" stroke-width="1" stroke-linecap="butt" stroke-linejoin="miter" stroke="rgb(60%, 60%, 60%)" stroke-opacity="1" stroke-miterlimit="4" d="M 283.96706 -18 C 275.350641 -18 265.954195 -18 256.561359 -18 " transform="matrix(1.081692, 0, 0, 1.081692, 7.788183, 78.470459)"/>
<path fill-rule="nonzero" fill="rgb(60%, 60%, 60%)" fill-opacity="1" stroke-width="1" stroke-linecap="butt" stroke-linejoin="miter" stroke="rgb(60%, 60%, 60%)" stroke-opacity="1" stroke-miterlimit="4" d="M 256.33024 -15.201289 L 248.327732 -18 L 256.326629 -20.798711 Z M 256.33024 -15.201289 " transform="matrix(1.081692, 0, 0, 1.081692, 7.788183, 78.470459)"/>
<path fill="none" stroke-width="1.1" stroke-linecap="butt" stroke-linejoin="miter" stroke="rgb(0%, 0%, 0%)" stroke-opacity="1" stroke-miterlimit="4" d="M 358.759452 -15.999373 C 374.970308 -15.999373 379.02573 -15.999373 395.236587 -15.999373 " transform="matrix(1.081692, 0, 0, 1.081692, 7.788183, 78.470459)"/>
<path fill="none" stroke-width="1.1" stroke-linecap="butt" stroke-linejoin="miter" stroke="rgb(95.686275%, 50.588235%, 32.54902%)" stroke-opacity="1" stroke-miterlimit="4" d="M 358.759452 -18 C 374.970308 -18 379.02573 -18 395.236587 -18 " transform="matrix(1.081692, 0, 0, 1.081692, 7.788183, 78.470459)"/>
<path fill="none" stroke-width="1.1" stroke-linecap="butt" stroke-linejoin="miter" stroke="rgb(0%, 0%, 0%)" stroke-opacity="1" stroke-miterlimit="4" d="M 358.759452 -20.000627 C 374.970308 -20.000627 379.02573 -20.000627 395.236587 -20.000627 " transform="matrix(1.081692, 0, 0, 1.081692, 7.788183, 78.470459)"/>
<path fill="none" stroke-width="1" stroke-linecap="butt" stroke-linejoin="miter" stroke="rgb(60%, 60%, 60%)" stroke-opacity="1" stroke-miterlimit="4" d="M 359.42392 -18 C 367.993392 -18 377.342893 -18 386.710449 -18 " transform="matrix(1.081692, 0, 0, 1.081692, 7.788183, 78.470459)"/>
<path fill-rule="nonzero" fill="rgb(60%, 60%, 60%)" fill-opacity="1" stroke-width="1" stroke-linecap="butt" stroke-linejoin="miter" stroke="rgb(60%, 60%, 60%)" stroke-opacity="1" stroke-miterlimit="4" d="M 386.934346 -20.798711 L 394.933243 -18 L 386.930735 -15.201289 Z M 386.934346 -20.798711 " transform="matrix(1.081692, 0, 0, 1.081692, 7.788183, 78.470459)"/>
<path fill="none" stroke-width="1.1" stroke-linecap="butt" stroke-linejoin="miter" stroke="rgb(0%, 0%, 0%)" stroke-opacity="1" stroke-miterlimit="4" d="M 98.490162 -15.999373 C 114.711852 -15.999373 118.763663 -15.999373 134.985353 -15.999373 " transform="matrix(1.081692, 0, 0, 1.081692, 7.788183, 78.470459)"/>
<path fill="none" stroke-width="1.1" stroke-linecap="butt" stroke-linejoin="miter" stroke="rgb(95.686275%, 50.588235%, 32.54902%)" stroke-opacity="1" stroke-miterlimit="4" d="M 98.490162 -18 C 114.711852 -18 118.763663 -18 134.985353 -18 " transform="matrix(1.081692, 0, 0, 1.081692, 7.788183, 78.470459)"/>
<path fill="none" stroke-width="1.1" stroke-linecap="butt" stroke-linejoin="miter" stroke="rgb(0%, 0%, 0%)" stroke-opacity="1" stroke-miterlimit="4" d="M 98.490162 -20.000627 C 114.711852 -20.000627 118.763663 -20.000627 134.985353 -20.000627 " transform="matrix(1.081692, 0, 0, 1.081692, 7.788183, 78.470459)"/>
<path fill="none" stroke-width="1" stroke-linecap="butt" stroke-linejoin="miter" stroke="rgb(60%, 60%, 60%)" stroke-opacity="1" stroke-miterlimit="4" d="M 99.205187 -18 C 108.121339 -18 117.53223 -18 126.802283 -18 " transform="matrix(1.081692, 0, 0, 1.081692, 7.788183, 78.470459)"/>
<path fill-rule="nonzero" fill="rgb(60%, 60%, 60%)" fill-opacity="1" stroke-width="1" stroke-linecap="butt" stroke-linejoin="miter" stroke="rgb(60%, 60%, 60%)" stroke-opacity="1" stroke-miterlimit="4" d="M 126.892564 -20.798711 L 134.891461 -18 L 126.892564 -15.201289 Z M 126.892564 -20.798711 " transform="matrix(1.081692, 0, 0, 1.081692, 7.788183, 78.470459)"/>
<path fill="none" stroke-width="1.1" stroke-linecap="butt" stroke-linejoin="miter" stroke="rgb(0%, 0%, 0%)" stroke-opacity="1" stroke-miterlimit="4" d="M 248.280786 -15.999373 C 257.904741 -15.999373 263.245765 -15.999373 269.388484 -15.999373 " transform="matrix(1.081692, 0, 0, 1.081692, 7.788183, 78.470459)"/>
<path fill="none" stroke-width="1.1" stroke-linecap="butt" stroke-linejoin="miter" stroke="rgb(95.686275%, 50.588235%, 32.54902%)" stroke-opacity="1" stroke-miterlimit="4" d="M 248.280786 -18 C 257.904741 -18 263.245765 -18 269.388484 -18 " transform="matrix(1.081692, 0, 0, 1.081692, 7.788183, 78.470459)"/>
<path fill="none" stroke-width="1.1" stroke-linecap="butt" stroke-linejoin="miter" stroke="rgb(0%, 0%, 0%)" stroke-opacity="1" stroke-miterlimit="4" d="M 248.280786 -20.000627 C 257.904741 -20.000627 263.245765 -20.000627 269.388484 -20.000627 " transform="matrix(1.081692, 0, 0, 1.081692, 7.788183, 78.470459)"/>
<path fill-rule="nonzero" fill="rgb(0%, 0%, 0%)" fill-opacity="1" stroke-width="1.1" stroke-linecap="butt" stroke-linejoin="miter" stroke="rgb(0%, 0%, 0%)" stroke-opacity="1" stroke-miterlimit="4" d="M 269.75683 -23.250743 L 284.757921 -18 L 269.75683 -12.749257 Z M 269.75683 -23.250743 " transform="matrix(1.081692, 0, 0, 1.081692, 7.788183, 78.470459)"/>
<path fill="none" stroke-width="1.1" stroke-linecap="butt" stroke-linejoin="miter" stroke="rgb(0%, 0%, 0%)" stroke-opacity="1" stroke-miterlimit="4" d="M 511.171836 -15.999373 C 520.795791 -15.999373 526.136815 -15.999373 532.279534 -15.999373 " transform="matrix(1.081692, 0, 0, 1.081692, 7.788183, 78.470459)"/>
<path fill="none" stroke-width="1.1" stroke-linecap="butt" stroke-linejoin="miter" stroke="rgb(95.686275%, 50.588235%, 32.54902%)" stroke-opacity="1" stroke-miterlimit="4" d="M 511.171836 -18 C 520.795791 -18 526.136815 -18 532.279534 -18 " transform="matrix(1.081692, 0, 0, 1.081692, 7.788183, 78.470459)"/>
<path fill="none" stroke-width="1.1" stroke-linecap="butt" stroke-linejoin="miter" stroke="rgb(0%, 0%, 0%)" stroke-opacity="1" stroke-miterlimit="4" d="M 511.171836 -20.000627 C 520.795791 -20.000627 526.136815 -20.000627 532.279534 -20.000627 " transform="matrix(1.081692, 0, 0, 1.081692, 7.788183, 78.470459)"/>
<path fill-rule="nonzero" fill="rgb(0%, 0%, 0%)" fill-opacity="1" stroke-width="1.1" stroke-linecap="butt" stroke-linejoin="miter" stroke="rgb(0%, 0%, 0%)" stroke-opacity="1" stroke-miterlimit="4" d="M 532.651492 -23.250743 L 547.648971 -18 L 532.651492 -12.749257 Z M 532.651492 -23.250743 " transform="matrix(1.081692, 0, 0, 1.081692, 7.788183, 78.470459)"/>
<path fill-rule="nonzero" fill="rgb(51.372549%, 82.745098%, 83.137255%)" fill-opacity="1" stroke-width="1" stroke-linecap="butt" stroke-linejoin="miter" stroke="rgb(0%, 0%, 0%)" stroke-opacity="1" stroke-miterlimit="4" d="M 359.214468 -35.99842 L 284.299294 -35.99842 L 284.299294 -0.00157979 L 359.214468 -0.00157979 Z M 359.214468 -35.99842 " transform="matrix(1.081692, 0, 0, 1.081692, 7.788183, 78.470459)"/>
<path fill-rule="nonzero" fill="rgb(0%, 0%, 0%)" fill-opacity="1" d="M 329.953125 64.488281 L 329.953125 64.839844 L 324.433594 64.839844 L 324.433594 64.488281 L 324.890625 64.488281 C 325.421875 64.488281 325.804688 64.332031 326.046875 64.019531 C 326.199219 63.820312 326.273438 63.332031 326.273438 62.558594 L 326.273438 54.230469 C 326.273438 53.578125 326.234375 53.144531 326.152344 52.9375 C 326.089844 52.78125 325.957031 52.640625 325.761719 52.527344 C 325.484375 52.375 325.191406 52.296875 324.890625 52.296875 L 324.433594 52.296875 L 324.433594 51.949219 L 329.953125 51.949219 L 329.953125 52.296875 L 329.488281 52.296875 C 328.960938 52.296875 328.578125 52.453125 328.339844 52.761719 C 328.179688 52.96875 328.101562 53.457031 328.101562 54.230469 L 328.101562 62.558594 C 328.101562 63.210938 328.140625 63.640625 328.222656 63.851562 C 328.285156 64.011719 328.421875 64.148438 328.625 64.261719 C 328.894531 64.414062 329.1875 64.488281 329.488281 64.488281 Z M 333.574219 57.71875 C 334.59375 56.488281 335.566406 55.875 336.496094 55.875 C 336.96875 55.875 337.378906 55.992188 337.722656 56.230469 C 338.0625 56.46875 338.332031 56.863281 338.535156 57.402344 C 338.675781 57.78125 338.746094 58.371094 338.746094 59.152344 L 338.746094 62.871094 C 338.746094 63.425781 338.789062 63.796875 338.878906 63.996094 C 338.949219 64.152344 339.0625 64.277344 339.21875 64.367188 C 339.375 64.453125 339.660156 64.496094 340.078125 64.496094 L 340.078125 64.839844 L 335.769531 64.839844 L 335.769531 64.496094 L 335.949219 64.496094 C 336.355469 64.496094 336.640625 64.433594 336.804688 64.3125 C 336.964844 64.1875 337.074219 64.007812 337.136719 63.765625 C 337.164062 63.667969 337.179688 63.375 337.179688 62.871094 L 337.179688 59.304688 C 337.179688 58.515625 337.074219 57.9375 336.867188 57.582031 C 336.664062 57.222656 336.3125 57.042969 335.828125 57.042969 C 335.070312 57.042969 334.324219 57.457031 333.574219 58.28125 L 333.574219 62.871094 C 333.574219 63.460938 333.609375 63.824219 333.683594 63.964844 C 333.765625 64.152344 333.890625 64.28125 334.046875 64.371094 C 334.203125 64.453125 334.515625 64.496094 334.992188 64.496094 L 334.992188 64.839844 L 330.6875 64.839844 L 330.6875 64.496094 L 330.875 64.496094 C 331.320312 64.496094 331.621094 64.382812 331.773438 64.160156 C 331.929688 63.933594 332.007812 63.503906 332.007812 62.871094 L 332.007812 59.636719 C 332.007812 58.59375 331.984375 57.957031 331.9375 57.726562 C 331.886719 57.5 331.8125 57.34375 331.71875 57.261719 C 331.621094 57.179688 331.484375 57.140625 331.324219 57.140625 C 331.140625 57.140625 330.929688 57.1875 330.6875 57.28125 L 330.542969 56.9375 L 333.167969 55.875 L 333.574219 55.875 Z M 344.175781 56.816406 L 344.175781 62.539062 C 344.175781 63.351562 344.261719 63.863281 344.441406 64.078125 C 344.675781 64.359375 344.988281 64.496094 345.382812 64.496094 L 346.171875 64.496094 L 346.171875 64.839844 L 340.96875 64.839844 L 340.96875 64.496094 L 341.363281 64.496094 C 341.613281 64.496094 341.84375 64.433594 342.054688 64.308594 C 342.261719 64.179688 342.40625 64.011719 342.488281 63.792969 C 342.566406 63.582031 342.605469 63.160156 342.605469 62.539062 L 342.605469 56.816406 L 340.914062 56.816406 L 340.914062 56.132812 L 342.605469 56.132812 L 342.605469 55.5625 C 342.605469 54.695312 342.746094 53.960938 343.023438 53.355469 C 343.304688 52.753906 343.730469 52.265625 344.304688 51.898438 C 344.878906 51.523438 345.519531 51.339844 346.238281 51.339844 C 346.902344 51.339844 347.515625 51.554688 348.074219 51.984375 C 348.441406 52.273438 348.621094 52.589844 348.621094 52.945312 C 348.621094 53.136719 348.542969 53.316406 348.378906 53.480469 C 348.210938 53.652344 348.035156 53.734375 347.84375 53.734375 C 347.699219 53.734375 347.546875 53.683594 347.382812 53.578125 C 347.222656 53.472656 347.027344 53.25 346.789062 52.902344 C 346.554688 52.554688 346.339844 52.324219 346.140625 52.207031 C 345.949219 52.082031 345.726562 52.023438 345.488281 52.023438 C 345.195312 52.023438 344.945312 52.101562 344.742188 52.257812 C 344.539062 52.414062 344.398438 52.652344 344.308594 52.980469 C 344.21875 53.304688 344.175781 54.148438 344.175781 55.5 L 344.175781 56.132812 L 346.417969 56.132812 L 346.417969 56.816406 Z M 348.71875 59.410156 C 348.714844 60.703125 349.027344 61.71875 349.660156 62.453125 C 350.296875 63.1875 351.039062 63.554688 351.898438 63.554688 C 352.46875 63.554688 352.960938 63.398438 353.382812 63.085938 C 353.808594 62.773438 354.160156 62.238281 354.445312 61.476562 L 354.742188 61.660156 C 354.605469 62.53125 354.222656 63.324219 353.578125 64.035156 C 352.941406 64.75 352.136719 65.105469 351.175781 65.105469 C 350.132812 65.105469 349.234375 64.699219 348.488281 63.882812 C 347.742188 63.070312 347.371094 61.976562 347.371094 60.597656 C 347.371094 59.109375 347.753906 57.949219 348.515625 57.117188 C 349.28125 56.28125 350.242188 55.863281 351.394531 55.863281 C 352.371094 55.863281 353.171875 56.1875 353.796875 56.828125 C 354.425781 57.476562 354.742188 58.332031 354.742188 59.410156 L 348.71875 59.410156 M 348.71875 58.859375 L 352.75 58.859375 C 352.722656 58.304688 352.652344 57.910156 352.550781 57.683594 C 352.394531 57.328125 352.160156 57.046875 351.847656 56.84375 C 351.53125 56.640625 351.203125 56.539062 350.863281 56.539062 C 350.332031 56.539062 349.863281 56.742188 349.449219 57.152344 C 349.03125 57.5625 348.792969 58.128906 348.71875 58.859375 Z M 363.292969 61.53125 C 363.0625 62.679688 362.601562 63.558594 361.914062 64.179688 C 361.230469 64.796875 360.476562 65.105469 359.640625 65.105469 C 358.652344 65.105469 357.792969 64.691406 357.054688 63.859375 C 356.320312 63.03125 355.957031 61.90625 355.957031 60.496094 C 355.957031 59.125 356.363281 58.011719 357.179688 57.15625 C 357.992188 56.304688 358.96875 55.875 360.113281 55.875 C 360.964844 55.875 361.671875 56.101562 362.21875 56.554688 C 362.773438 57.003906 363.046875 57.480469 363.046875 57.964844 C 363.046875 58.207031 362.972656 58.398438 362.816406 58.550781 C 362.660156 58.699219 362.445312 58.773438 362.164062 58.773438 C 361.789062 58.773438 361.511719 58.652344 361.316406 58.414062 C 361.210938 58.28125 361.136719 58.027344 361.105469 57.652344 C 361.070312 57.28125 360.941406 56.992188 360.71875 56.792969 C 360.496094 56.609375 360.1875 56.511719 359.792969 56.511719 C 359.160156 56.511719 358.652344 56.746094 358.265625 57.21875 C 357.753906 57.839844 357.496094 58.65625 357.496094 59.675781 C 357.496094 60.714844 357.75 61.632812 358.261719 62.429688 C 358.773438 63.226562 359.460938 63.621094 360.328125 63.621094 C 360.949219 63.621094 361.511719 63.410156 362 62.984375 C 362.351562 62.691406 362.6875 62.164062 363.019531 61.398438 Z M 367.070312 53.269531 L 367.070312 56.132812 L 369.105469 56.132812 L 369.105469 56.792969 L 367.070312 56.792969 L 367.070312 62.445312 C 367.070312 63.011719 367.15625 63.390625 367.316406 63.585938 C 367.476562 63.78125 367.683594 63.878906 367.9375 63.878906 C 368.148438 63.878906 368.351562 63.8125 368.546875 63.6875 C 368.742188 63.554688 368.894531 63.363281 369 63.105469 L 369.375 63.105469 C 369.148438 63.730469 368.835938 64.195312 368.429688 64.511719 C 368.027344 64.828125 367.605469 64.984375 367.175781 64.984375 C 366.882812 64.984375 366.601562 64.902344 366.324219 64.738281 C 366.042969 64.578125 365.835938 64.34375 365.703125 64.046875 C 365.570312 63.746094 365.503906 63.28125 365.503906 62.652344 L 365.503906 56.792969 L 364.125 56.792969 L 364.125 56.480469 C 364.472656 56.34375 364.832031 56.105469 365.195312 55.777344 C 365.558594 55.441406 365.882812 55.046875 366.171875 54.589844 C 366.3125 54.351562 366.515625 53.910156 366.777344 53.269531 Z M 371.414062 59.410156 C 371.410156 60.703125 371.722656 61.71875 372.355469 62.453125 C 372.992188 63.1875 373.734375 63.554688 374.589844 63.554688 C 375.160156 63.554688 375.65625 63.398438 376.078125 63.085938 C 376.5 62.773438 376.855469 62.238281 377.140625 61.476562 L 377.433594 61.660156 C 377.300781 62.53125 376.914062 63.324219 376.273438 64.035156 C 375.636719 64.75 374.832031 65.105469 373.871094 65.105469 C 372.824219 65.105469 371.929688 64.699219 371.183594 63.882812 C 370.4375 63.070312 370.066406 61.976562 370.066406 60.597656 C 370.066406 59.109375 370.445312 57.949219 371.210938 57.117188 C 371.976562 56.28125 372.933594 55.863281 374.089844 55.863281 C 375.066406 55.863281 375.867188 56.1875 376.492188 56.828125 C 377.117188 57.476562 377.433594 58.332031 377.433594 59.410156 L 371.414062 59.410156 M 371.414062 58.859375 L 375.445312 58.859375 C 375.414062 58.304688 375.347656 57.910156 375.246094 57.683594 C 375.089844 57.328125 374.855469 57.046875 374.539062 56.84375 C 374.222656 56.640625 373.898438 56.539062 373.554688 56.539062 C 373.027344 56.539062 372.558594 56.742188 372.144531 57.152344 C 371.726562 57.5625 371.484375 58.128906 371.414062 58.859375 Z M 384.746094 63.859375 C 384.320312 64.304688 383.90625 64.625 383.5 64.8125 C 383.09375 65.007812 382.652344 65.105469 382.183594 65.105469 C 381.238281 65.105469 380.40625 64.707031 379.695312 63.914062 C 378.984375 63.117188 378.632812 62.097656 378.632812 60.847656 C 378.632812 59.601562 379.023438 58.453125 379.808594 57.417969 C 380.597656 56.382812 381.605469 55.863281 382.84375 55.863281 C 383.609375 55.863281 384.242188 56.109375 384.746094 56.597656 L 384.746094 54.988281 C 384.746094 53.996094 384.71875 53.382812 384.671875 53.15625 C 384.625 52.929688 384.550781 52.773438 384.449219 52.6875 C 384.347656 52.605469 384.222656 52.566406 384.070312 52.566406 C 383.90625 52.566406 383.683594 52.617188 383.414062 52.71875 L 383.292969 52.382812 L 385.886719 51.316406 L 386.3125 51.316406 L 386.3125 61.386719 C 386.3125 62.410156 386.339844 63.03125 386.382812 63.253906 C 386.429688 63.484375 386.507812 63.640625 386.613281 63.726562 C 386.71875 63.816406 386.835938 63.859375 386.976562 63.859375 C 387.148438 63.859375 387.378906 63.808594 387.660156 63.699219 L 387.765625 64.03125 L 385.179688 65.105469 L 384.746094 65.105469 L 384.746094 63.859375 M 384.746094 63.195312 L 384.746094 58.707031 C 384.707031 58.277344 384.59375 57.882812 384.402344 57.53125 C 384.210938 57.175781 383.960938 56.902344 383.648438 56.726562 C 383.332031 56.546875 383.027344 56.457031 382.730469 56.457031 C 382.171875 56.457031 381.671875 56.707031 381.238281 57.203125 C 380.660156 57.863281 380.371094 58.828125 380.371094 60.09375 C 380.371094 61.375 380.652344 62.355469 381.207031 63.039062 C 381.765625 63.71875 382.386719 64.0625 383.070312 64.0625 C 383.648438 64.0625 384.203125 63.769531 384.746094 63.195312 Z M 323.945312 47.488281 "/>
<path fill-rule="nonzero" fill="rgb(51.372549%, 82.745098%, 83.137255%)" fill-opacity="1" stroke-width="1" stroke-linecap="butt" stroke-linejoin="miter" stroke="rgb(0%, 0%, 0%)" stroke-opacity="1" stroke-miterlimit="4" d="M 640.107549 -35.99842 L 547.193955 -35.99842 L 547.193955 -0.00157979 L 640.107549 -0.00157979 Z M 640.107549 -35.99842 " transform="matrix(1.081692, 0, 0, 1.081692, 7.788183, 78.470459)"/>
<path fill-rule="nonzero" fill="rgb(0%, 0%, 0%)" fill-opacity="1" d="M 621.472656 64.839844 L 618.03125 64.839844 L 613.667969 58.8125 C 613.339844 58.828125 613.078125 58.832031 612.875 58.832031 C 612.792969 58.832031 612.707031 58.832031 612.609375 58.828125 C 612.511719 58.824219 612.417969 58.816406 612.316406 58.8125 L 612.316406 62.558594 C 612.316406 63.367188 612.402344 63.871094 612.582031 64.070312 C 612.820312 64.347656 613.183594 64.488281 613.667969 64.488281 L 614.167969 64.488281 L 614.167969 64.839844 L 608.648438 64.839844 L 608.648438 64.488281 L 609.132812 64.488281 C 609.671875 64.488281 610.066406 64.3125 610.300781 63.957031 C 610.433594 63.757812 610.503906 63.292969 610.503906 62.558594 L 610.503906 54.230469 C 610.503906 53.417969 610.410156 52.914062 610.230469 52.71875 C 609.988281 52.4375 609.617188 52.296875 609.132812 52.296875 L 608.648438 52.296875 L 608.648438 51.949219 L 613.339844 51.949219 C 614.710938 51.949219 615.71875 52.050781 616.371094 52.246094 C 617.023438 52.445312 617.570312 52.8125 618.023438 53.351562 C 618.480469 53.886719 618.703125 54.523438 618.703125 55.265625 C 618.703125 56.058594 618.445312 56.746094 617.929688 57.328125 C 617.414062 57.914062 616.613281 58.324219 615.53125 58.566406 L 618.191406 62.261719 C 618.800781 63.109375 619.324219 63.675781 619.757812 63.957031 C 620.195312 64.234375 620.769531 64.414062 621.472656 64.488281 L 621.472656 64.839844 M 612.316406 58.214844 C 612.4375 58.214844 612.539062 58.214844 612.632812 58.21875 C 612.714844 58.222656 612.792969 58.222656 612.847656 58.222656 C 614.078125 58.222656 615.007812 57.957031 615.628906 57.425781 C 616.253906 56.890625 616.566406 56.214844 616.566406 55.390625 C 616.566406 54.585938 616.3125 53.929688 615.808594 53.425781 C 615.304688 52.925781 614.636719 52.671875 613.804688 52.671875 C 613.4375 52.671875 612.945312 52.730469 612.316406 52.851562 Z M 623.371094 59.410156 C 623.367188 60.703125 623.679688 61.71875 624.316406 62.453125 C 624.949219 63.1875 625.691406 63.554688 626.550781 63.554688 C 627.121094 63.554688 627.613281 63.398438 628.039062 63.085938 C 628.460938 62.773438 628.816406 62.238281 629.097656 61.476562 L 629.394531 61.660156 C 629.257812 62.53125 628.875 63.324219 628.230469 64.035156 C 627.59375 64.75 626.789062 65.105469 625.828125 65.105469 C 624.785156 65.105469 623.886719 64.699219 623.140625 63.882812 C 622.394531 63.070312 622.023438 61.976562 622.023438 60.597656 C 622.023438 59.109375 622.40625 57.949219 623.167969 57.117188 C 623.933594 56.28125 624.894531 55.863281 626.046875 55.863281 C 627.023438 55.863281 627.824219 56.1875 628.453125 56.828125 C 629.078125 57.476562 629.394531 58.332031 629.394531 59.410156 L 623.371094 59.410156 M 623.371094 58.859375 L 627.402344 58.859375 C 627.375 58.304688 627.304688 57.910156 627.203125 57.683594 C 627.046875 57.328125 626.8125 57.046875 626.5 56.84375 C 626.183594 56.640625 625.855469 56.539062 625.515625 56.539062 C 624.988281 56.539062 624.515625 56.742188 624.101562 57.152344 C 623.683594 57.5625 623.445312 58.128906 623.371094 58.859375 Z M 637.945312 61.53125 C 637.714844 62.679688 637.253906 63.558594 636.566406 64.179688 C 635.882812 64.796875 635.128906 65.105469 634.296875 65.105469 C 633.304688 65.105469 632.445312 64.691406 631.710938 63.859375 C 630.972656 63.03125 630.609375 61.90625 630.609375 60.496094 C 630.609375 59.125 631.015625 58.011719 631.832031 57.15625 C 632.644531 56.304688 633.625 55.875 634.765625 55.875 C 635.617188 55.875 636.324219 56.101562 636.871094 56.554688 C 637.425781 57.003906 637.699219 57.480469 637.699219 57.964844 C 637.699219 58.207031 637.625 58.398438 637.46875 58.550781 C 637.3125 58.699219 637.097656 58.773438 636.816406 58.773438 C 636.441406 58.773438 636.164062 58.652344 635.96875 58.414062 C 635.863281 58.28125 635.789062 58.027344 635.757812 57.652344 C 635.722656 57.28125 635.59375 56.992188 635.371094 56.792969 C 635.148438 56.609375 634.839844 56.511719 634.445312 56.511719 C 633.8125 56.511719 633.304688 56.746094 632.917969 57.21875 C 632.40625 57.839844 632.148438 58.65625 632.148438 59.675781 C 632.148438 60.714844 632.402344 61.632812 632.914062 62.429688 C 633.425781 63.226562 634.113281 63.621094 634.980469 63.621094 C 635.601562 63.621094 636.164062 63.410156 636.652344 62.984375 C 637.003906 62.691406 637.339844 62.164062 637.671875 61.398438 Z M 643.453125 55.875 C 644.769531 55.875 645.824219 56.375 646.628906 57.378906 C 647.304688 58.230469 647.644531 59.214844 647.644531 60.324219 C 647.644531 61.105469 647.457031 61.890625 647.085938 62.691406 C 646.710938 63.488281 646.195312 64.089844 645.539062 64.496094 C 644.882812 64.902344 644.152344 65.105469 643.347656 65.105469 C 642.035156 65.105469 640.992188 64.582031 640.21875 63.539062 C 639.5625 62.65625 639.238281 61.667969 639.238281 60.570312 C 639.238281 59.773438 639.4375 58.980469 639.835938 58.1875 C 640.230469 57.398438 640.75 56.816406 641.398438 56.4375 C 642.042969 56.0625 642.730469 55.875 643.453125 55.875 M 643.15625 56.488281 C 642.820312 56.488281 642.484375 56.589844 642.144531 56.789062 C 641.804688 56.992188 641.53125 57.34375 641.320312 57.84375 C 641.109375 58.34375 641.007812 58.988281 641.007812 59.773438 C 641.007812 61.039062 641.257812 62.136719 641.765625 63.050781 C 642.269531 63.972656 642.929688 64.429688 643.753906 64.429688 C 644.367188 64.429688 644.878906 64.175781 645.277344 63.667969 C 645.675781 63.160156 645.875 62.292969 645.875 61.054688 C 645.875 59.511719 645.542969 58.292969 644.878906 57.402344 C 644.425781 56.792969 643.851562 56.488281 643.15625 56.488281 Z M 648.480469 56.132812 L 652.578125 56.132812 L 652.578125 56.480469 L 652.3125 56.480469 C 652.0625 56.480469 651.875 56.546875 651.746094 56.664062 C 651.613281 56.785156 651.550781 56.945312 651.550781 57.148438 C 651.550781 57.367188 651.617188 57.636719 651.75 57.933594 L 653.777344 62.746094 L 655.808594 57.757812 C 655.953125 57.402344 656.03125 57.132812 656.03125 56.945312 C 656.03125 56.863281 656.003906 56.785156 655.953125 56.730469 C 655.882812 56.632812 655.792969 56.570312 655.6875 56.535156 C 655.578125 56.5 655.359375 56.480469 655.027344 56.480469 L 655.027344 56.132812 L 657.871094 56.132812 L 657.871094 56.480469 C 657.542969 56.507812 657.316406 56.574219 657.1875 56.683594 C 656.96875 56.875 656.765625 57.191406 656.59375 57.632812 L 653.5 65.105469 L 653.109375 65.105469 L 650 57.757812 C 649.859375 57.414062 649.730469 57.171875 649.601562 57.019531 C 649.476562 56.871094 649.3125 56.746094 649.117188 56.640625 C 649.007812 56.585938 648.796875 56.53125 648.480469 56.480469 Z M 660.125 59.410156 C 660.121094 60.703125 660.433594 61.71875 661.066406 62.453125 C 661.699219 63.1875 662.445312 63.554688 663.300781 63.554688 C 663.871094 63.554688 664.367188 63.398438 664.789062 63.085938 C 665.210938 62.773438 665.566406 62.238281 665.851562 61.476562 L 666.144531 61.660156 C 666.011719 62.53125 665.625 63.324219 664.984375 64.035156 C 664.347656 64.75 663.542969 65.105469 662.578125 65.105469 C 661.535156 65.105469 660.640625 64.699219 659.890625 63.882812 C 659.148438 63.070312 658.777344 61.976562 658.777344 60.597656 C 658.777344 59.109375 659.15625 57.949219 659.921875 57.117188 C 660.6875 56.28125 661.644531 55.863281 662.800781 55.863281 C 663.773438 55.863281 664.578125 56.1875 665.203125 56.828125 C 665.828125 57.476562 666.144531 58.332031 666.144531 59.410156 L 660.125 59.410156 M 660.125 58.859375 L 664.15625 58.859375 C 664.125 58.304688 664.058594 57.910156 663.957031 57.683594 C 663.800781 57.328125 663.5625 57.046875 663.25 56.84375 C 662.933594 56.640625 662.609375 56.539062 662.265625 56.539062 C 661.738281 56.539062 661.269531 56.742188 660.855469 57.152344 C 660.4375 57.5625 660.195312 58.128906 660.125 58.859375 Z M 669.851562 55.875 L 669.851562 57.832031 C 670.578125 56.527344 671.324219 55.875 672.09375 55.875 C 672.441406 55.875 672.734375 55.980469 672.960938 56.195312 C 673.1875 56.40625 673.304688 56.652344 673.304688 56.929688 C 673.304688 57.175781 673.21875 57.386719 673.054688 57.554688 C 672.890625 57.726562 672.695312 57.8125 672.46875 57.8125 C 672.242188 57.8125 671.992188 57.703125 671.71875 57.488281 C 671.445312 57.269531 671.242188 57.15625 671.105469 57.15625 C 670.992188 57.15625 670.871094 57.222656 670.734375 57.347656 C 670.453125 57.609375 670.15625 58.035156 669.851562 58.632812 L 669.851562 62.804688 C 669.851562 63.289062 669.910156 63.652344 670.03125 63.898438 C 670.113281 64.070312 670.261719 64.214844 670.46875 64.324219 C 670.679688 64.441406 670.980469 64.496094 671.371094 64.496094 L 671.371094 64.839844 L 666.914062 64.839844 L 666.914062 64.496094 C 667.359375 64.496094 667.6875 64.429688 667.902344 64.289062 C 668.058594 64.1875 668.167969 64.023438 668.234375 63.804688 C 668.265625 63.695312 668.285156 63.390625 668.285156 62.878906 L 668.285156 59.507812 C 668.285156 58.492188 668.261719 57.890625 668.21875 57.695312 C 668.179688 57.5 668.101562 57.359375 667.992188 57.273438 C 667.882812 57.183594 667.742188 57.140625 667.578125 57.140625 C 667.382812 57.140625 667.160156 57.1875 666.914062 57.28125 L 666.816406 56.9375 L 669.449219 55.875 Z M 675.25 59.410156 C 675.246094 60.703125 675.558594 61.71875 676.195312 62.453125 C 676.828125 63.1875 677.570312 63.554688 678.429688 63.554688 C 679 63.554688 679.492188 63.398438 679.917969 63.085938 C 680.339844 62.773438 680.695312 62.238281 680.976562 61.476562 L 681.273438 61.660156 C 681.136719 62.53125 680.753906 63.324219 680.109375 64.035156 C 679.472656 64.75 678.667969 65.105469 677.707031 65.105469 C 676.664062 65.105469 675.765625 64.699219 675.019531 63.882812 C 674.273438 63.070312 673.902344 61.976562 673.902344 60.597656 C 673.902344 59.109375 674.285156 57.949219 675.046875 57.117188 C 675.8125 56.28125 676.773438 55.863281 677.925781 55.863281 C 678.902344 55.863281 679.703125 56.1875 680.332031 56.828125 C 680.957031 57.476562 681.273438 58.332031 681.273438 59.410156 L 675.25 59.410156 M 675.25 58.859375 L 679.28125 58.859375 C 679.253906 58.304688 679.183594 57.910156 679.082031 57.683594 C 678.925781 57.328125 678.691406 57.046875 678.378906 56.84375 C 678.0625 56.640625 677.734375 56.539062 677.394531 56.539062 C 676.867188 56.539062 676.394531 56.742188 675.980469 57.152344 C 675.5625 57.5625 675.324219 58.128906 675.25 58.859375 Z M 688.582031 63.859375 C 688.15625 64.304688 687.742188 64.625 687.335938 64.8125 C 686.929688 65.007812 686.492188 65.105469 686.023438 65.105469 C 685.074219 65.105469 684.242188 64.707031 683.53125 63.914062 C 682.824219 63.117188 682.46875 62.097656 682.46875 60.847656 C 682.46875 59.601562 682.859375 58.453125 683.648438 57.417969 C 684.433594 56.382812 685.441406 55.863281 686.679688 55.863281 C 687.445312 55.863281 688.078125 56.109375 688.582031 56.597656 L 688.582031 54.988281 C 688.582031 53.996094 688.558594 53.382812 688.511719 53.15625 C 688.464844 52.929688 688.386719 52.773438 688.285156 52.6875 C 688.183594 52.605469 688.058594 52.566406 687.90625 52.566406 C 687.742188 52.566406 687.523438 52.617188 687.25 52.71875 L 687.128906 52.382812 L 689.722656 51.316406 L 690.148438 51.316406 L 690.148438 61.386719 C 690.148438 62.410156 690.175781 63.03125 690.222656 63.253906 C 690.269531 63.484375 690.34375 63.640625 690.449219 63.726562 C 690.554688 63.816406 690.675781 63.859375 690.8125 63.859375 C 690.988281 63.859375 691.214844 63.808594 691.496094 63.699219 L 691.605469 64.03125 L 689.019531 65.105469 L 688.582031 65.105469 L 688.582031 63.859375 M 688.582031 63.195312 L 688.582031 58.707031 C 688.542969 58.277344 688.429688 57.882812 688.238281 57.53125 C 688.050781 57.175781 687.796875 56.902344 687.484375 56.726562 C 687.171875 56.546875 686.863281 56.457031 686.566406 56.457031 C 686.007812 56.457031 685.511719 56.707031 685.074219 57.203125 C 684.496094 57.863281 684.210938 58.828125 684.210938 60.09375 C 684.210938 61.375 684.488281 62.355469 685.046875 63.039062 C 685.605469 63.71875 686.226562 64.0625 686.910156 64.0625 C 687.484375 64.0625 688.042969 63.769531 688.582031 63.195312 Z M 608.3125 47.488281 "/>
<path fill-rule="nonzero" fill="rgb(51.372549%, 82.745098%, 83.137255%)" fill-opacity="1" stroke-width="1" stroke-linecap="butt" stroke-linejoin="miter" stroke="rgb(0%, 0%, 0%)" stroke-opacity="1" stroke-miterlimit="4" d="M 98.974068 -35.99842 L 0.00803525 -35.99842 L 0.00803525 -0.00157979 L 98.974068 -0.00157979 Z M 98.974068 -35.99842 " transform="matrix(1.081692, 0, 0, 1.081692, 7.788183, 78.470459)"/>
<path fill-rule="nonzero" fill="rgb(0%, 0%, 0%)" fill-opacity="1" d="M 25.371094 51.652344 L 25.371094 56.109375 L 25.019531 56.109375 C 24.902344 55.257812 24.699219 54.574219 24.402344 54.070312 C 24.109375 53.5625 23.6875 53.160156 23.144531 52.859375 C 22.597656 52.566406 22.035156 52.414062 21.453125 52.414062 C 20.792969 52.414062 20.25 52.617188 19.816406 53.015625 C 19.386719 53.417969 19.171875 53.878906 19.171875 54.390625 C 19.171875 54.78125 19.304688 55.140625 19.578125 55.46875 C 19.96875 55.941406 20.90625 56.574219 22.382812 57.367188 C 23.585938 58.011719 24.410156 58.511719 24.851562 58.855469 C 25.289062 59.199219 25.632812 59.609375 25.867188 60.078125 C 26.105469 60.546875 26.222656 61.035156 26.222656 61.550781 C 26.222656 62.527344 25.847656 63.367188 25.085938 64.074219 C 24.332031 64.78125 23.355469 65.136719 22.164062 65.136719 C 21.792969 65.136719 21.441406 65.105469 21.109375 65.050781 C 20.914062 65.015625 20.507812 64.902344 19.890625 64.699219 C 19.269531 64.5 18.878906 64.398438 18.714844 64.398438 C 18.554688 64.398438 18.433594 64.449219 18.339844 64.542969 C 18.246094 64.640625 18.179688 64.835938 18.132812 65.136719 L 17.78125 65.136719 L 17.78125 60.714844 L 18.132812 60.714844 C 18.296875 61.640625 18.519531 62.328125 18.800781 62.789062 C 19.078125 63.25 19.503906 63.632812 20.078125 63.933594 C 20.648438 64.238281 21.28125 64.390625 21.964844 64.390625 C 22.757812 64.390625 23.382812 64.183594 23.84375 63.765625 C 24.300781 63.347656 24.535156 62.855469 24.535156 62.28125 C 24.535156 61.964844 24.445312 61.644531 24.269531 61.324219 C 24.097656 61 23.824219 60.699219 23.457031 60.417969 C 23.210938 60.230469 22.535156 59.824219 21.433594 59.207031 C 20.328125 58.589844 19.546875 58.097656 19.078125 57.726562 C 18.613281 57.359375 18.257812 56.953125 18.023438 56.511719 C 17.777344 56.066406 17.660156 55.578125 17.660156 55.046875 C 17.660156 54.125 18.011719 53.324219 18.722656 52.65625 C 19.433594 51.984375 20.335938 51.652344 21.433594 51.652344 C 22.117188 51.652344 22.84375 51.820312 23.609375 52.15625 C 23.960938 52.316406 24.214844 52.394531 24.359375 52.394531 C 24.523438 52.394531 24.660156 52.34375 24.765625 52.246094 C 24.871094 52.152344 24.953125 51.953125 25.019531 51.652344 Z M 35.515625 56.132812 L 35.515625 61.410156 C 35.515625 62.414062 35.535156 63.03125 35.585938 63.253906 C 35.632812 63.484375 35.710938 63.640625 35.816406 63.726562 C 35.917969 63.816406 36.039062 63.859375 36.179688 63.859375 C 36.378906 63.859375 36.597656 63.808594 36.847656 63.699219 L 36.976562 64.03125 L 34.375 65.105469 L 33.949219 65.105469 L 33.949219 63.257812 C 33.195312 64.070312 32.625 64.582031 32.230469 64.792969 C 31.839844 65 31.425781 65.105469 30.988281 65.105469 C 30.5 65.105469 30.078125 64.964844 29.71875 64.683594 C 29.363281 64.398438 29.113281 64.035156 28.972656 63.59375 C 28.835938 63.148438 28.761719 62.523438 28.761719 61.710938 L 28.761719 57.824219 C 28.761719 57.410156 28.71875 57.128906 28.632812 56.96875 C 28.542969 56.8125 28.414062 56.6875 28.234375 56.601562 C 28.0625 56.515625 27.746094 56.476562 27.289062 56.480469 L 27.289062 56.132812 L 30.34375 56.132812 L 30.34375 61.957031 C 30.34375 62.769531 30.484375 63.300781 30.765625 63.554688 C 31.046875 63.808594 31.386719 63.933594 31.789062 63.933594 C 32.058594 63.933594 32.367188 63.851562 32.714844 63.683594 C 33.058594 63.507812 33.46875 63.183594 33.949219 62.703125 L 33.949219 57.765625 C 33.949219 57.273438 33.855469 56.9375 33.671875 56.765625 C 33.496094 56.585938 33.121094 56.496094 32.546875 56.480469 L 32.546875 56.132812 Z M 43.242188 55.875 L 43.242188 58.839844 L 42.929688 58.839844 C 42.691406 57.910156 42.382812 57.277344 42 56.9375 C 41.625 56.605469 41.144531 56.433594 40.5625 56.433594 C 40.117188 56.433594 39.761719 56.554688 39.488281 56.785156 C 39.214844 57.023438 39.078125 57.28125 39.078125 57.566406 C 39.078125 57.921875 39.179688 58.226562 39.382812 58.480469 C 39.578125 58.738281 39.976562 59.015625 40.582031 59.304688 L 41.96875 59.980469 C 43.253906 60.609375 43.898438 61.433594 43.898438 62.464844 C 43.898438 63.253906 43.597656 63.894531 43.003906 64.378906 C 42.402344 64.863281 41.730469 65.105469 40.992188 65.105469 C 40.457031 65.105469 39.851562 65.007812 39.164062 64.824219 C 38.953125 64.757812 38.785156 64.726562 38.648438 64.726562 C 38.507812 64.726562 38.390625 64.808594 38.308594 64.976562 L 37.996094 64.976562 L 37.996094 61.863281 L 38.308594 61.863281 C 38.484375 62.753906 38.824219 63.417969 39.328125 63.867188 C 39.824219 64.320312 40.386719 64.542969 41.007812 64.542969 C 41.449219 64.542969 41.800781 64.417969 42.078125 64.160156 C 42.355469 63.902344 42.492188 63.59375 42.492188 63.234375 C 42.492188 62.792969 42.339844 62.425781 42.03125 62.132812 C 41.722656 61.832031 41.109375 61.453125 40.191406 61 C 39.269531 60.542969 38.671875 60.132812 38.382812 59.761719 C 38.101562 59.402344 37.957031 58.945312 37.957031 58.390625 C 37.957031 57.675781 38.203125 57.078125 38.691406 56.597656 C 39.1875 56.113281 39.820312 55.875 40.597656 55.875 C 40.941406 55.875 41.359375 55.949219 41.84375 56.09375 C 42.171875 56.1875 42.386719 56.238281 42.492188 56.238281 C 42.59375 56.238281 42.671875 56.214844 42.726562 56.167969 C 42.785156 56.125 42.855469 56.023438 42.929688 55.875 Z M 52.585938 61.53125 C 52.351562 62.679688 51.890625 63.558594 51.207031 64.179688 C 50.523438 64.796875 49.765625 65.105469 48.933594 65.105469 C 47.945312 65.105469 47.085938 64.691406 46.347656 63.859375 C 45.613281 63.03125 45.25 61.90625 45.25 60.496094 C 45.25 59.125 45.65625 58.011719 46.472656 57.15625 C 47.28125 56.304688 48.261719 55.875 49.402344 55.875 C 50.257812 55.875 50.964844 56.101562 51.511719 56.554688 C 52.066406 57.003906 52.339844 57.480469 52.339844 57.964844 C 52.339844 58.207031 52.265625 58.398438 52.109375 58.550781 C 51.953125 58.699219 51.734375 58.773438 51.457031 58.773438 C 51.082031 58.773438 50.800781 58.652344 50.609375 58.414062 C 50.503906 58.28125 50.429688 58.027344 50.398438 57.652344 C 50.363281 57.28125 50.230469 56.992188 50.011719 56.792969 C 49.789062 56.609375 49.480469 56.511719 49.085938 56.511719 C 48.453125 56.511719 47.945312 56.746094 47.558594 57.21875 C 47.046875 57.839844 46.789062 58.65625 46.789062 59.675781 C 46.789062 60.714844 47.042969 61.632812 47.554688 62.429688 C 48.0625 63.226562 48.753906 63.621094 49.621094 63.621094 C 50.242188 63.621094 50.800781 63.410156 51.292969 62.984375 C 51.644531 62.691406 51.980469 62.164062 52.3125 61.398438 Z M 55.292969 59.410156 C 55.289062 60.703125 55.601562 61.71875 56.234375 62.453125 C 56.871094 63.1875 57.613281 63.554688 58.472656 63.554688 C 59.042969 63.554688 59.535156 63.398438 59.957031 63.085938 C 60.382812 62.773438 60.734375 62.238281 61.019531 61.476562 L 61.316406 61.660156 C 61.179688 62.53125 60.796875 63.324219 60.152344 64.035156 C 59.515625 64.75 58.710938 65.105469 57.75 65.105469 C 56.707031 65.105469 55.808594 64.699219 55.0625 63.882812 C 54.316406 63.070312 53.945312 61.976562 53.945312 60.597656 C 53.945312 59.109375 54.328125 57.949219 55.089844 57.117188 C 55.855469 56.28125 56.816406 55.863281 57.96875 55.863281 C 58.945312 55.863281 59.746094 56.1875 60.371094 56.828125 C 61 57.476562 61.316406 58.332031 61.316406 59.410156 L 55.292969 59.410156 M 55.292969 58.859375 L 59.324219 58.859375 C 59.296875 58.304688 59.226562 57.910156 59.125 57.683594 C 58.96875 57.328125 58.734375 57.046875 58.421875 56.84375 C 58.105469 56.640625 57.777344 56.539062 57.4375 56.539062 C 56.90625 56.539062 56.4375 56.742188 56.023438 57.152344 C 55.605469 57.5625 55.367188 58.128906 55.292969 58.859375 Z M 61.847656 56.996094 L 64.527344 55.910156 L 64.890625 55.910156 L 64.890625 57.949219 C 65.335938 57.179688 65.789062 56.640625 66.242188 56.332031 C 66.695312 56.03125 67.171875 55.875 67.675781 55.875 C 68.550781 55.875 69.277344 56.214844 69.859375 56.898438 C 70.578125 57.738281 70.933594 58.828125 70.933594 60.171875 C 70.933594 61.675781 70.5 62.917969 69.640625 63.898438 C 68.929688 64.703125 68.039062 65.105469 66.960938 65.105469 C 66.492188 65.105469 66.085938 65.039062 65.742188 64.90625 C 65.488281 64.808594 65.203125 64.621094 64.890625 64.335938 L 64.890625 66.984375 C 64.890625 67.582031 64.921875 67.960938 64.996094 68.121094 C 65.070312 68.289062 65.199219 68.414062 65.375 68.507812 C 65.558594 68.605469 65.886719 68.652344 66.359375 68.652344 L 66.359375 69.003906 L 61.796875 69.003906 L 61.796875 68.652344 L 62.035156 68.652344 C 62.382812 68.660156 62.683594 68.589844 62.929688 68.453125 C 63.046875 68.378906 63.144531 68.269531 63.207031 68.113281 C 63.277344 67.957031 63.308594 67.566406 63.308594 66.929688 L 63.308594 58.695312 C 63.308594 58.132812 63.285156 57.773438 63.234375 57.621094 C 63.183594 57.46875 63.101562 57.355469 62.992188 57.28125 C 62.878906 57.203125 62.730469 57.167969 62.539062 57.167969 C 62.386719 57.167969 62.195312 57.210938 61.957031 57.300781 L 61.847656 56.996094 M 64.890625 58.511719 L 64.890625 61.757812 C 64.890625 62.464844 64.914062 62.925781 64.972656 63.148438 C 65.0625 63.515625 65.277344 63.839844 65.625 64.117188 C 65.972656 64.394531 66.40625 64.535156 66.929688 64.535156 C 67.5625 64.535156 68.078125 64.289062 68.472656 63.792969 C 68.984375 63.148438 69.242188 62.238281 69.242188 61.066406 C 69.242188 59.734375 68.949219 58.710938 68.367188 57.996094 C 67.960938 57.5 67.480469 57.253906 66.921875 57.25 C 66.617188 57.253906 66.316406 57.332031 66.019531 57.480469 C 65.789062 57.597656 65.414062 57.933594 64.890625 58.511719 Z M 74.734375 53.269531 L 74.734375 56.132812 L 76.769531 56.132812 L 76.769531 56.792969 L 74.734375 56.792969 L 74.734375 62.445312 C 74.734375 63.011719 74.820312 63.390625 74.980469 63.585938 C 75.140625 63.78125 75.347656 63.878906 75.601562 63.878906 C 75.8125 63.878906 76.015625 63.8125 76.210938 63.6875 C 76.40625 63.554688 76.558594 63.363281 76.664062 63.105469 L 77.039062 63.105469 C 76.8125 63.730469 76.5 64.195312 76.09375 64.511719 C 75.691406 64.828125 75.269531 64.984375 74.839844 64.984375 C 74.550781 64.984375 74.265625 64.902344 73.988281 64.738281 C 73.707031 64.578125 73.5 64.34375 73.367188 64.046875 C 73.234375 63.746094 73.167969 63.28125 73.167969 62.652344 L 73.167969 56.792969 L 71.789062 56.792969 L 71.789062 56.480469 C 72.136719 56.34375 72.496094 56.105469 72.859375 55.777344 C 73.222656 55.441406 73.546875 55.046875 73.835938 54.589844 C 73.976562 54.351562 74.179688 53.910156 74.441406 53.269531 Z M 79.835938 51.316406 C 80.101562 51.316406 80.328125 51.414062 80.515625 51.601562 C 80.699219 51.789062 80.796875 52.015625 80.796875 52.28125 C 80.796875 52.546875 80.699219 52.777344 80.515625 52.964844 C 80.328125 53.15625 80.101562 53.25 79.835938 53.25 C 79.570312 53.25 79.339844 53.15625 79.148438 52.964844 C 78.960938 52.777344 78.867188 52.546875 78.867188 52.28125 C 78.867188 52.015625 78.960938 51.789062 79.144531 51.601562 C 79.332031 51.414062 79.5625 51.316406 79.835938 51.316406 M 80.625 55.875 L 80.625 62.871094 C 80.625 63.414062 80.664062 63.777344 80.742188 63.960938 C 80.824219 64.140625 80.941406 64.277344 81.09375 64.367188 C 81.25 64.453125 81.535156 64.496094 81.949219 64.496094 L 81.949219 64.839844 L 77.714844 64.839844 L 77.714844 64.496094 C 78.140625 64.496094 78.421875 64.453125 78.570312 64.375 C 78.714844 64.289062 78.832031 64.15625 78.917969 63.964844 C 79.003906 63.773438 79.050781 63.410156 79.050781 62.871094 L 79.050781 59.515625 C 79.050781 58.574219 79.019531 57.960938 78.960938 57.683594 C 78.917969 57.480469 78.847656 57.335938 78.753906 57.257812 C 78.65625 57.179688 78.523438 57.140625 78.363281 57.140625 C 78.183594 57.140625 77.96875 57.1875 77.714844 57.28125 L 77.582031 56.9375 L 80.207031 55.875 Z M 85.417969 57.632812 C 86.257812 56.460938 87.164062 55.875 88.140625 55.875 C 89.039062 55.875 89.816406 56.257812 90.484375 57.019531 C 91.148438 57.78125 91.480469 58.828125 91.480469 60.152344 C 91.480469 61.699219 90.96875 62.945312 89.941406 63.890625 C 89.058594 64.699219 88.078125 65.105469 86.992188 65.105469 C 86.484375 65.105469 85.96875 65.011719 85.449219 64.832031 C 84.925781 64.644531 84.390625 64.371094 83.847656 64.003906 L 83.847656 54.980469 C 83.847656 53.992188 83.824219 53.382812 83.777344 53.15625 C 83.726562 52.929688 83.65625 52.773438 83.554688 52.6875 C 83.453125 52.605469 83.324219 52.566406 83.171875 52.566406 C 82.996094 52.566406 82.769531 52.617188 82.503906 52.71875 L 82.375 52.382812 L 84.988281 51.316406 L 85.417969 51.316406 L 85.417969 57.632812 M 85.417969 58.238281 L 85.417969 63.453125 C 85.738281 63.769531 86.070312 64.007812 86.417969 64.167969 C 86.765625 64.332031 87.121094 64.414062 87.476562 64.414062 C 88.054688 64.414062 88.59375 64.097656 89.089844 63.460938 C 89.585938 62.828125 89.835938 61.902344 89.835938 60.695312 C 89.835938 59.578125 89.585938 58.722656 89.089844 58.121094 C 88.59375 57.523438 88.027344 57.226562 87.394531 57.226562 C 87.054688 57.226562 86.722656 57.308594 86.382812 57.480469 C 86.128906 57.609375 85.808594 57.859375 85.417969 58.238281 Z M 95.761719 51.316406 L 95.761719 62.871094 C 95.761719 63.414062 95.796875 63.777344 95.878906 63.957031 C 95.957031 64.132812 96.078125 64.269531 96.246094 64.359375 C 96.40625 64.449219 96.714844 64.496094 97.167969 64.496094 L 97.167969 64.839844 L 92.898438 64.839844 L 92.898438 64.496094 C 93.296875 64.496094 93.566406 64.453125 93.714844 64.375 C 93.859375 64.289062 93.972656 64.15625 94.058594 63.964844 C 94.136719 63.773438 94.179688 63.410156 94.179688 62.871094 L 94.179688 54.960938 C 94.179688 53.980469 94.160156 53.375 94.117188 53.152344 C 94.070312 52.925781 94 52.773438 93.902344 52.6875 C 93.804688 52.605469 93.675781 52.566406 93.523438 52.566406 C 93.359375 52.566406 93.148438 52.617188 92.898438 52.71875 L 92.734375 52.382812 L 95.332031 51.316406 Z M 99.636719 59.410156 C 99.628906 60.703125 99.941406 61.71875 100.578125 62.453125 C 101.210938 63.1875 101.953125 63.554688 102.8125 63.554688 C 103.382812 63.554688 103.878906 63.398438 104.300781 63.085938 C 104.722656 62.773438 105.078125 62.238281 105.359375 61.476562 L 105.65625 61.660156 C 105.519531 62.53125 105.136719 63.324219 104.492188 64.035156 C 103.855469 64.75 103.054688 65.105469 102.089844 65.105469 C 101.046875 65.105469 100.148438 64.699219 99.402344 63.882812 C 98.660156 63.070312 98.285156 61.976562 98.285156 60.597656 C 98.285156 59.109375 98.667969 57.949219 99.433594 57.117188 C 100.195312 56.28125 101.15625 55.863281 102.308594 55.863281 C 103.285156 55.863281 104.089844 56.1875 104.714844 56.828125 C 105.339844 57.476562 105.65625 58.332031 105.65625 59.410156 L 99.636719 59.410156 M 99.636719 58.859375 L 103.664062 58.859375 C 103.636719 58.304688 103.570312 57.910156 103.46875 57.683594 C 103.3125 57.328125 103.074219 57.046875 102.761719 56.84375 C 102.445312 56.640625 102.121094 56.539062 101.777344 56.539062 C 101.25 56.539062 100.78125 56.742188 100.367188 57.152344 C 99.949219 57.5625 99.707031 58.128906 99.636719 58.859375 Z M 16.441406 47.488281 "/>
<path fill-rule="nonzero" fill="rgb(0%, 0%, 0%)" fill-opacity="1" d="M 162.222656 52.734375 L 165.332031 52.734375 L 172.335938 61.328125 L 172.335938 54.71875 C 172.335938 54.015625 172.257812 53.574219 172.101562 53.402344 C 171.894531 53.164062 171.5625 53.046875 171.109375 53.046875 L 170.714844 53.046875 L 170.714844 52.734375 L 174.703125 52.734375 L 174.703125 53.046875 L 174.296875 53.046875 C 173.8125 53.046875 173.46875 53.195312 173.265625 53.484375 C 173.144531 53.667969 173.078125 54.078125 173.078125 54.71875 L 173.078125 64.378906 L 172.777344 64.378906 L 165.222656 55.152344 L 165.222656 62.207031 C 165.222656 62.914062 165.296875 63.351562 165.449219 63.523438 C 165.664062 63.761719 165.992188 63.878906 166.4375 63.878906 L 166.84375 63.878906 L 166.84375 64.191406 L 162.855469 64.191406 L 162.855469 63.878906 L 163.25 63.878906 C 163.742188 63.878906 164.089844 63.730469 164.292969 63.441406 C 164.414062 63.257812 164.476562 62.847656 164.476562 62.207031 L 164.476562 54.238281 C 164.144531 53.847656 163.894531 53.589844 163.722656 53.46875 C 163.546875 53.347656 163.296875 53.226562 162.964844 53.121094 C 162.800781 53.070312 162.554688 53.046875 162.222656 53.046875 Z M 176.789062 59.367188 C 176.785156 60.515625 177.066406 61.417969 177.625 62.070312 C 178.1875 62.726562 178.851562 63.050781 179.613281 63.050781 C 180.121094 63.050781 180.558594 62.914062 180.933594 62.632812 C 181.3125 62.355469 181.625 61.878906 181.878906 61.203125 L 182.140625 61.371094 C 182.019531 62.144531 181.679688 62.84375 181.109375 63.480469 C 180.539062 64.113281 179.828125 64.429688 178.96875 64.429688 C 178.039062 64.429688 177.246094 64.066406 176.582031 63.34375 C 175.917969 62.621094 175.589844 61.644531 175.589844 60.425781 C 175.589844 59.101562 175.929688 58.066406 176.609375 57.328125 C 177.289062 56.585938 178.136719 56.214844 179.164062 56.214844 C 180.03125 56.214844 180.746094 56.503906 181.300781 57.074219 C 181.859375 57.644531 182.140625 58.410156 182.140625 59.367188 L 176.789062 59.367188 M 176.789062 58.878906 L 180.371094 58.878906 C 180.34375 58.382812 180.285156 58.03125 180.195312 57.828125 C 180.054688 57.511719 179.84375 57.269531 179.566406 57.085938 C 179.285156 56.902344 178.996094 56.816406 178.691406 56.816406 C 178.222656 56.816406 177.804688 56.996094 177.4375 57.359375 C 177.070312 57.722656 176.851562 58.230469 176.789062 58.878906 Z M 182.738281 56.453125 L 185.984375 56.453125 L 185.984375 56.765625 C 185.683594 56.785156 185.488281 56.839844 185.398438 56.925781 C 185.304688 57.011719 185.257812 57.132812 185.257812 57.289062 C 185.257812 57.460938 185.304688 57.671875 185.402344 57.921875 L 187.058594 62.375 L 188.722656 58.75 L 188.28125 57.609375 C 188.148438 57.273438 187.96875 57.039062 187.75 56.910156 C 187.628906 56.828125 187.394531 56.78125 187.058594 56.765625 L 187.058594 56.453125 L 190.742188 56.453125 L 190.742188 56.765625 C 190.335938 56.78125 190.050781 56.855469 189.878906 56.984375 C 189.765625 57.074219 189.710938 57.21875 189.710938 57.414062 C 189.710938 57.53125 189.730469 57.644531 189.777344 57.761719 L 191.535156 62.207031 L 193.167969 57.921875 C 193.28125 57.617188 193.335938 57.378906 193.335938 57.195312 C 193.335938 57.089844 193.28125 56.992188 193.171875 56.910156 C 193.0625 56.824219 192.847656 56.777344 192.523438 56.765625 L 192.523438 56.453125 L 194.96875 56.453125 L 194.96875 56.765625 C 194.476562 56.835938 194.117188 57.171875 193.886719 57.761719 L 191.300781 64.429688 L 190.953125 64.429688 L 189.019531 59.484375 L 186.761719 64.429688 L 186.449219 64.429688 L 183.964844 57.921875 C 183.800781 57.511719 183.640625 57.234375 183.484375 57.089844 C 183.328125 56.945312 183.078125 56.835938 182.738281 56.765625 Z M 201.964844 52.175781 C 202.203125 52.175781 202.402344 52.261719 202.570312 52.425781 C 202.734375 52.589844 202.816406 52.792969 202.816406 53.03125 C 202.816406 53.265625 202.734375 53.46875 202.570312 53.636719 C 202.402344 53.808594 202.203125 53.890625 201.964844 53.890625 C 201.726562 53.890625 201.523438 53.808594 201.355469 53.636719 C 201.1875 53.46875 201.101562 53.265625 201.101562 53.03125 C 201.101562 52.792969 201.1875 52.589844 201.351562 52.425781 C 201.515625 52.261719 201.722656 52.175781 201.964844 52.175781 M 202.664062 56.222656 L 202.664062 62.445312 C 202.664062 62.929688 202.699219 63.25 202.773438 63.410156 C 202.84375 63.570312 202.945312 63.691406 203.085938 63.769531 C 203.222656 63.851562 203.472656 63.890625 203.839844 63.890625 L 203.839844 64.191406 L 200.082031 64.191406 L 200.082031 63.890625 C 200.457031 63.890625 200.710938 63.851562 200.839844 63.777344 C 200.972656 63.707031 201.074219 63.585938 201.148438 63.414062 C 201.226562 63.246094 201.261719 62.921875 201.261719 62.445312 L 201.261719 59.460938 C 201.261719 58.621094 201.238281 58.078125 201.1875 57.828125 C 201.148438 57.648438 201.085938 57.523438 201 57.453125 C 200.917969 57.382812 200.800781 57.347656 200.65625 57.347656 C 200.5 57.347656 200.304688 57.390625 200.082031 57.476562 L 199.960938 57.171875 L 202.292969 56.222656 Z M 207.058594 57.863281 C 207.96875 56.769531 208.832031 56.222656 209.65625 56.222656 C 210.078125 56.222656 210.441406 56.328125 210.746094 56.539062 C 211.050781 56.753906 211.289062 57.097656 211.472656 57.585938 C 211.59375 57.921875 211.65625 58.441406 211.65625 59.140625 L 211.65625 62.445312 C 211.65625 62.933594 211.695312 63.269531 211.777344 63.441406 C 211.839844 63.582031 211.9375 63.691406 212.074219 63.769531 C 212.214844 63.851562 212.46875 63.890625 212.839844 63.890625 L 212.839844 64.191406 L 209.011719 64.191406 L 209.011719 63.890625 L 209.171875 63.890625 C 209.53125 63.890625 209.785156 63.832031 209.929688 63.722656 C 210.074219 63.613281 210.175781 63.453125 210.230469 63.238281 C 210.25 63.152344 210.261719 62.886719 210.261719 62.445312 L 210.261719 59.273438 C 210.261719 58.570312 210.171875 58.058594 209.988281 57.742188 C 209.808594 57.425781 209.5 57.261719 209.0625 57.261719 C 208.390625 57.261719 207.722656 57.632812 207.058594 58.363281 L 207.058594 62.445312 C 207.058594 62.96875 207.089844 63.292969 207.152344 63.414062 C 207.234375 63.582031 207.339844 63.699219 207.480469 63.773438 C 207.617188 63.851562 207.898438 63.890625 208.320312 63.890625 L 208.320312 64.191406 L 204.492188 64.191406 L 204.492188 63.890625 L 204.660156 63.890625 C 205.054688 63.890625 205.320312 63.789062 205.457031 63.589844 C 205.597656 63.390625 205.667969 63.003906 205.667969 62.445312 L 205.667969 59.570312 C 205.667969 58.640625 205.644531 58.074219 205.601562 57.871094 C 205.558594 57.667969 205.496094 57.53125 205.410156 57.457031 C 205.320312 57.386719 205.207031 57.347656 205.058594 57.347656 C 204.902344 57.347656 204.710938 57.390625 204.492188 57.476562 L 204.363281 57.171875 L 206.695312 56.222656 L 207.058594 56.222656 Z M 216.484375 57.0625 L 216.484375 62.148438 C 216.484375 62.871094 216.5625 63.328125 216.71875 63.515625 C 216.925781 63.765625 217.207031 63.890625 217.554688 63.890625 L 218.257812 63.890625 L 218.257812 64.191406 L 213.636719 64.191406 L 213.636719 63.890625 L 213.980469 63.890625 C 214.207031 63.890625 214.414062 63.832031 214.597656 63.71875 C 214.785156 63.605469 214.910156 63.453125 214.984375 63.261719 C 215.054688 63.074219 215.089844 62.703125 215.089844 62.148438 L 215.089844 57.0625 L 213.585938 57.0625 L 213.585938 56.453125 L 215.089844 56.453125 L 215.089844 55.945312 C 215.089844 55.171875 215.210938 54.519531 215.460938 53.984375 C 215.710938 53.449219 216.085938 53.015625 216.597656 52.6875 C 217.109375 52.359375 217.679688 52.191406 218.316406 52.191406 C 218.910156 52.191406 219.453125 52.382812 219.949219 52.769531 C 220.273438 53.019531 220.4375 53.304688 220.4375 53.621094 C 220.4375 53.789062 220.367188 53.949219 220.21875 54.097656 C 220.070312 54.246094 219.914062 54.324219 219.746094 54.324219 C 219.613281 54.324219 219.480469 54.277344 219.335938 54.183594 C 219.191406 54.089844 219.015625 53.890625 218.808594 53.582031 C 218.601562 53.273438 218.40625 53.066406 218.230469 52.960938 C 218.058594 52.855469 217.863281 52.800781 217.648438 52.800781 C 217.390625 52.800781 217.171875 52.867188 216.988281 53.007812 C 216.808594 53.148438 216.679688 53.359375 216.601562 53.652344 C 216.519531 53.941406 216.484375 54.691406 216.484375 55.894531 L 216.484375 56.453125 L 218.476562 56.453125 L 218.476562 57.0625 Z M 220.523438 59.367188 C 220.519531 60.515625 220.796875 61.417969 221.359375 62.070312 C 221.921875 62.726562 222.585938 63.050781 223.34375 63.050781 C 223.851562 63.050781 224.292969 62.914062 224.667969 62.632812 C 225.042969 62.355469 225.355469 61.878906 225.609375 61.203125 L 225.871094 61.371094 C 225.753906 62.144531 225.410156 62.84375 224.839844 63.480469 C 224.269531 64.113281 223.558594 64.429688 222.703125 64.429688 C 221.773438 64.429688 220.980469 64.066406 220.316406 63.34375 C 219.652344 62.621094 219.324219 61.644531 219.324219 60.425781 C 219.324219 59.101562 219.660156 58.066406 220.339844 57.328125 C 221.019531 56.585938 221.871094 56.214844 222.898438 56.214844 C 223.761719 56.214844 224.476562 56.503906 225.035156 57.074219 C 225.59375 57.644531 225.871094 58.410156 225.871094 59.367188 L 220.523438 59.367188 M 220.523438 58.878906 L 224.105469 58.878906 C 224.074219 58.382812 224.015625 58.03125 223.929688 57.828125 C 223.789062 57.511719 223.578125 57.269531 223.296875 57.085938 C 223.019531 56.902344 222.726562 56.816406 222.421875 56.816406 C 221.953125 56.816406 221.535156 56.996094 221.167969 57.359375 C 220.800781 57.722656 220.585938 58.230469 220.523438 58.878906 Z M 233.476562 61.253906 C 233.269531 62.269531 232.859375 63.054688 232.253906 63.605469 C 231.644531 64.15625 230.972656 64.429688 230.230469 64.429688 C 229.351562 64.429688 228.589844 64.0625 227.933594 63.324219 C 227.277344 62.582031 226.953125 61.585938 226.953125 60.332031 C 226.953125 59.113281 227.316406 58.125 228.039062 57.363281 C 228.761719 56.605469 229.632812 56.222656 230.644531 56.222656 C 231.40625 56.222656 232.03125 56.425781 232.523438 56.828125 C 233.011719 57.230469 233.257812 57.648438 233.257812 58.082031 C 233.257812 58.296875 233.191406 58.472656 233.050781 58.601562 C 232.910156 58.734375 232.722656 58.800781 232.472656 58.800781 C 232.136719 58.800781 231.886719 58.695312 231.71875 58.480469 C 231.621094 58.363281 231.558594 58.136719 231.53125 57.804688 C 231.5 57.46875 231.386719 57.21875 231.1875 57.042969 C 230.988281 56.875 230.71875 56.789062 230.367188 56.789062 C 229.804688 56.789062 229.347656 56.996094 229.007812 57.414062 C 228.550781 57.96875 228.324219 58.695312 228.324219 59.605469 C 228.324219 60.53125 228.550781 61.34375 229.003906 62.050781 C 229.453125 62.757812 230.066406 63.109375 230.839844 63.109375 C 231.394531 63.109375 231.886719 62.921875 232.328125 62.546875 C 232.636719 62.289062 232.941406 61.8125 233.230469 61.132812 Z M 236.832031 53.910156 L 236.832031 56.453125 L 238.640625 56.453125 L 238.640625 57.042969 L 236.832031 57.042969 L 236.832031 62.0625 C 236.832031 62.566406 236.902344 62.902344 237.046875 63.078125 C 237.191406 63.25 237.378906 63.339844 237.601562 63.339844 C 237.789062 63.339844 237.96875 63.28125 238.140625 63.167969 C 238.316406 63.050781 238.449219 62.878906 238.546875 62.65625 L 238.878906 62.65625 C 238.679688 63.207031 238.398438 63.621094 238.039062 63.902344 C 237.679688 64.179688 237.308594 64.320312 236.925781 64.320312 C 236.667969 64.320312 236.414062 64.246094 236.164062 64.105469 C 235.914062 63.960938 235.734375 63.753906 235.617188 63.488281 C 235.496094 63.222656 235.4375 62.808594 235.4375 62.25 L 235.4375 57.042969 L 234.210938 57.042969 L 234.210938 56.765625 C 234.519531 56.640625 234.839844 56.429688 235.164062 56.136719 C 235.488281 55.839844 235.777344 55.488281 236.03125 55.082031 C 236.160156 54.867188 236.339844 54.480469 236.570312 53.910156 Z M 241.363281 52.175781 C 241.597656 52.175781 241.800781 52.261719 241.964844 52.425781 C 242.132812 52.589844 242.214844 52.792969 242.214844 53.03125 C 242.214844 53.265625 242.132812 53.46875 241.964844 53.636719 C 241.800781 53.808594 241.597656 53.890625 241.363281 53.890625 C 241.125 53.890625 240.921875 53.808594 240.753906 53.636719 C 240.585938 53.46875 240.5 53.265625 240.5 53.03125 C 240.5 52.792969 240.585938 52.589844 240.75 52.425781 C 240.914062 52.261719 241.121094 52.175781 241.363281 52.175781 M 242.0625 56.222656 L 242.0625 62.445312 C 242.0625 62.929688 242.097656 63.25 242.167969 63.410156 C 242.242188 63.570312 242.34375 63.691406 242.480469 63.769531 C 242.621094 63.851562 242.871094 63.890625 243.238281 63.890625 L 243.238281 64.191406 L 239.476562 64.191406 L 239.476562 63.890625 C 239.851562 63.890625 240.105469 63.851562 240.238281 63.777344 C 240.367188 63.707031 240.46875 63.585938 240.546875 63.414062 C 240.621094 63.246094 240.660156 62.921875 240.660156 62.445312 L 240.660156 59.460938 C 240.660156 58.621094 240.636719 58.078125 240.585938 57.828125 C 240.546875 57.648438 240.484375 57.523438 240.398438 57.453125 C 240.3125 57.382812 240.199219 57.347656 240.050781 57.347656 C 239.894531 57.347656 239.703125 57.390625 239.476562 57.476562 L 239.359375 57.171875 L 241.691406 56.222656 Z M 247.988281 56.222656 C 249.15625 56.222656 250.101562 56.667969 250.808594 57.558594 C 251.414062 58.320312 251.714844 59.195312 251.714844 60.179688 C 251.714844 60.871094 251.550781 61.574219 251.214844 62.28125 C 250.882812 62.992188 250.425781 63.53125 249.84375 63.890625 C 249.257812 64.246094 248.609375 64.429688 247.894531 64.429688 C 246.726562 64.429688 245.800781 63.964844 245.113281 63.035156 C 244.535156 62.253906 244.242188 61.375 244.242188 60.398438 C 244.242188 59.6875 244.421875 58.984375 244.773438 58.28125 C 245.121094 57.582031 245.585938 57.0625 246.160156 56.726562 C 246.738281 56.394531 247.34375 56.222656 247.988281 56.222656 M 247.726562 56.773438 C 247.425781 56.773438 247.125 56.863281 246.824219 57.039062 C 246.523438 57.21875 246.28125 57.53125 246.09375 57.972656 C 245.910156 58.417969 245.816406 58.992188 245.816406 59.6875 C 245.816406 60.816406 246.039062 61.789062 246.488281 62.605469 C 246.933594 63.417969 247.527344 63.828125 248.257812 63.828125 C 248.800781 63.828125 249.253906 63.605469 249.609375 63.152344 C 249.964844 62.703125 250.140625 61.929688 250.140625 60.828125 C 250.140625 59.457031 249.847656 58.375 249.253906 57.585938 C 248.851562 57.042969 248.347656 56.773438 247.726562 56.773438 Z M 255.109375 57.863281 C 256.019531 56.769531 256.882812 56.222656 257.707031 56.222656 C 258.128906 56.222656 258.492188 56.328125 258.796875 56.539062 C 259.101562 56.753906 259.339844 57.097656 259.523438 57.585938 C 259.644531 57.921875 259.707031 58.441406 259.707031 59.140625 L 259.707031 62.445312 C 259.707031 62.933594 259.746094 63.269531 259.828125 63.441406 C 259.890625 63.582031 259.988281 63.691406 260.125 63.769531 C 260.265625 63.851562 260.519531 63.890625 260.890625 63.890625 L 260.890625 64.191406 L 257.0625 64.191406 L 257.0625 63.890625 L 257.222656 63.890625 C 257.582031 63.890625 257.835938 63.832031 257.980469 63.722656 C 258.125 63.613281 258.226562 63.453125 258.28125 63.238281 C 258.300781 63.152344 258.3125 62.886719 258.3125 62.445312 L 258.3125 59.273438 C 258.3125 58.570312 258.222656 58.058594 258.039062 57.742188 C 257.859375 57.425781 257.550781 57.261719 257.113281 57.261719 C 256.441406 57.261719 255.773438 57.632812 255.109375 58.363281 L 255.109375 62.445312 C 255.109375 62.96875 255.140625 63.292969 255.203125 63.414062 C 255.285156 63.582031 255.390625 63.699219 255.53125 63.773438 C 255.667969 63.851562 255.949219 63.890625 256.371094 63.890625 L 256.371094 64.191406 L 252.542969 64.191406 L 252.542969 63.890625 L 252.710938 63.890625 C 253.105469 63.890625 253.371094 63.789062 253.511719 63.589844 C 253.648438 63.390625 253.71875 63.003906 253.71875 62.445312 L 253.71875 59.570312 C 253.71875 58.640625 253.695312 58.074219 253.652344 57.871094 C 253.609375 57.667969 253.546875 57.53125 253.460938 57.457031 C 253.371094 57.386719 253.257812 57.347656 253.109375 57.347656 C 252.953125 57.347656 252.761719 57.390625 252.542969 57.476562 L 252.414062 57.171875 L 254.746094 56.222656 L 255.109375 56.222656 Z M 266.511719 56.222656 L 266.511719 58.859375 L 266.230469 58.859375 C 266.015625 58.03125 265.742188 57.46875 265.410156 57.171875 C 265.074219 56.871094 264.648438 56.722656 264.128906 56.722656 C 263.734375 56.722656 263.414062 56.828125 263.171875 57.035156 C 262.933594 57.242188 262.808594 57.476562 262.808594 57.726562 C 262.808594 58.046875 262.898438 58.316406 263.082031 58.539062 C 263.253906 58.773438 263.609375 59.015625 264.144531 59.273438 L 265.378906 59.875 C 266.523438 60.433594 267.09375 61.167969 267.09375 62.082031 C 267.09375 62.785156 266.828125 63.351562 266.296875 63.78125 C 265.761719 64.214844 265.167969 64.429688 264.507812 64.429688 C 264.035156 64.429688 263.496094 64.34375 262.886719 64.175781 C 262.699219 64.121094 262.546875 64.089844 262.429688 64.089844 C 262.296875 64.089844 262.195312 64.164062 262.125 64.3125 L 261.847656 64.3125 L 261.847656 61.546875 L 262.125 61.546875 C 262.28125 62.339844 262.585938 62.929688 263.03125 63.332031 C 263.472656 63.730469 263.972656 63.929688 264.523438 63.929688 C 264.914062 63.929688 265.230469 63.816406 265.476562 63.589844 C 265.722656 63.359375 265.84375 63.085938 265.84375 62.765625 C 265.84375 62.375 265.707031 62.050781 265.433594 61.785156 C 265.160156 61.519531 264.613281 61.183594 263.796875 60.777344 C 262.984375 60.375 262.445312 60.003906 262.191406 59.679688 C 261.9375 59.359375 261.8125 58.953125 261.8125 58.464844 C 261.8125 57.824219 262.03125 57.292969 262.46875 56.867188 C 262.902344 56.4375 263.46875 56.222656 264.160156 56.222656 C 264.464844 56.222656 264.832031 56.289062 265.269531 56.417969 C 265.554688 56.503906 265.746094 56.546875 265.84375 56.546875 C 265.933594 56.546875 266.003906 56.523438 266.054688 56.484375 C 266.105469 56.449219 266.164062 56.359375 266.230469 56.222656 Z M 162.449219 48.769531 "/>
<path fill-rule="nonzero" fill="rgb(0%, 0%, 0%)" fill-opacity="1" d="M 443.730469 52.734375 L 446.839844 52.734375 L 453.847656 61.328125 L 453.847656 54.71875 C 453.847656 54.015625 453.765625 53.574219 453.609375 53.402344 C 453.402344 53.164062 453.074219 53.046875 452.621094 53.046875 L 452.222656 53.046875 L 452.222656 52.734375 L 456.214844 52.734375 L 456.214844 53.046875 L 455.808594 53.046875 C 455.320312 53.046875 454.980469 53.195312 454.777344 53.484375 C 454.652344 53.667969 454.589844 54.078125 454.589844 54.71875 L 454.589844 64.378906 L 454.285156 64.378906 L 446.730469 55.152344 L 446.730469 62.207031 C 446.730469 62.914062 446.808594 63.351562 446.960938 63.523438 C 447.175781 63.761719 447.503906 63.878906 447.949219 63.878906 L 448.355469 63.878906 L 448.355469 64.191406 L 444.363281 64.191406 L 444.363281 63.878906 L 444.761719 63.878906 C 445.253906 63.878906 445.597656 63.730469 445.800781 63.441406 C 445.925781 63.257812 445.988281 62.847656 445.988281 62.207031 L 445.988281 54.238281 C 445.652344 53.847656 445.40625 53.589844 445.230469 53.46875 C 445.058594 53.347656 444.808594 53.226562 444.476562 53.121094 C 444.308594 53.070312 444.066406 53.046875 443.730469 53.046875 Z M 458.300781 59.367188 C 458.296875 60.515625 458.574219 61.417969 459.136719 62.070312 C 459.699219 62.726562 460.363281 63.050781 461.121094 63.050781 C 461.628906 63.050781 462.070312 62.914062 462.445312 62.632812 C 462.820312 62.355469 463.132812 61.878906 463.386719 61.203125 L 463.648438 61.371094 C 463.53125 62.144531 463.1875 62.84375 462.617188 63.480469 C 462.046875 64.113281 461.339844 64.429688 460.480469 64.429688 C 459.550781 64.429688 458.757812 64.066406 458.09375 63.34375 C 457.429688 62.621094 457.101562 61.644531 457.101562 60.425781 C 457.101562 59.101562 457.4375 58.066406 458.117188 57.328125 C 458.800781 56.585938 459.648438 56.214844 460.675781 56.214844 C 461.542969 56.214844 462.253906 56.503906 462.8125 57.074219 C 463.371094 57.644531 463.648438 58.410156 463.648438 59.367188 L 458.300781 59.367188 M 458.300781 58.878906 L 461.882812 58.878906 C 461.855469 58.382812 461.792969 58.03125 461.707031 57.828125 C 461.566406 57.511719 461.355469 57.269531 461.078125 57.085938 C 460.796875 56.902344 460.507812 56.816406 460.203125 56.816406 C 459.734375 56.816406 459.3125 56.996094 458.945312 57.359375 C 458.578125 57.722656 458.363281 58.230469 458.300781 58.878906 Z M 464.25 56.453125 L 467.496094 56.453125 L 467.496094 56.765625 C 467.195312 56.785156 467 56.839844 466.90625 56.925781 C 466.8125 57.011719 466.769531 57.132812 466.769531 57.289062 C 466.769531 57.460938 466.8125 57.671875 466.910156 57.921875 L 468.566406 62.375 L 470.234375 58.75 L 469.792969 57.609375 C 469.65625 57.273438 469.480469 57.039062 469.261719 56.910156 C 469.136719 56.828125 468.90625 56.78125 468.566406 56.765625 L 468.566406 56.453125 L 472.253906 56.453125 L 472.253906 56.765625 C 471.847656 56.78125 471.558594 56.855469 471.390625 56.984375 C 471.277344 57.074219 471.222656 57.21875 471.222656 57.414062 C 471.222656 57.53125 471.242188 57.644531 471.289062 57.761719 L 473.046875 62.207031 L 474.679688 57.921875 C 474.792969 57.617188 474.847656 57.378906 474.847656 57.195312 C 474.847656 57.089844 474.792969 56.992188 474.683594 56.910156 C 474.570312 56.824219 474.355469 56.777344 474.035156 56.765625 L 474.035156 56.453125 L 476.476562 56.453125 L 476.476562 56.765625 C 475.988281 56.835938 475.628906 57.171875 475.394531 57.761719 L 472.808594 64.429688 L 472.464844 64.429688 L 470.527344 59.484375 L 468.273438 64.429688 L 467.960938 64.429688 L 465.476562 57.921875 C 465.308594 57.511719 465.148438 57.234375 464.992188 57.089844 C 464.835938 56.945312 464.585938 56.835938 464.25 56.765625 Z M 483.769531 56.222656 L 483.769531 57.964844 C 484.417969 56.804688 485.085938 56.222656 485.765625 56.222656 C 486.074219 56.222656 486.332031 56.316406 486.535156 56.507812 C 486.738281 56.695312 486.839844 56.914062 486.839844 57.160156 C 486.839844 57.382812 486.765625 57.566406 486.617188 57.71875 C 486.472656 57.871094 486.296875 57.949219 486.09375 57.949219 C 485.894531 57.949219 485.675781 57.851562 485.429688 57.65625 C 485.1875 57.460938 485.003906 57.363281 484.886719 57.363281 C 484.785156 57.363281 484.675781 57.417969 484.558594 57.535156 C 484.304688 57.765625 484.042969 58.144531 483.769531 58.675781 L 483.769531 62.382812 C 483.769531 62.8125 483.824219 63.136719 483.929688 63.355469 C 484.003906 63.507812 484.132812 63.636719 484.320312 63.738281 C 484.507812 63.839844 484.773438 63.890625 485.121094 63.890625 L 485.121094 64.191406 L 481.160156 64.191406 L 481.160156 63.890625 C 481.550781 63.890625 481.847656 63.824219 482.039062 63.703125 C 482.179688 63.613281 482.277344 63.46875 482.335938 63.273438 C 482.363281 63.175781 482.375 62.902344 482.375 62.453125 L 482.375 59.453125 C 482.375 58.550781 482.359375 58.015625 482.320312 57.84375 C 482.285156 57.667969 482.214844 57.546875 482.117188 57.464844 C 482.019531 57.386719 481.898438 57.347656 481.75 57.347656 C 481.578125 57.347656 481.378906 57.390625 481.160156 57.476562 L 481.074219 57.171875 L 483.414062 56.222656 Z M 488.570312 59.367188 C 488.566406 60.515625 488.84375 61.417969 489.40625 62.070312 C 489.96875 62.726562 490.632812 63.050781 491.394531 63.050781 C 491.898438 63.050781 492.339844 62.914062 492.714844 62.632812 C 493.09375 62.355469 493.40625 61.878906 493.65625 61.203125 L 493.921875 61.371094 C 493.800781 62.144531 493.460938 62.84375 492.890625 63.480469 C 492.320312 64.113281 491.609375 64.429688 490.75 64.429688 C 489.820312 64.429688 489.027344 64.066406 488.363281 63.34375 C 487.699219 62.621094 487.371094 61.644531 487.371094 60.425781 C 487.371094 59.101562 487.707031 58.066406 488.390625 57.328125 C 489.070312 56.585938 489.917969 56.214844 490.945312 56.214844 C 491.8125 56.214844 492.527344 56.503906 493.082031 57.074219 C 493.640625 57.644531 493.921875 58.410156 493.921875 59.367188 L 488.570312 59.367188 M 488.570312 58.878906 L 492.152344 58.878906 C 492.125 58.382812 492.066406 58.03125 491.976562 57.828125 C 491.835938 57.511719 491.625 57.269531 491.347656 57.085938 C 491.066406 56.902344 490.777344 56.816406 490.472656 56.816406 C 490.003906 56.816406 489.585938 56.996094 489.21875 57.359375 C 488.851562 57.722656 488.632812 58.230469 488.570312 58.878906 Z M 501.527344 61.253906 C 501.320312 62.269531 500.910156 63.054688 500.300781 63.605469 C 499.691406 64.15625 499.019531 64.429688 498.28125 64.429688 C 497.402344 64.429688 496.636719 64.0625 495.980469 63.324219 C 495.328125 62.582031 495 61.585938 495 60.332031 C 495 59.113281 495.363281 58.125 496.085938 57.363281 C 496.808594 56.605469 497.679688 56.222656 498.695312 56.222656 C 499.457031 56.222656 500.082031 56.425781 500.570312 56.828125 C 501.0625 57.230469 501.304688 57.648438 501.304688 58.082031 C 501.304688 58.296875 501.238281 58.472656 501.097656 58.601562 C 500.960938 58.734375 500.769531 58.800781 500.519531 58.800781 C 500.1875 58.800781 499.9375 58.695312 499.769531 58.480469 C 499.671875 58.363281 499.605469 58.136719 499.578125 57.804688 C 499.546875 57.46875 499.433594 57.21875 499.234375 57.042969 C 499.035156 56.875 498.765625 56.789062 498.414062 56.789062 C 497.855469 56.789062 497.398438 56.996094 497.054688 57.414062 C 496.597656 57.96875 496.371094 58.695312 496.371094 59.605469 C 496.371094 60.53125 496.597656 61.34375 497.050781 62.050781 C 497.503906 62.757812 498.117188 63.109375 498.890625 63.109375 C 499.441406 63.109375 499.9375 62.921875 500.375 62.546875 C 500.683594 62.289062 500.988281 61.8125 501.28125 61.132812 Z M 506.417969 56.222656 C 507.589844 56.222656 508.53125 56.667969 509.242188 57.558594 C 509.84375 58.320312 510.144531 59.195312 510.144531 60.179688 C 510.144531 60.871094 509.980469 61.574219 509.648438 62.28125 C 509.3125 62.992188 508.855469 63.53125 508.273438 63.890625 C 507.691406 64.246094 507.039062 64.429688 506.324219 64.429688 C 505.160156 64.429688 504.234375 63.964844 503.546875 63.035156 C 502.964844 62.253906 502.675781 61.375 502.675781 60.398438 C 502.675781 59.6875 502.851562 58.984375 503.203125 58.28125 C 503.554688 57.582031 504.019531 57.0625 504.59375 56.726562 C 505.167969 56.394531 505.777344 56.222656 506.417969 56.222656 M 506.15625 56.773438 C 505.855469 56.773438 505.558594 56.863281 505.257812 57.039062 C 504.957031 57.21875 504.710938 57.53125 504.527344 57.972656 C 504.339844 58.417969 504.246094 58.992188 504.246094 59.6875 C 504.246094 60.816406 504.472656 61.789062 504.917969 62.605469 C 505.367188 63.417969 505.957031 63.828125 506.6875 63.828125 C 507.234375 63.828125 507.6875 63.605469 508.042969 63.152344 C 508.394531 62.703125 508.574219 61.929688 508.574219 60.828125 C 508.574219 59.457031 508.277344 58.375 507.6875 57.585938 C 507.285156 57.042969 506.777344 56.773438 506.15625 56.773438 Z M 510.890625 56.453125 L 514.53125 56.453125 L 514.53125 56.765625 L 514.292969 56.765625 C 514.074219 56.765625 513.90625 56.820312 513.792969 56.925781 C 513.679688 57.03125 513.617188 57.175781 513.617188 57.355469 C 513.617188 57.554688 513.679688 57.789062 513.796875 58.058594 L 515.597656 62.332031 L 517.40625 57.898438 C 517.535156 57.582031 517.597656 57.34375 517.597656 57.179688 C 517.597656 57.097656 517.578125 57.035156 517.53125 56.984375 C 517.46875 56.898438 517.390625 56.839844 517.292969 56.8125 C 517.199219 56.78125 517.003906 56.765625 516.710938 56.765625 L 516.710938 56.453125 L 519.238281 56.453125 L 519.238281 56.765625 C 518.945312 56.785156 518.742188 56.84375 518.628906 56.941406 C 518.429688 57.109375 518.253906 57.394531 518.097656 57.789062 L 515.351562 64.429688 L 515.003906 64.429688 L 512.242188 57.898438 C 512.117188 57.59375 512 57.375 511.886719 57.242188 C 511.773438 57.109375 511.628906 56.996094 511.457031 56.910156 C 511.359375 56.859375 511.171875 56.8125 510.890625 56.765625 Z M 521.242188 59.367188 C 521.238281 60.515625 521.515625 61.417969 522.078125 62.070312 C 522.640625 62.726562 523.304688 63.050781 524.0625 63.050781 C 524.570312 63.050781 525.011719 62.914062 525.386719 62.632812 C 525.761719 62.355469 526.074219 61.878906 526.328125 61.203125 L 526.589844 61.371094 C 526.472656 62.144531 526.128906 62.84375 525.558594 63.480469 C 524.988281 64.113281 524.277344 64.429688 523.421875 64.429688 C 522.492188 64.429688 521.699219 64.066406 521.035156 63.34375 C 520.371094 62.621094 520.042969 61.644531 520.042969 60.425781 C 520.042969 59.101562 520.378906 58.066406 521.058594 57.328125 C 521.738281 56.585938 522.589844 56.214844 523.617188 56.214844 C 524.480469 56.214844 525.195312 56.503906 525.753906 57.074219 C 526.3125 57.644531 526.589844 58.410156 526.589844 59.367188 L 521.242188 59.367188 M 521.242188 58.878906 L 524.824219 58.878906 C 524.792969 58.382812 524.734375 58.03125 524.648438 57.828125 C 524.507812 57.511719 524.296875 57.269531 524.015625 57.085938 C 523.738281 56.902344 523.445312 56.816406 523.144531 56.816406 C 522.671875 56.816406 522.253906 56.996094 521.886719 57.359375 C 521.519531 57.722656 521.304688 58.230469 521.242188 58.878906 Z M 529.886719 56.222656 L 529.886719 57.964844 C 530.53125 56.804688 531.199219 56.222656 531.878906 56.222656 C 532.1875 56.222656 532.445312 56.316406 532.648438 56.507812 C 532.851562 56.695312 532.953125 56.914062 532.953125 57.160156 C 532.953125 57.382812 532.882812 57.566406 532.734375 57.71875 C 532.585938 57.871094 532.414062 57.949219 532.210938 57.949219 C 532.011719 57.949219 531.792969 57.851562 531.546875 57.65625 C 531.300781 57.460938 531.121094 57.363281 531 57.363281 C 530.902344 57.363281 530.789062 57.417969 530.671875 57.535156 C 530.417969 57.765625 530.15625 58.144531 529.886719 58.675781 L 529.886719 62.382812 C 529.886719 62.8125 529.941406 63.136719 530.046875 63.355469 C 530.117188 63.507812 530.25 63.636719 530.4375 63.738281 C 530.621094 63.839844 530.886719 63.890625 531.238281 63.890625 L 531.238281 64.191406 L 527.273438 64.191406 L 527.273438 63.890625 C 527.667969 63.890625 527.964844 63.824219 528.152344 63.703125 C 528.292969 63.613281 528.394531 63.46875 528.449219 63.273438 C 528.480469 63.175781 528.492188 62.902344 528.492188 62.453125 L 528.492188 59.453125 C 528.492188 58.550781 528.476562 58.015625 528.4375 57.84375 C 528.398438 57.667969 528.332031 57.546875 528.234375 57.464844 C 528.136719 57.386719 528.015625 57.347656 527.867188 57.347656 C 527.695312 57.347656 527.496094 57.390625 527.273438 57.476562 L 527.191406 57.171875 L 529.53125 56.222656 Z M 535.355469 52.175781 C 535.589844 52.175781 535.792969 52.261719 535.957031 52.425781 C 536.121094 52.589844 536.207031 52.792969 536.207031 53.03125 C 536.207031 53.265625 536.121094 53.46875 535.957031 53.636719 C 535.792969 53.808594 535.589844 53.890625 535.355469 53.890625 C 535.117188 53.890625 534.914062 53.808594 534.746094 53.636719 C 534.578125 53.46875 534.492188 53.265625 534.492188 53.03125 C 534.492188 52.792969 534.578125 52.589844 534.742188 52.425781 C 534.90625 52.261719 535.113281 52.175781 535.355469 52.175781 M 536.054688 56.222656 L 536.054688 62.445312 C 536.054688 62.929688 536.089844 63.25 536.160156 63.410156 C 536.234375 63.570312 536.335938 63.691406 536.472656 63.769531 C 536.613281 63.851562 536.863281 63.890625 537.230469 63.890625 L 537.230469 64.191406 L 533.46875 64.191406 L 533.46875 63.890625 C 533.84375 63.890625 534.097656 63.851562 534.230469 63.777344 C 534.359375 63.707031 534.460938 63.585938 534.539062 63.414062 C 534.613281 63.246094 534.652344 62.921875 534.652344 62.445312 L 534.652344 59.460938 C 534.652344 58.621094 534.628906 58.078125 534.578125 57.828125 C 534.539062 57.648438 534.476562 57.523438 534.390625 57.453125 C 534.304688 57.382812 534.191406 57.347656 534.042969 57.347656 C 533.886719 57.347656 533.695312 57.390625 533.46875 57.476562 L 533.351562 57.171875 L 535.683594 56.222656 Z M 539.496094 59.367188 C 539.492188 60.515625 539.769531 61.417969 540.332031 62.070312 C 540.894531 62.726562 541.558594 63.050781 542.316406 63.050781 C 542.824219 63.050781 543.265625 62.914062 543.640625 62.632812 C 544.015625 62.355469 544.328125 61.878906 544.582031 61.203125 L 544.84375 61.371094 C 544.726562 62.144531 544.382812 62.84375 543.8125 63.480469 C 543.242188 64.113281 542.53125 64.429688 541.675781 64.429688 C 540.746094 64.429688 539.949219 64.066406 539.289062 63.34375 C 538.625 62.621094 538.292969 61.644531 538.292969 60.425781 C 538.292969 59.101562 538.632812 58.066406 539.3125 57.328125 C 539.992188 56.585938 540.84375 56.214844 541.871094 56.214844 C 542.734375 56.214844 543.449219 56.503906 544.007812 57.074219 C 544.566406 57.644531 544.84375 58.410156 544.84375 59.367188 L 539.496094 59.367188 M 539.496094 58.878906 L 543.078125 58.878906 C 543.046875 58.382812 542.988281 58.03125 542.902344 57.828125 C 542.761719 57.511719 542.550781 57.269531 542.269531 57.085938 C 541.992188 56.902344 541.699219 56.816406 541.394531 56.816406 C 540.925781 56.816406 540.507812 56.996094 540.140625 57.359375 C 539.773438 57.722656 539.558594 58.230469 539.496094 58.878906 Z M 550.878906 56.222656 L 550.878906 58.859375 L 550.597656 58.859375 C 550.382812 58.03125 550.109375 57.46875 549.773438 57.171875 C 549.441406 56.871094 549.015625 56.722656 548.496094 56.722656 C 548.101562 56.722656 547.78125 56.828125 547.539062 57.035156 C 547.300781 57.242188 547.175781 57.476562 547.175781 57.726562 C 547.175781 58.046875 547.265625 58.316406 547.445312 58.539062 C 547.621094 58.773438 547.976562 59.015625 548.511719 59.273438 L 549.746094 59.875 C 550.890625 60.433594 551.460938 61.167969 551.460938 62.082031 C 551.460938 62.785156 551.195312 63.351562 550.664062 63.78125 C 550.128906 64.214844 549.535156 64.429688 548.875 64.429688 C 548.402344 64.429688 547.859375 64.34375 547.253906 64.175781 C 547.066406 64.121094 546.914062 64.089844 546.796875 64.089844 C 546.664062 64.089844 546.5625 64.164062 546.492188 64.3125 L 546.214844 64.3125 L 546.214844 61.546875 L 546.492188 61.546875 C 546.648438 62.339844 546.953125 62.929688 547.394531 63.332031 C 547.839844 63.730469 548.339844 63.929688 548.890625 63.929688 C 549.28125 63.929688 549.597656 63.816406 549.84375 63.589844 C 550.085938 63.359375 550.210938 63.085938 550.210938 62.765625 C 550.210938 62.375 550.074219 62.050781 549.800781 61.785156 C 549.527344 61.519531 548.980469 61.183594 548.164062 60.777344 C 547.351562 60.375 546.8125 60.003906 546.558594 59.679688 C 546.304688 59.359375 546.179688 58.953125 546.179688 58.464844 C 546.179688 57.824219 546.398438 57.292969 546.835938 56.867188 C 547.269531 56.4375 547.835938 56.222656 548.527344 56.222656 C 548.832031 56.222656 549.199219 56.289062 549.636719 56.417969 C 549.921875 56.503906 550.113281 56.546875 550.210938 56.546875 C 550.300781 56.546875 550.371094 56.523438 550.421875 56.484375 C 550.472656 56.449219 550.53125 56.359375 550.597656 56.222656 Z M 443.960938 48.769531 "/>
</svg>
